STARTFONT 2.1
COMMENT
COMMENT Converted from OpenType font "UbuntuMono-BoldItalic.ttf" by "otf2bdf 3.0".
COMMENT
FONT -FreeType-Ubuntu Mono-Bold-I-Normal--22-160-100-100-P-112-ISO10646-1
SIZE 16 100 100
FONTBOUNDINGBOX 21 22 -6 -4
STARTPROPERTIES 19
FOUNDRY "FreeType"
FAMILY_NAME "Ubuntu Mono"
WEIGHT_NAME "Bold"
SLANT "I"
SETWIDTH_NAME "Normal"
ADD_STYLE_NAME ""
PIXEL_SIZE 22
POINT_SIZE 160
RESOLUTION_X 100
RESOLUTION_Y 100
SPACING "P"
AVERAGE_WIDTH 112
CHARSET_REGISTRY "ISO10646"
CHARSET_ENCODING "1"
FONT_ASCENT 18
FONT_DESCENT 3
COPYRIGHT "Copyright 2011 Canonical Ltd.  Licensed under the Ubuntu Font Licence 1.0"
_OTF_FONTFILE "UbuntuMono-BoldItalic.ttf"
_OTF_PSNAME "UbuntuMono-BoldItalic"
ENDPROPERTIES
CHARS 1224
STARTCHAR 0000
ENCODING 0
SWIDTH 495 0
DWIDTH 11 0
BBX 0 0 0 0
BITMAP
ENDCHAR
STARTCHAR 0008
ENCODING 8
SWIDTH 495 0
DWIDTH 11 0
BBX 0 0 0 0
BITMAP
ENDCHAR
STARTCHAR 0009
ENCODING 9
SWIDTH 495 0
DWIDTH 11 0
BBX 0 0 0 0
BITMAP
ENDCHAR
STARTCHAR 000D
ENCODING 13
SWIDTH 495 0
DWIDTH 11 0
BBX 0 0 0 0
BITMAP
ENDCHAR
STARTCHAR 001D
ENCODING 29
SWIDTH 495 0
DWIDTH 11 0
BBX 0 0 0 0
BITMAP
ENDCHAR
STARTCHAR 0020
ENCODING 32
SWIDTH 495 0
DWIDTH 11 0
BBX 0 0 0 0
BITMAP
ENDCHAR
STARTCHAR 0021
ENCODING 33
SWIDTH 495 0
DWIDTH 11 0
BBX 6 14 4 0
BITMAP
1C
3C
38
38
38
38
70
70
70
00
00
E0
E0
E0
ENDCHAR
STARTCHAR 0022
ENCODING 34
SWIDTH 495 0
DWIDTH 11 0
BBX 8 6 4 9
BITMAP
77
77
67
E6
E6
C6
ENDCHAR
STARTCHAR 0023
ENCODING 35
SWIDTH 495 0
DWIDTH 11 0
BBX 11 14 1 0
BITMAP
0660
0660
0EE0
0CC0
7FE0
7FE0
1980
3B80
FFC0
FFC0
FFC0
6600
EE00
CC00
ENDCHAR
STARTCHAR 0024
ENCODING 36
SWIDTH 495 0
DWIDTH 11 0
BBX 11 17 1 -2
BITMAP
0380
0300
0FE0
1FC0
3800
3800
3C00
1E00
0F80
0380
01C0
0180
6780
FF80
3E00
1800
1800
ENDCHAR
STARTCHAR 0025
ENCODING 37
SWIDTH 495 0
DWIDTH 11 0
BBX 12 14 1 0
BITMAP
1C30
3C30
6460
6CC0
6D80
7B00
3600
0680
0DC0
1B60
3260
6640
C6C0
C380
ENDCHAR
STARTCHAR 0026
ENCODING 38
SWIDTH 495 0
DWIDTH 11 0
BBX 11 14 1 0
BITMAP
0780
1FC0
19C0
19C0
1980
1F00
1E00
3CE0
7EC0
E7C0
C380
E380
FF80
7DC0
ENDCHAR
STARTCHAR 0027
ENCODING 39
SWIDTH 495 0
DWIDTH 11 0
BBX 4 7 6 8
BITMAP
70
70
60
E0
E0
C0
C0
ENDCHAR
STARTCHAR 0028
ENCODING 40
SWIDTH 495 0
DWIDTH 11 0
BBX 9 20 3 -4
BITMAP
0100
0380
0700
0E00
1C00
3800
3800
7000
6000
E000
E000
E000
E000
E000
E000
6000
7000
7000
3800
1000
ENDCHAR
STARTCHAR 0029
ENCODING 41
SWIDTH 495 0
DWIDTH 11 0
BBX 9 19 1 -4
BITMAP
0400
0E00
0600
0700
0300
0380
0380
0380
0380
0380
0300
0700
0700
0E00
0E00
1C00
3800
F000
E000
ENDCHAR
STARTCHAR 002A
ENCODING 42
SWIDTH 495 0
DWIDTH 11 0
BBX 9 9 3 5
BITMAP
1C00
1C00
D900
EF80
FF80
1C00
7600
7700
2000
ENDCHAR
STARTCHAR 002B
ENCODING 43
SWIDTH 495 0
DWIDTH 11 0
BBX 9 10 2 1
BITMAP
0E00
0C00
0C00
0C00
FF80
FF80
1800
1800
3800
3800
ENDCHAR
STARTCHAR 002C
ENCODING 44
SWIDTH 495 0
DWIDTH 11 0
BBX 6 7 2 -3
BITMAP
18
38
3C
38
18
70
E0
ENDCHAR
STARTCHAR 002D
ENCODING 45
SWIDTH 495 0
DWIDTH 11 0
BBX 7 3 3 4
BITMAP
7E
FC
FC
ENDCHAR
STARTCHAR 002E
ENCODING 46
SWIDTH 495 0
DWIDTH 11 0
BBX 3 4 4 0
BITMAP
60
E0
E0
E0
ENDCHAR
STARTCHAR 002F
ENCODING 47
SWIDTH 495 0
DWIDTH 11 0
BBX 13 20 0 -4
BITMAP
0038
0070
0070
00E0
00E0
01C0
01C0
0380
0380
0700
0700
0E00
0C00
1C00
1800
3800
7000
7000
E000
E000
ENDCHAR
STARTCHAR 0030
ENCODING 48
SWIDTH 495 0
DWIDTH 11 0
BBX 10 14 2 0
BITMAP
0F00
3F80
39C0
71C0
61C0
E5C0
EDC0
CDC0
C180
C380
C380
E700
FE00
7C00
ENDCHAR
STARTCHAR 0031
ENCODING 49
SWIDTH 495 0
DWIDTH 11 0
BBX 8 14 2 0
BITMAP
03
0F
1F
7F
76
0E
0E
0E
0C
1C
1C
1C
FF
FF
ENDCHAR
STARTCHAR 0032
ENCODING 50
SWIDTH 495 0
DWIDTH 11 0
BBX 11 14 1 0
BITMAP
0F80
3FC0
19E0
00E0
00E0
01C0
0380
0F00
1E00
3C00
7000
6000
FF80
FF80
ENDCHAR
STARTCHAR 0033
ENCODING 51
SWIDTH 495 0
DWIDTH 11 0
BBX 11 14 1 0
BITMAP
0F80
1FC0
11E0
00E0
00C0
03C0
0F00
1F80
0380
01C0
01C0
8380
FF80
FE00
ENDCHAR
STARTCHAR 0034
ENCODING 52
SWIDTH 495 0
DWIDTH 11 0
BBX 11 14 1 0
BITMAP
00E0
01E0
03E0
07C0
0DC0
1DC0
39C0
7180
6180
FFC0
FFC0
0300
0300
0700
ENDCHAR
STARTCHAR 0035
ENCODING 53
SWIDTH 495 0
DWIDTH 11 0
BBX 11 14 1 0
BITMAP
0FE0
0FE0
1FE0
1800
1800
1C00
3F00
1F80
0380
01C0
0180
0380
FF80
FE00
ENDCHAR
STARTCHAR 0036
ENCODING 54
SWIDTH 495 0
DWIDTH 11 0
BBX 10 14 2 0
BITMAP
01C0
0FC0
1F00
3800
7000
EE00
FF00
F380
C180
C180
C380
E380
FF00
7E00
ENDCHAR
STARTCHAR 0037
ENCODING 55
SWIDTH 495 0
DWIDTH 11 0
BBX 10 14 3 0
BITMAP
7FC0
FFC0
FF80
0700
0700
0E00
1C00
1800
3800
7000
7000
6000
E000
E000
ENDCHAR
STARTCHAR 0038
ENCODING 56
SWIDTH 495 0
DWIDTH 11 0
BBX 11 14 1 0
BITMAP
0780
1FE0
1CE0
38E0
38E0
1DC0
1F80
3F80
7380
61C0
E1C0
E1C0
7F80
3F00
ENDCHAR
STARTCHAR 0039
ENCODING 57
SWIDTH 495 0
DWIDTH 11 0
BBX 11 14 1 0
BITMAP
0F80
1FC0
39C0
30E0
70E0
70E0
38E0
3FE0
1FC0
01C0
0380
0F00
FE00
F800
ENDCHAR
STARTCHAR 003A
ENCODING 58
SWIDTH 495 0
DWIDTH 11 0
BBX 5 10 4 0
BITMAP
38
78
78
00
00
00
60
E0
E0
E0
ENDCHAR
STARTCHAR 003B
ENCODING 59
SWIDTH 495 0
DWIDTH 11 0
BBX 7 13 2 -3
BITMAP
0E
1E
1E
00
00
00
18
38
3C
38
18
70
E0
ENDCHAR
STARTCHAR 003C
ENCODING 60
SWIDTH 495 0
DWIDTH 11 0
BBX 10 9 2 2
BITMAP
01C0
0FC0
3F00
F800
E000
FC00
3F00
0F00
0300
ENDCHAR
STARTCHAR 003D
ENCODING 61
SWIDTH 495 0
DWIDTH 11 0
BBX 11 6 1 3
BITMAP
7FE0
7FE0
0000
0000
FFC0
FFC0
ENDCHAR
STARTCHAR 003E
ENCODING 62
SWIDTH 495 0
DWIDTH 11 0
BBX 10 9 1 2
BITMAP
3800
7E00
1F80
03C0
03C0
1FC0
FE00
F000
C000
ENDCHAR
STARTCHAR 003F
ENCODING 63
SWIDTH 495 0
DWIDTH 11 0
BBX 9 14 3 0
BITMAP
3F00
7F80
2380
0380
0700
0F00
1C00
3800
3000
0000
0000
7000
F000
7000
ENDCHAR
STARTCHAR 0040
ENCODING 64
SWIDTH 495 0
DWIDTH 11 0
BBX 11 17 1 -3
BITMAP
07C0
0FE0
1860
3060
73E0
67E0
6E60
6CE0
CCC0
CCC0
CCC0
CFC0
E780
6000
7000
3F00
1F00
ENDCHAR
STARTCHAR 0041
ENCODING 65
SWIDTH 495 0
DWIDTH 11 0
BBX 11 14 0 0
BITMAP
01C0
03C0
03C0
06C0
06C0
0CC0
1CC0
1CC0
38C0
3FE0
7FE0
70E0
60E0
E0E0
ENDCHAR
STARTCHAR 0042
ENCODING 66
SWIDTH 495 0
DWIDTH 11 0
BBX 11 14 1 0
BITMAP
1F80
1FC0
19E0
38E0
38E0
39C0
3F80
7F80
71C0
70C0
61C0
E3C0
FF80
FE00
ENDCHAR
STARTCHAR 0043
ENCODING 67
SWIDTH 495 0
DWIDTH 11 0
BBX 10 14 2 0
BITMAP
07C0
1FC0
3CC0
7800
7000
6000
E000
E000
E000
E000
E000
F100
7F00
3F00
ENDCHAR
STARTCHAR 0044
ENCODING 68
SWIDTH 495 0
DWIDTH 11 0
BBX 11 14 1 0
BITMAP
1F00
1FC0
3BC0
38E0
38E0
30E0
70E0
70E0
71C0
61C0
E3C0
E780
FF00
FC00
ENDCHAR
STARTCHAR 0045
ENCODING 69
SWIDTH 495 0
DWIDTH 11 0
BBX 12 14 1 0
BITMAP
1FF0
1FE0
1FE0
1800
3800
3800
3F80
3F80
7000
7000
7000
6000
7F80
FF80
ENDCHAR
STARTCHAR 0046
ENCODING 70
SWIDTH 495 0
DWIDTH 11 0
BBX 12 14 1 0
BITMAP
0FF0
1FF0
1FE0
1C00
1800
3800
3FC0
3FC0
3000
7000
7000
7000
6000
E000
ENDCHAR
STARTCHAR 0047
ENCODING 71
SWIDTH 495 0
DWIDTH 11 0
BBX 10 14 2 0
BITMAP
07C0
1FC0
3CC0
7000
7000
E000
E000
E180
C380
C380
E380
E300
FF00
7F00
ENDCHAR
STARTCHAR 0048
ENCODING 72
SWIDTH 495 0
DWIDTH 11 0
BBX 12 14 1 0
BITMAP
1C70
1870
3860
38E0
38E0
30E0
7FE0
7FC0
71C0
61C0
E1C0
E180
E380
C380
ENDCHAR
STARTCHAR 0049
ENCODING 73
SWIDTH 495 0
DWIDTH 11 0
BBX 12 14 1 0
BITMAP
1FF0
1FF0
1FE0
0700
0700
0700
0600
0E00
0E00
0E00
0C00
1C00
FF80
FF80
ENDCHAR
STARTCHAR 004A
ENCODING 74
SWIDTH 495 0
DWIDTH 11 0
BBX 11 14 1 0
BITMAP
0FE0
0FE0
0FE0
00E0
00C0
01C0
01C0
01C0
0180
0380
0380
4780
FF00
7E00
ENDCHAR
STARTCHAR 004B
ENCODING 75
SWIDTH 495 0
DWIDTH 11 0
BBX 12 14 1 0
BITMAP
1C70
18E0
38E0
39C0
3B80
3700
7E00
7E00
7700
7700
6380
E380
E380
E1C0
ENDCHAR
STARTCHAR 004C
ENCODING 76
SWIDTH 495 0
DWIDTH 11 0
BBX 9 14 1 0
BITMAP
1C00
1C00
1800
1800
3800
3800
3800
3000
7000
7000
7000
6000
FF80
FF80
ENDCHAR
STARTCHAR 004D
ENCODING 77
SWIDTH 495 0
DWIDTH 11 0
BBX 13 14 0 0
BITMAP
0C38
0E38
1E70
1E70
1EF0
3EB0
37B0
3770
3760
7060
6060
60E0
60E0
E0C0
ENDCHAR
STARTCHAR 004E
ENCODING 78
SWIDTH 495 0
DWIDTH 11 0
BBX 12 14 1 0
BITMAP
1830
1C70
3C60
3C60
3C60
36E0
76E0
76C0
66C0
63C0
E3C0
E380
C380
C380
ENDCHAR
STARTCHAR 004F
ENCODING 79
SWIDTH 495 0
DWIDTH 11 0
BBX 11 14 1 0
BITMAP
0780
1FC0
1CE0
38E0
30E0
70E0
70E0
60E0
60C0
E1C0
61C0
7380
7F00
3E00
ENDCHAR
STARTCHAR 0050
ENCODING 80
SWIDTH 495 0
DWIDTH 11 0
BBX 11 14 1 0
BITMAP
1F80
1FE0
1DE0
38E0
3860
38E0
31E0
7FC0
7F80
7000
6000
E000
E000
E000
ENDCHAR
STARTCHAR 0051
ENCODING 81
SWIDTH 495 0
DWIDTH 11 0
BBX 10 18 2 -4
BITMAP
0F00
3F80
39C0
71C0
61C0
E1C0
E1C0
C1C0
C180
C380
C380
E700
FE00
7C00
3000
3800
1E00
0600
ENDCHAR
STARTCHAR 0052
ENCODING 82
SWIDTH 495 0
DWIDTH 11 0
BBX 11 14 1 0
BITMAP
1F80
1FC0
39E0
38E0
38E0
30E0
33C0
7F80
7F00
7700
6300
E380
E380
E180
ENDCHAR
STARTCHAR 0053
ENCODING 83
SWIDTH 495 0
DWIDTH 11 0
BBX 11 14 1 0
BITMAP
0FC0
1FE0
3C40
3800
3800
3C00
1F00
0F80
0380
01C0
0180
4380
FF80
FE00
ENDCHAR
STARTCHAR 0054
ENCODING 84
SWIDTH 495 0
DWIDTH 11 0
BBX 10 14 3 0
BITMAP
FFC0
FFC0
FFC0
1C00
1C00
1C00
1800
3800
3800
3800
3000
7000
7000
7000
ENDCHAR
STARTCHAR 0055
ENCODING 85
SWIDTH 495 0
DWIDTH 11 0
BBX 12 14 1 0
BITMAP
1870
3870
3860
38E0
38E0
30E0
70C0
71C0
71C0
61C0
E180
7380
7F00
3E00
ENDCHAR
STARTCHAR 0056
ENCODING 86
SWIDTH 495 0
DWIDTH 11 0
BBX 11 14 3 0
BITMAP
E0E0
E1C0
E1C0
E180
E380
E300
E700
E600
EE00
EC00
FC00
F800
7800
7000
ENDCHAR
STARTCHAR 0057
ENCODING 87
SWIDTH 495 0
DWIDTH 11 0
BBX 12 14 1 0
BITMAP
3830
3830
3030
3070
3060
7660
6660
6EE0
6AC0
7AC0
F3C0
F380
E380
E380
ENDCHAR
STARTCHAR 0058
ENCODING 88
SWIDTH 495 0
DWIDTH 11 0
BBX 13 14 0 0
BITMAP
1C18
0E38
0E70
06E0
07C0
07C0
0380
0780
0F80
1DC0
1DC0
39C0
70C0
F0C0
ENDCHAR
STARTCHAR 0059
ENCODING 89
SWIDTH 495 0
DWIDTH 11 0
BBX 11 14 3 0
BITMAP
E0E0
E1C0
6380
6380
6700
7600
7E00
3C00
3800
3800
3000
7000
7000
7000
ENDCHAR
STARTCHAR 005A
ENCODING 90
SWIDTH 495 0
DWIDTH 11 0
BBX 12 14 1 0
BITMAP
1FF0
1FE0
00E0
01C0
0380
0700
0700
0E00
1C00
3800
7000
6000
FF80
FF80
ENDCHAR
STARTCHAR 005B
ENCODING 91
SWIDTH 495 0
DWIDTH 11 0
BBX 11 20 2 -4
BITMAP
07E0
0FE0
0FC0
0C00
0C00
1C00
1C00
1C00
1800
3800
3800
3800
3000
7000
7000
7000
6000
6000
FC00
FC00
ENDCHAR
STARTCHAR 005C
ENCODING 92
SWIDTH 495 0
DWIDTH 11 0
BBX 4 20 5 -4
BITMAP
C0
C0
C0
C0
E0
E0
E0
E0
E0
E0
E0
60
60
60
60
70
70
70
70
70
ENDCHAR
STARTCHAR 005D
ENCODING 93
SWIDTH 495 0
DWIDTH 11 0
BBX 11 20 0 -4
BITMAP
07E0
07E0
0FE0
00C0
00C0
01C0
01C0
0180
0180
0380
0380
0300
0300
0700
0700
0700
0600
0E00
7E00
FE00
ENDCHAR
STARTCHAR 005E
ENCODING 94
SWIDTH 495 0
DWIDTH 11 0
BBX 10 8 2 6
BITMAP
0700
0F00
1F00
1F80
3B80
7180
E1C0
4180
ENDCHAR
STARTCHAR 005F
ENCODING 95
SWIDTH 495 0
DWIDTH 11 0
BBX 11 3 -1 -4
BITMAP
7FE0
7FC0
FFC0
ENDCHAR
STARTCHAR 0060
ENCODING 96
SWIDTH 495 0
DWIDTH 11 0
BBX 5 3 5 11
BITMAP
60
F0
38
ENDCHAR
STARTCHAR 0061
ENCODING 97
SWIDTH 495 0
DWIDTH 11 0
BBX 11 11 1 0
BITMAP
0780
1FE0
3FC0
71C0
71C0
61C0
E180
E380
7380
7F80
3D80
ENDCHAR
STARTCHAR 0062
ENCODING 98
SWIDTH 495 0
DWIDTH 11 0
BBX 10 15 1 0
BITMAP
1C00
1C00
1C00
1800
3B00
3F80
3FC0
31C0
71C0
71C0
71C0
61C0
E380
FF00
FE00
ENDCHAR
STARTCHAR 0063
ENCODING 99
SWIDTH 495 0
DWIDTH 11 0
BBX 10 11 2 0
BITMAP
0780
1FC0
7F80
7000
E000
E000
C000
E000
E100
FF00
7F00
ENDCHAR
STARTCHAR 0064
ENCODING 100
SWIDTH 495 0
DWIDTH 11 0
BBX 12 15 1 0
BITMAP
0070
0070
0060
00E0
03E0
1FE0
3FC0
71C0
71C0
61C0
E180
E380
7380
7F80
3D80
ENDCHAR
STARTCHAR 0065
ENCODING 101
SWIDTH 495 0
DWIDTH 11 0
BBX 10 11 2 0
BITMAP
0F00
3F80
7BC0
61C0
E380
FF80
FE00
C000
E000
FF00
7F00
ENDCHAR
STARTCHAR 0066
ENCODING 102
SWIDTH 495 0
DWIDTH 11 0
BBX 14 19 -1 -4
BITMAP
00FC
01FC
01C0
0180
0380
0FF8
0FF0
0380
0300
0700
0700
0700
0700
0600
0E00
0E00
7C00
FC00
7000
ENDCHAR
STARTCHAR 0067
ENCODING 103
SWIDTH 495 0
DWIDTH 11 0
BBX 12 15 0 -4
BITMAP
01C0
0FF0
1FE0
3860
38E0
30E0
30E0
38C0
3FC0
1FC0
01C0
0380
7F80
FF00
3C00
ENDCHAR
STARTCHAR 0068
ENCODING 104
SWIDTH 495 0
DWIDTH 11 0
BBX 10 15 1 0
BITMAP
1C00
1C00
1C00
1800
3B00
3FC0
3FC0
39C0
31C0
71C0
7180
7180
6380
E380
E380
ENDCHAR
STARTCHAR 0069
ENCODING 105
SWIDTH 495 0
DWIDTH 11 0
BBX 7 15 3 0
BITMAP
1C
1C
1C
00
00
F8
F8
38
38
30
70
70
70
7E
3E
ENDCHAR
STARTCHAR 006A
ENCODING 106
SWIDTH 495 0
DWIDTH 11 0
BBX 11 19 0 -4
BITMAP
00C0
01E0
01C0
0000
0000
1FC0
1FC0
01C0
01C0
0180
0380
0380
0380
0300
0700
0700
FE00
FE00
7800
ENDCHAR
STARTCHAR 006B
ENCODING 107
SWIDTH 495 0
DWIDTH 11 0
BBX 11 15 1 0
BITMAP
0C00
1C00
1C00
1C00
1800
38E0
39C0
3B80
3700
3E00
7600
7700
7380
6380
E380
ENDCHAR
STARTCHAR 006C
ENCODING 108
SWIDTH 495 0
DWIDTH 11 0
BBX 7 15 3 0
BITMAP
7C
FC
1C
18
18
38
38
38
30
70
70
70
70
7E
3E
ENDCHAR
STARTCHAR 006D
ENCODING 109
SWIDTH 495 0
DWIDTH 11 0
BBX 11 11 1 0
BITMAP
0880
3FE0
37E0
66E0
66C0
6EC0
6CC0
E0C0
C180
C180
C180
ENDCHAR
STARTCHAR 006E
ENCODING 110
SWIDTH 495 0
DWIDTH 11 0
BBX 10 11 1 0
BITMAP
0F00
3FC0
3FC0
39C0
31C0
71C0
7180
7180
6380
E380
E300
ENDCHAR
STARTCHAR 006F
ENCODING 111
SWIDTH 495 0
DWIDTH 11 0
BBX 10 11 1 0
BITMAP
0700
1F80
3FC0
71C0
71C0
61C0
E1C0
E1C0
7380
7F00
3E00
ENDCHAR
STARTCHAR 0070
ENCODING 112
SWIDTH 495 0
DWIDTH 11 0
BBX 11 15 0 -4
BITMAP
0780
1FC0
1FE0
18E0
3860
38E0
38E0
30E0
73C0
7F80
7F00
6000
E000
E000
E000
ENDCHAR
STARTCHAR 0071
ENCODING 113
SWIDTH 495 0
DWIDTH 11 0
BBX 10 15 2 -4
BITMAP
0700
3FC0
7F80
7180
E380
E380
C380
C300
E700
FF00
7F00
0600
0E00
0E00
0E00
ENDCHAR
STARTCHAR 0072
ENCODING 114
SWIDTH 495 0
DWIDTH 11 0
BBX 10 11 2 0
BITMAP
0780
3FC0
3F80
7000
7000
7000
6000
E000
E000
E000
C000
ENDCHAR
STARTCHAR 0073
ENCODING 115
SWIDTH 495 0
DWIDTH 11 0
BBX 10 11 1 0
BITMAP
0780
1FC0
3FC0
3800
3C00
1F00
0F80
0380
4380
FF80
FF00
ENDCHAR
STARTCHAR 0074
ENCODING 116
SWIDTH 495 0
DWIDTH 11 0
BBX 9 14 3 0
BITMAP
0400
1800
3800
3800
FF80
FF00
7000
7000
7000
6000
E000
E000
7E00
7E00
ENDCHAR
STARTCHAR 0075
ENCODING 117
SWIDTH 495 0
DWIDTH 11 0
BBX 9 10 2 0
BITMAP
7180
7380
6380
E380
E300
E300
C700
E700
FF00
FB00
ENDCHAR
STARTCHAR 0076
ENCODING 118
SWIDTH 495 0
DWIDTH 11 0
BBX 10 10 2 0
BITMAP
E1C0
E1C0
6380
6380
7700
7600
7E00
7C00
3800
3800
ENDCHAR
STARTCHAR 0077
ENCODING 119
SWIDTH 495 0
DWIDTH 11 0
BBX 12 10 1 0
BITMAP
6070
6060
6660
6EE0
6EC0
7AC0
5B80
F380
E380
E300
ENDCHAR
STARTCHAR 0078
ENCODING 120
SWIDTH 495 0
DWIDTH 11 0
BBX 11 10 1 0
BITMAP
38E0
39C0
1F80
1F00
0E00
1E00
3F00
7300
7380
E380
ENDCHAR
STARTCHAR 0079
ENCODING 121
SWIDTH 495 0
DWIDTH 11 0
BBX 13 14 -1 -4
BITMAP
0C38
0C30
0E70
0E70
0EE0
0EE0
0FC0
0780
0780
0700
0E00
7E00
F800
7000
ENDCHAR
STARTCHAR 007A
ENCODING 122
SWIDTH 495 0
DWIDTH 11 0
BBX 11 10 1 0
BITMAP
1FE0
3FC0
0380
0700
0E00
1C00
3800
7000
FF80
FF80
ENDCHAR
STARTCHAR 007B
ENCODING 123
SWIDTH 495 0
DWIDTH 11 0
BBX 11 20 2 -4
BITMAP
00E0
07E0
07C0
0600
0E00
0E00
0C00
0C00
1C00
7800
F000
3800
3800
3800
3000
3000
7000
7800
3E00
1E00
ENDCHAR
STARTCHAR 007C
ENCODING 124
SWIDTH 495 0
DWIDTH 11 0
BBX 7 20 3 -4
BITMAP
0E
0E
0E
0C
1C
1C
1C
18
38
38
38
30
30
70
70
70
60
E0
E0
E0
ENDCHAR
STARTCHAR 007D
ENCODING 125
SWIDTH 495 0
DWIDTH 11 0
BBX 11 20 0 -4
BITMAP
0E00
0F80
0F80
0180
0180
0180
0380
0380
0380
01E0
03C0
0700
0600
0600
0E00
0E00
0C00
1C00
FC00
F000
ENDCHAR
STARTCHAR 007E
ENCODING 126
SWIDTH 495 0
DWIDTH 11 0
BBX 10 4 1 4
BITMAP
3840
7EC0
7FC0
C780
ENDCHAR
STARTCHAR 00A0
ENCODING 160
SWIDTH 495 0
DWIDTH 11 0
BBX 0 0 0 0
BITMAP
ENDCHAR
STARTCHAR 00A1
ENCODING 161
SWIDTH 495 0
DWIDTH 11 0
BBX 6 14 3 -4
BITMAP
1C
3C
1C
00
00
38
30
70
70
70
70
E0
E0
E0
ENDCHAR
STARTCHAR 00A2
ENCODING 162
SWIDTH 495 0
DWIDTH 11 0
BBX 10 16 2 -2
BITMAP
0380
0300
0700
0F80
3FC0
7C80
7000
E000
E000
E000
E000
FF00
7F00
1C00
1800
3800
ENDCHAR
STARTCHAR 00A3
ENCODING 163
SWIDTH 495 0
DWIDTH 11 0
BBX 11 14 2 0
BITMAP
07E0
0FC0
1E40
1C00
1800
3800
FF00
FF00
FF00
7000
7000
6000
FF80
FF00
ENDCHAR
STARTCHAR 00A4
ENCODING 164
SWIDTH 495 0
DWIDTH 11 0
BBX 10 10 2 2
BITMAP
4080
FFC0
FF80
7380
6380
6380
7380
FF80
FFC0
4080
ENDCHAR
STARTCHAR 00A5
ENCODING 165
SWIDTH 495 0
DWIDTH 11 0
BBX 13 14 1 0
BITMAP
3838
3870
38E0
18E0
1DC0
1F80
0F00
7FC0
0E00
0E00
7F80
FF80
1C00
1C00
ENDCHAR
STARTCHAR 00A6
ENCODING 166
SWIDTH 495 0
DWIDTH 11 0
BBX 7 20 3 -4
BITMAP
06
0E
0E
0E
0C
1C
1C
1C
00
00
00
00
30
70
70
70
60
E0
E0
E0
ENDCHAR
STARTCHAR 00A7
ENCODING 167
SWIDTH 495 0
DWIDTH 11 0
BBX 11 16 1 -2
BITMAP
07E0
0FC0
1C00
1C00
1E00
1F80
33C0
71C0
71C0
7B80
3F00
0F00
0700
0700
FE00
FC00
ENDCHAR
STARTCHAR 00A8
ENCODING 168
SWIDTH 495 0
DWIDTH 11 0
BBX 7 3 5 12
BITMAP
C6
EE
CE
ENDCHAR
STARTCHAR 00A9
ENCODING 169
SWIDTH 495 0
DWIDTH 11 0
BBX 10 11 1 0
BITMAP
0400
3F80
6180
4EC0
5A40
D040
D040
5E40
66C0
3180
1F00
ENDCHAR
STARTCHAR 00AA
ENCODING 170
SWIDTH 495 0
DWIDTH 11 0
BBX 7 8 4 6
BITMAP
3E
7E
E6
CE
CC
CC
FC
76
ENDCHAR
STARTCHAR 00AB
ENCODING 171
SWIDTH 495 0
DWIDTH 11 0
BBX 9 9 2 1
BITMAP
1880
3980
7300
6700
C600
6600
6700
6300
2300
ENDCHAR
STARTCHAR 00AC
ENCODING 172
SWIDTH 495 0
DWIDTH 11 0
BBX 9 7 2 1
BITMAP
FF80
FF80
0180
0380
0300
0300
0300
ENDCHAR
STARTCHAR 00AD
ENCODING 173
SWIDTH 495 0
DWIDTH 11 0
BBX 7 3 3 4
BITMAP
7E
FC
FC
ENDCHAR
STARTCHAR 00AE
ENCODING 174
SWIDTH 495 0
DWIDTH 11 0
BBX 10 11 1 0
BITMAP
0400
3F80
6180
4EC0
4A40
CA40
CE40
4A40
6BC0
3180
1F00
ENDCHAR
STARTCHAR 00AF
ENCODING 175
SWIDTH 495 0
DWIDTH 11 0
BBX 6 2 5 12
BITMAP
FC
FC
ENDCHAR
STARTCHAR 00B0
ENCODING 176
SWIDTH 495 0
DWIDTH 11 0
BBX 6 6 5 10
BITMAP
F8
DC
CC
CC
F8
30
ENDCHAR
STARTCHAR 00B1
ENCODING 177
SWIDTH 495 0
DWIDTH 11 0
BBX 11 12 1 0
BITMAP
0300
0700
0700
3FE0
7FE0
0600
0E00
0C00
0C00
0000
FF80
FF80
ENDCHAR
STARTCHAR 00B2
ENCODING 178
SWIDTH 495 0
DWIDTH 11 0
BBX 6 8 4 6
BITMAP
3C
7C
0C
0C
38
70
FC
FC
ENDCHAR
STARTCHAR 00B3
ENCODING 179
SWIDTH 495 0
DWIDTH 11 0
BBX 7 8 4 6
BITMAP
3C
3E
04
3C
3C
0C
FC
F8
ENDCHAR
STARTCHAR 00B4
ENCODING 180
SWIDTH 495 0
DWIDTH 11 0
BBX 5 4 6 11
BITMAP
30
78
F0
40
ENDCHAR
STARTCHAR 00B5
ENCODING 181
SWIDTH 495 0
DWIDTH 11 0
BBX 11 14 0 -4
BITMAP
1C60
1C60
18E0
38E0
38E0
38C0
39C0
79C0
7FE0
7EC0
6000
6000
E000
E000
ENDCHAR
STARTCHAR 00B6
ENCODING 182
SWIDTH 495 0
DWIDTH 11 0
BBX 11 18 2 -4
BITMAP
0FE0
3FE0
7CC0
7CC0
FCC0
FCC0
F9C0
7980
3980
1980
3B80
3300
3300
3300
7700
6600
6600
6600
ENDCHAR
STARTCHAR 00B7
ENCODING 183
SWIDTH 495 0
DWIDTH 11 0
BBX 4 4 4 4
BITMAP
70
70
F0
70
ENDCHAR
STARTCHAR 00B8
ENCODING 184
SWIDTH 495 0
DWIDTH 11 0
BBX 4 4 3 -4
BITMAP
30
30
F0
E0
ENDCHAR
STARTCHAR 00B9
ENCODING 185
SWIDTH 495 0
DWIDTH 11 0
BBX 6 8 4 6
BITMAP
1C
78
78
18
38
30
FC
FC
ENDCHAR
STARTCHAR 00BA
ENCODING 186
SWIDTH 495 0
DWIDTH 11 0
BBX 7 8 4 6
BITMAP
3C
7E
E6
C6
C6
CE
FC
78
ENDCHAR
STARTCHAR 00BB
ENCODING 187
SWIDTH 495 0
DWIDTH 11 0
BBX 9 9 2 1
BITMAP
6600
6300
3300
3380
3980
7300
6600
CE00
8400
ENDCHAR
STARTCHAR 00BC
ENCODING 188
SWIDTH 495 0
DWIDTH 11 0
BBX 12 14 1 0
BITMAP
0C70
3860
38C0
1980
1B80
3300
0600
0C00
1CC0
19C0
33C0
6680
E7C0
C180
ENDCHAR
STARTCHAR 00BD
ENCODING 189
SWIDTH 495 0
DWIDTH 11 0
BBX 12 14 1 0
BITMAP
0C70
3860
38C0
1980
1B80
3300
0600
0C00
1D80
1BC0
30C0
6180
E600
C7C0
ENDCHAR
STARTCHAR 00BE
ENCODING 190
SWIDTH 495 0
DWIDTH 11 0
BBX 12 14 1 0
BITMAP
3C30
2C60
18C0
0CC0
7D80
7B00
0600
0600
0CC0
19C0
33C0
3680
67C0
C180
ENDCHAR
STARTCHAR 00BF
ENCODING 191
SWIDTH 495 0
DWIDTH 11 0
BBX 9 14 1 -4
BITMAP
0700
0780
0700
0000
0000
0600
0E00
3C00
7800
E000
E000
FE00
7F00
3C00
ENDCHAR
STARTCHAR 00C0
ENCODING 192
SWIDTH 495 0
DWIDTH 11 0
BBX 11 18 0 0
BITMAP
0180
03C0
00E0
0000
01C0
03C0
03C0
06C0
06C0
0CC0
1CC0
1CC0
38C0
3FE0
7FE0
70E0
60E0
E0E0
ENDCHAR
STARTCHAR 00C1
ENCODING 193
SWIDTH 495 0
DWIDTH 11 0
BBX 12 18 0 0
BITMAP
0060
00F0
01C0
0000
01C0
03C0
03C0
06C0
06C0
0CC0
1CC0
1CC0
38C0
3FE0
7FE0
70E0
60E0
E0E0
ENDCHAR
STARTCHAR 00C2
ENCODING 194
SWIDTH 495 0
DWIDTH 11 0
BBX 12 18 0 0
BITMAP
00C0
01E0
0330
0000
01C0
03C0
03C0
06C0
06C0
0CC0
1CC0
1CC0
38C0
3FE0
7FE0
70E0
60E0
E0E0
ENDCHAR
STARTCHAR 00C3
ENCODING 195
SWIDTH 495 0
DWIDTH 11 0
BBX 12 18 0 0
BITMAP
0390
03F0
0260
0000
01C0
03C0
03C0
06C0
06C0
0CC0
1CC0
1CC0
38C0
3FE0
7FE0
70E0
60E0
E0E0
ENDCHAR
STARTCHAR 00C4
ENCODING 196
SWIDTH 495 0
DWIDTH 11 0
BBX 13 18 0 0
BITMAP
0330
0738
0330
0000
01C0
03C0
03C0
06C0
06C0
0CC0
1CC0
1CC0
38C0
3FE0
7FE0
70E0
60E0
E0E0
ENDCHAR
STARTCHAR 00C5
ENCODING 197
SWIDTH 495 0
DWIDTH 11 0
BBX 11 18 0 0
BITMAP
0080
01E0
0360
0360
01C0
03C0
03C0
06C0
06C0
0CC0
1CC0
1CC0
38C0
3FE0
3FE0
70E0
60E0
E0E0
ENDCHAR
STARTCHAR 00C6
ENCODING 198
SWIDTH 495 0
DWIDTH 11 0
BBX 13 14 0 0
BITMAP
01F8
03F8
03F8
06C0
06C0
0DC0
1DE0
19E0
3980
3F80
7F00
7300
E3E0
E7E0
ENDCHAR
STARTCHAR 00C7
ENCODING 199
SWIDTH 495 0
DWIDTH 11 0
BBX 10 18 2 -4
BITMAP
07C0
1FC0
3CC0
7800
7000
6000
E000
E000
E000
E000
E000
F100
7F00
3F00
1800
1C00
7800
7000
ENDCHAR
STARTCHAR 00C8
ENCODING 200
SWIDTH 495 0
DWIDTH 11 0
BBX 12 18 1 0
BITMAP
0300
0780
01C0
0000
1FF0
1FE0
1FE0
1800
3800
3800
3F80
3F80
7000
7000
7000
6000
7F80
FF80
ENDCHAR
STARTCHAR 00C9
ENCODING 201
SWIDTH 495 0
DWIDTH 11 0
BBX 12 18 1 0
BITMAP
00C0
01E0
0380
0000
1FF0
1FE0
1FE0
1800
3800
3800
3F80
3F80
7000
7000
7000
6000
7F80
FF80
ENDCHAR
STARTCHAR 00CA
ENCODING 202
SWIDTH 495 0
DWIDTH 11 0
BBX 12 18 1 0
BITMAP
0180
03C0
0760
0000
1FF0
1FE0
1FE0
1800
3800
3800
3F80
3F80
7000
7000
7000
6000
7F80
FF80
ENDCHAR
STARTCHAR 00CB
ENCODING 203
SWIDTH 495 0
DWIDTH 11 0
BBX 12 18 1 0
BITMAP
0670
0E70
0660
0000
1FF0
1FE0
1FE0
1800
3800
3800
3F80
3F80
7000
7000
7000
6000
7F80
FF80
ENDCHAR
STARTCHAR 00CC
ENCODING 204
SWIDTH 495 0
DWIDTH 11 0
BBX 12 18 1 0
BITMAP
0300
0780
01C0
0000
1FF0
1FF0
1FE0
0700
0700
0700
0600
0E00
0E00
0E00
0C00
1C00
FF80
FF80
ENDCHAR
STARTCHAR 00CD
ENCODING 205
SWIDTH 495 0
DWIDTH 11 0
BBX 12 18 1 0
BITMAP
00C0
01E0
0380
0000
1FF0
1FF0
1FE0
0700
0700
0700
0600
0E00
0E00
0E00
0C00
1C00
FF80
FF80
ENDCHAR
STARTCHAR 00CE
ENCODING 206
SWIDTH 495 0
DWIDTH 11 0
BBX 12 18 1 0
BITMAP
0180
03C0
0660
0000
1FF0
1FF0
1FE0
0700
0700
0700
0600
0E00
0E00
0E00
0C00
1C00
FF80
FF80
ENDCHAR
STARTCHAR 00CF
ENCODING 207
SWIDTH 495 0
DWIDTH 11 0
BBX 12 18 1 0
BITMAP
0670
0E70
0660
0000
1FF0
1FF0
1FE0
0700
0700
0700
0600
0E00
0E00
0E00
0C00
1C00
FF80
FF80
ENDCHAR
STARTCHAR 00D0
ENCODING 208
SWIDTH 495 0
DWIDTH 11 0
BBX 11 14 1 0
BITMAP
1F00
1FC0
1DC0
18E0
38E0
38E0
7CE0
FCE0
71C0
71C0
73C0
6780
FF00
FC00
ENDCHAR
STARTCHAR 00D1
ENCODING 209
SWIDTH 495 0
DWIDTH 11 0
BBX 12 18 1 0
BITMAP
0720
07E0
04C0
0000
1830
1C70
3C60
3C60
3C60
36E0
76E0
76C0
66C0
63C0
E3C0
E380
C380
C380
ENDCHAR
STARTCHAR 00D2
ENCODING 210
SWIDTH 495 0
DWIDTH 11 0
BBX 11 18 1 0
BITMAP
0300
0380
01C0
0000
0780
1FC0
1CE0
38E0
30E0
70E0
70E0
60E0
60C0
E1C0
61C0
7380
7F00
3E00
ENDCHAR
STARTCHAR 00D3
ENCODING 211
SWIDTH 495 0
DWIDTH 11 0
BBX 11 18 1 0
BITMAP
00C0
03C0
0380
0200
0780
1FC0
1CE0
38E0
30E0
70E0
70E0
60E0
60C0
E1C0
61C0
7380
7F00
3E00
ENDCHAR
STARTCHAR 00D4
ENCODING 212
SWIDTH 495 0
DWIDTH 11 0
BBX 11 18 1 0
BITMAP
0180
03C0
06E0
0400
0780
1FC0
1CE0
38E0
30E0
70E0
70E0
60E0
60C0
E1C0
61C0
7380
7F00
3E00
ENDCHAR
STARTCHAR 00D5
ENCODING 213
SWIDTH 495 0
DWIDTH 11 0
BBX 11 18 1 0
BITMAP
0320
07E0
04C0
0000
0780
1FC0
1CE0
38E0
30E0
70E0
70E0
60E0
60C0
E1C0
61C0
7380
7F00
3E00
ENDCHAR
STARTCHAR 00D6
ENCODING 214
SWIDTH 495 0
DWIDTH 11 0
BBX 12 18 1 0
BITMAP
0660
0E70
0660
0000
0780
1FC0
1CE0
38E0
30E0
70E0
70E0
60E0
60C0
E1C0
61C0
7380
7F00
3E00
ENDCHAR
STARTCHAR 00D7
ENCODING 215
SWIDTH 495 0
DWIDTH 11 0
BBX 10 9 2 1
BITMAP
2180
73C0
3F00
1E00
1E00
7E00
F700
C300
0200
ENDCHAR
STARTCHAR 00D8
ENCODING 216
SWIDTH 495 0
DWIDTH 11 0
BBX 11 15 1 0
BITMAP
07E0
1FE0
1CE0
39E0
33E0
73E0
66E0
6EE0
6CC0
F9C0
79C0
7380
7F00
FE00
4000
ENDCHAR
STARTCHAR 00D9
ENCODING 217
SWIDTH 495 0
DWIDTH 11 0
BBX 12 18 1 0
BITMAP
0600
0700
0380
0000
1870
3870
3860
38E0
38E0
30E0
70C0
71C0
71C0
61C0
E180
7380
7F00
3E00
ENDCHAR
STARTCHAR 00DA
ENCODING 218
SWIDTH 495 0
DWIDTH 11 0
BBX 12 18 1 0
BITMAP
00C0
03C0
0380
0200
1870
3870
3860
38E0
38E0
30E0
70C0
71C0
71C0
61C0
E180
7380
7F00
3E00
ENDCHAR
STARTCHAR 00DB
ENCODING 219
SWIDTH 495 0
DWIDTH 11 0
BBX 12 18 1 0
BITMAP
0180
03C0
0660
0000
1870
3870
3860
38E0
38E0
30E0
70C0
71C0
71C0
61C0
E180
7380
7F00
3E00
ENDCHAR
STARTCHAR 00DC
ENCODING 220
SWIDTH 495 0
DWIDTH 11 0
BBX 12 18 1 0
BITMAP
0670
0E70
0660
0000
1870
3870
3860
38E0
38E0
30E0
70C0
71C0
71C0
61C0
E180
7380
7F00
3E00
ENDCHAR
STARTCHAR 00DD
ENCODING 221
SWIDTH 495 0
DWIDTH 11 0
BBX 11 18 3 0
BITMAP
0300
0780
0E00
0000
E0E0
E1C0
6380
6380
6700
7600
7E00
3C00
3800
3800
3000
7000
7000
7000
ENDCHAR
STARTCHAR 00DE
ENCODING 222
SWIDTH 495 0
DWIDTH 11 0
BBX 11 14 1 0
BITMAP
1C00
1C00
1F00
3FC0
3FE0
38E0
30E0
70E0
71C0
7FC0
7F00
E000
E000
E000
ENDCHAR
STARTCHAR 00DF
ENCODING 223
SWIDTH 495 0
DWIDTH 11 0
BBX 14 19 -2 -4
BITMAP
01F8
03FC
039C
071C
0718
0730
0660
0E60
0E70
0E70
0E38
0C18
1C38
1DF8
1DF0
1C00
F800
F000
E000
ENDCHAR
STARTCHAR 00E0
ENCODING 224
SWIDTH 495 0
DWIDTH 11 0
BBX 11 15 1 0
BITMAP
0200
0780
03C0
0080
0780
1FE0
3FC0
71C0
71C0
61C0
E180
E380
7380
7F80
3D80
ENDCHAR
STARTCHAR 00E1
ENCODING 225
SWIDTH 495 0
DWIDTH 11 0
BBX 11 15 1 0
BITMAP
00C0
01C0
0380
0000
0780
1FE0
3FC0
71C0
71C0
61C0
E180
E380
7380
7F80
3D80
ENDCHAR
STARTCHAR 00E2
ENCODING 226
SWIDTH 495 0
DWIDTH 11 0
BBX 11 15 1 0
BITMAP
0180
03C0
06C0
0440
0780
1FE0
3FC0
71C0
71C0
61C0
E180
E380
7380
7F80
3D80
ENDCHAR
STARTCHAR 00E3
ENCODING 227
SWIDTH 495 0
DWIDTH 11 0
BBX 11 15 1 0
BITMAP
0720
07E0
0DC0
0000
0780
1FE0
3FC0
71C0
71C0
61C0
E180
E380
7380
7F80
3D80
ENDCHAR
STARTCHAR 00E4
ENCODING 228
SWIDTH 495 0
DWIDTH 11 0
BBX 12 15 1 0
BITMAP
0660
0E70
0E60
0000
0780
1FE0
3FC0
71C0
71C0
61C0
E180
E380
7380
7F80
3D80
ENDCHAR
STARTCHAR 00E5
ENCODING 229
SWIDTH 495 0
DWIDTH 11 0
BBX 11 16 1 0
BITMAP
03C0
0240
0240
03C0
0000
0780
1FE0
3FC0
71C0
71C0
61C0
E180
E380
7380
7F80
3D80
ENDCHAR
STARTCHAR 00E6
ENCODING 230
SWIDTH 495 0
DWIDTH 11 0
BBX 11 11 1 0
BITMAP
38C0
7DE0
4F60
0E60
1E60
7FC0
EF80
CC00
DC00
FFC0
F7C0
ENDCHAR
STARTCHAR 00E7
ENCODING 231
SWIDTH 495 0
DWIDTH 11 0
BBX 10 15 2 -4
BITMAP
0780
1FC0
7F80
7000
E000
E000
C000
E000
E100
FF00
7F00
1800
0C00
3C00
3800
ENDCHAR
STARTCHAR 00E8
ENCODING 232
SWIDTH 495 0
DWIDTH 11 0
BBX 10 15 2 0
BITMAP
0C00
0F00
0700
0100
0F00
3F80
7BC0
61C0
E380
FF80
FE00
C000
E000
FF00
7F00
ENDCHAR
STARTCHAR 00E9
ENCODING 233
SWIDTH 495 0
DWIDTH 11 0
BBX 10 15 2 0
BITMAP
0100
0780
0700
0400
0F00
3F80
7BC0
61C0
E380
FF80
FE00
C000
E000
FF00
7F00
ENDCHAR
STARTCHAR 00EA
ENCODING 234
SWIDTH 495 0
DWIDTH 11 0
BBX 10 15 2 0
BITMAP
0300
0700
1D80
0800
0F00
3F80
7BC0
61C0
E380
FF80
FE00
C000
E000
FF00
7F00
ENDCHAR
STARTCHAR 00EB
ENCODING 235
SWIDTH 495 0
DWIDTH 11 0
BBX 10 15 2 0
BITMAP
18C0
1DC0
19C0
0000
0F00
3F80
7BC0
61C0
E380
FF80
FE00
C000
E000
FF00
7F00
ENDCHAR
STARTCHAR 00EC
ENCODING 236
SWIDTH 495 0
DWIDTH 11 0
BBX 7 15 3 0
BITMAP
30
38
1C
04
00
F8
F8
38
38
30
70
70
70
7E
3E
ENDCHAR
STARTCHAR 00ED
ENCODING 237
SWIDTH 495 0
DWIDTH 11 0
BBX 7 15 3 0
BITMAP
04
1E
1C
10
00
F8
F8
38
38
30
70
70
70
7E
3E
ENDCHAR
STARTCHAR 00EE
ENCODING 238
SWIDTH 495 0
DWIDTH 11 0
BBX 7 15 3 0
BITMAP
0C
1C
76
20
00
F8
F8
38
38
30
70
70
70
7E
3E
ENDCHAR
STARTCHAR 00EF
ENCODING 239
SWIDTH 495 0
DWIDTH 11 0
BBX 8 15 3 0
BITMAP
73
77
67
00
00
F8
F8
38
38
30
70
70
70
7E
3E
ENDCHAR
STARTCHAR 00F0
ENCODING 240
SWIDTH 495 0
DWIDTH 11 0
BBX 12 15 1 0
BITMAP
0300
03B0
03F0
07C0
00C0
00C0
1FC0
3FC0
71C0
61C0
E1C0
E380
6780
7F00
3E00
ENDCHAR
STARTCHAR 00F1
ENCODING 241
SWIDTH 495 0
DWIDTH 11 0
BBX 10 15 1 0
BITMAP
0640
0FC0
09C0
0000
0F00
3FC0
3FC0
39C0
31C0
71C0
7180
7180
6380
E380
E300
ENDCHAR
STARTCHAR 00F2
ENCODING 242
SWIDTH 495 0
DWIDTH 11 0
BBX 10 15 1 0
BITMAP
0600
0F00
0380
0000
0700
1F80
3FC0
71C0
71C0
61C0
E1C0
E1C0
7380
7F00
3E00
ENDCHAR
STARTCHAR 00F3
ENCODING 243
SWIDTH 495 0
DWIDTH 11 0
BBX 10 15 1 0
BITMAP
0180
03C0
0700
0000
0700
1F80
3FC0
71C0
71C0
61C0
E1C0
E1C0
7380
7F00
3E00
ENDCHAR
STARTCHAR 00F4
ENCODING 244
SWIDTH 495 0
DWIDTH 11 0
BBX 10 15 1 0
BITMAP
0100
0780
0EC0
0000
0700
1F80
3FC0
71C0
71C0
61C0
E1C0
E1C0
7380
7F00
3E00
ENDCHAR
STARTCHAR 00F5
ENCODING 245
SWIDTH 495 0
DWIDTH 11 0
BBX 10 15 1 0
BITMAP
0640
0FC0
09C0
0000
0700
1F80
3FC0
71C0
71C0
61C0
E1C0
E1C0
7380
7F00
3E00
ENDCHAR
STARTCHAR 00F6
ENCODING 246
SWIDTH 495 0
DWIDTH 11 0
BBX 11 15 1 0
BITMAP
0C60
0EE0
0CE0
0000
0700
1F80
3FC0
71C0
71C0
61C0
E1C0
E1C0
7380
7F00
3E00
ENDCHAR
STARTCHAR 00F7
ENCODING 247
SWIDTH 495 0
DWIDTH 11 0
BBX 10 11 2 1
BITMAP
0E00
0E00
0400
0000
FFC0
FF80
0000
0000
3800
3800
3800
ENDCHAR
STARTCHAR 00F8
ENCODING 248
SWIDTH 495 0
DWIDTH 11 0
BBX 10 12 2 -1
BITMAP
0FC0
1F80
3FC0
73C0
E7C0
EDC0
F980
F380
F380
FF00
FE00
8000
ENDCHAR
STARTCHAR 00F9
ENCODING 249
SWIDTH 495 0
DWIDTH 11 0
BBX 9 15 2 0
BITMAP
0800
1E00
0F00
0200
0000
7180
7380
6380
E380
E300
E300
C700
E700
FF00
FB00
ENDCHAR
STARTCHAR 00FA
ENCODING 250
SWIDTH 495 0
DWIDTH 11 0
BBX 9 15 2 0
BITMAP
0300
0700
0E00
0000
0000
7180
7380
6380
E380
E300
E300
C700
E700
FF00
FB00
ENDCHAR
STARTCHAR 00FB
ENCODING 251
SWIDTH 495 0
DWIDTH 11 0
BBX 9 15 2 0
BITMAP
0600
0F00
1D80
0000
0000
7180
7380
6380
E380
E300
E300
C700
E700
FF00
FB00
ENDCHAR
STARTCHAR 00FC
ENCODING 252
SWIDTH 495 0
DWIDTH 11 0
BBX 10 15 2 0
BITMAP
1980
39C0
3980
0000
0000
7180
7380
6380
E380
E300
E300
C700
E700
FF00
FB00
ENDCHAR
STARTCHAR 00FD
ENCODING 253
SWIDTH 495 0
DWIDTH 11 0
BBX 13 19 -1 -4
BITMAP
0060
00E0
01C0
0000
0000
0C38
0C30
0E70
0E70
0EE0
0EE0
0FC0
0780
0780
0700
0E00
7E00
F800
7000
ENDCHAR
STARTCHAR 00FE
ENCODING 254
SWIDTH 495 0
DWIDTH 11 0
BBX 11 19 0 -4
BITMAP
0E00
0E00
0E00
0C00
1F80
1FC0
1FE0
18E0
3860
38E0
38E0
30E0
73C0
7F80
7F00
6000
E000
E000
E000
ENDCHAR
STARTCHAR 00FF
ENCODING 255
SWIDTH 495 0
DWIDTH 11 0
BBX 13 19 -1 -4
BITMAP
0330
0738
0730
0000
0000
0C38
0C30
0E70
0E70
0EE0
0EE0
0FC0
0780
0780
0700
0E00
7E00
F800
7000
ENDCHAR
STARTCHAR 0100
ENCODING 256
SWIDTH 495 0
DWIDTH 11 0
BBX 12 17 0 0
BITMAP
03F0
0000
0000
01C0
03C0
03C0
06C0
06C0
0CC0
1CC0
1CC0
38C0
3FE0
7FE0
70E0
60E0
E0E0
ENDCHAR
STARTCHAR 0101
ENCODING 257
SWIDTH 495 0
DWIDTH 11 0
BBX 11 14 1 0
BITMAP
07E0
07E0
0000
0780
1FE0
3FC0
71C0
71C0
61C0
E180
E380
7380
7F80
3D80
ENDCHAR
STARTCHAR 0102
ENCODING 258
SWIDTH 495 0
DWIDTH 11 0
BBX 12 18 0 0
BITMAP
0330
03F0
01E0
0000
01C0
03C0
03C0
06C0
06C0
0CC0
1CC0
1CC0
38C0
3FE0
7FE0
70E0
60E0
E0E0
ENDCHAR
STARTCHAR 0103
ENCODING 259
SWIDTH 495 0
DWIDTH 11 0
BBX 11 15 1 0
BITMAP
0660
07E0
03C0
0000
0780
1FE0
3FC0
71C0
71C0
61C0
E180
E380
7380
7F80
3D80
ENDCHAR
STARTCHAR 0104
ENCODING 260
SWIDTH 495 0
DWIDTH 11 0
BBX 11 18 0 -4
BITMAP
01C0
03C0
03C0
07C0
06E0
0EE0
0CE0
1CE0
18E0
3FE0
3FE0
70E0
70E0
E0E0
00C0
0180
03C0
01C0
ENDCHAR
STARTCHAR 0105
ENCODING 261
SWIDTH 495 0
DWIDTH 11 0
BBX 11 15 1 -4
BITMAP
0780
1FE0
3FC0
71C0
71C0
61C0
E180
E380
7380
7F80
3D80
0380
0700
0780
0780
ENDCHAR
STARTCHAR 0106
ENCODING 262
SWIDTH 495 0
DWIDTH 11 0
BBX 10 18 2 0
BITMAP
0180
03C0
0700
0000
07C0
1FC0
3CC0
7800
7000
6000
E000
E000
E000
E000
E000
F100
7F00
3F00
ENDCHAR
STARTCHAR 0107
ENCODING 263
SWIDTH 495 0
DWIDTH 11 0
BBX 10 15 2 0
BITMAP
0180
03C0
0700
0000
0780
1FC0
7F80
7000
E000
E000
C000
E000
E100
FF00
7F00
ENDCHAR
STARTCHAR 0108
ENCODING 264
SWIDTH 495 0
DWIDTH 11 0
BBX 11 18 2 0
BITMAP
0180
03C0
06E0
0040
07C0
1FC0
3CC0
7800
7000
6000
E000
E000
E000
E000
E000
F100
7F00
3F00
ENDCHAR
STARTCHAR 0109
ENCODING 265
SWIDTH 495 0
DWIDTH 11 0
BBX 10 15 2 0
BITMAP
0300
0780
0FC0
0000
0780
1FC0
7F80
7000
E000
E000
C000
E000
E100
FF00
7F00
ENDCHAR
STARTCHAR 010A
ENCODING 266
SWIDTH 495 0
DWIDTH 11 0
BBX 10 18 2 0
BITMAP
0380
0380
0380
0000
07C0
1FC0
3CC0
7800
7000
6000
E000
E000
E000
E000
E000
F100
7F00
3F00
ENDCHAR
STARTCHAR 010B
ENCODING 267
SWIDTH 495 0
DWIDTH 11 0
BBX 10 15 2 0
BITMAP
0300
0700
0300
0000
0780
1FC0
7F80
7000
E000
E000
C000
E000
E100
FF00
7F00
ENDCHAR
STARTCHAR 010C
ENCODING 268
SWIDTH 495 0
DWIDTH 11 0
BBX 11 18 2 0
BITMAP
0660
03C0
0380
0000
07C0
1FC0
3CC0
7800
7000
6000
E000
E000
E000
E000
E000
F100
7F00
3F00
ENDCHAR
STARTCHAR 010D
ENCODING 269
SWIDTH 495 0
DWIDTH 11 0
BBX 10 15 2 0
BITMAP
0CC0
0780
0300
0000
0780
1FC0
7F80
7000
E000
E000
C000
E000
E100
FF00
7F00
ENDCHAR
STARTCHAR 010E
ENCODING 270
SWIDTH 495 0
DWIDTH 11 0
BBX 11 18 1 0
BITMAP
06C0
07C0
0300
0000
1F00
1FC0
3BC0
38E0
38E0
30E0
70E0
70E0
71C0
61C0
E3C0
E780
FF00
FC00
ENDCHAR
STARTCHAR 010F
ENCODING 271
SWIDTH 495 0
DWIDTH 11 0
BBX 13 15 1 0
BITMAP
01D8
01D8
01D8
01B0
0580
3F80
7F80
7380
E300
E700
C700
C700
EF00
FF00
7F00
ENDCHAR
STARTCHAR 0110
ENCODING 272
SWIDTH 495 0
DWIDTH 11 0
BBX 11 14 1 0
BITMAP
1F00
1FC0
1DC0
18E0
38E0
38E0
7CE0
FCE0
71C0
71C0
73C0
6780
FF00
FC00
ENDCHAR
STARTCHAR 0111
ENCODING 273
SWIDTH 495 0
DWIDTH 11 0
BBX 13 15 1 0
BITMAP
0060
07F8
07F0
00E0
02C0
1FC0
3FC0
71C0
7180
6380
E380
E380
6780
7F80
7F80
ENDCHAR
STARTCHAR 0112
ENCODING 274
SWIDTH 495 0
DWIDTH 11 0
BBX 12 17 1 0
BITMAP
07F0
0000
0000
1FF0
1FE0
1FE0
1800
3800
3800
3F80
3F80
7000
7000
7000
6000
7F80
FF80
ENDCHAR
STARTCHAR 0113
ENCODING 275
SWIDTH 495 0
DWIDTH 11 0
BBX 10 14 2 0
BITMAP
0FC0
1FC0
0000
0F00
3F80
7BC0
61C0
E380
FF80
FE00
C000
E000
FF00
7F00
ENDCHAR
STARTCHAR 0114
ENCODING 276
SWIDTH 495 0
DWIDTH 11 0
BBX 12 18 1 0
BITMAP
0330
03E0
01C0
0000
1FF0
1FE0
1FE0
1800
3800
3800
3F80
3F80
7000
7000
7000
6000
7F80
FF80
ENDCHAR
STARTCHAR 0115
ENCODING 277
SWIDTH 495 0
DWIDTH 11 0
BBX 10 15 2 0
BITMAP
0CC0
0FC0
0780
0000
0F00
3F80
7BC0
61C0
E380
FF80
FE00
C000
E000
FF00
7F00
ENDCHAR
STARTCHAR 0116
ENCODING 278
SWIDTH 495 0
DWIDTH 11 0
BBX 12 18 1 0
BITMAP
01C0
01C0
0180
0000
1FF0
1FE0
1FE0
1800
3800
3800
3F80
3F80
7000
7000
7000
6000
7F80
FF80
ENDCHAR
STARTCHAR 0117
ENCODING 279
SWIDTH 495 0
DWIDTH 11 0
BBX 10 15 2 0
BITMAP
0300
0700
0700
0000
0F00
3F80
7BC0
61C0
E380
FF80
FE00
C000
E000
FF00
7F00
ENDCHAR
STARTCHAR 0118
ENCODING 280
SWIDTH 495 0
DWIDTH 11 0
BBX 12 18 1 -4
BITMAP
1FF0
1FE0
1FE0
1800
3800
3800
3F80
3F80
7000
7000
7000
6000
7F80
FF80
0300
0600
0F00
0700
ENDCHAR
STARTCHAR 0119
ENCODING 281
SWIDTH 495 0
DWIDTH 11 0
BBX 10 15 2 -4
BITMAP
0F00
3F80
7BC0
61C0
E380
FF80
FE00
C000
E000
FF00
7F00
0E00
1C00
1E00
1E00
ENDCHAR
STARTCHAR 011A
ENCODING 282
SWIDTH 495 0
DWIDTH 11 0
BBX 12 18 1 0
BITMAP
0360
03E0
01C0
0000
1FF0
1FE0
1FE0
1800
3800
3800
3F80
3F80
7000
7000
7000
6000
7F80
FF80
ENDCHAR
STARTCHAR 011B
ENCODING 283
SWIDTH 495 0
DWIDTH 11 0
BBX 10 15 2 0
BITMAP
0C80
0F80
0700
0000
0F00
3F80
7BC0
61C0
E380
FF80
FE00
C000
E000
FF00
7F00
ENDCHAR
STARTCHAR 011C
ENCODING 284
SWIDTH 495 0
DWIDTH 11 0
BBX 10 18 2 0
BITMAP
0180
0780
0EC0
0000
07C0
1FC0
3CC0
7000
7000
E000
E000
E180
C380
C380
E380
E300
FF00
7F00
ENDCHAR
STARTCHAR 011D
ENCODING 285
SWIDTH 495 0
DWIDTH 11 0
BBX 12 19 0 -4
BITMAP
00C0
01E0
03F0
0000
01C0
0FF0
1FE0
3860
38E0
30E0
30E0
38C0
3FC0
1FC0
01C0
0380
7F80
FF00
3C00
ENDCHAR
STARTCHAR 011E
ENCODING 286
SWIDTH 495 0
DWIDTH 11 0
BBX 11 18 2 0
BITMAP
0660
07C0
0380
0000
07C0
1FC0
3CC0
7000
7000
E000
E000
E180
C380
C380
E380
E300
FF00
7F00
ENDCHAR
STARTCHAR 011F
ENCODING 287
SWIDTH 495 0
DWIDTH 11 0
BBX 12 19 0 -4
BITMAP
0330
03F0
01E0
0000
01C0
0FF0
1FE0
3860
38E0
30E0
30E0
38C0
3FC0
1FC0
01C0
0380
7F80
FF00
3C00
ENDCHAR
STARTCHAR 0120
ENCODING 288
SWIDTH 495 0
DWIDTH 11 0
BBX 10 18 2 0
BITMAP
0380
0380
0380
0000
07C0
1FC0
3CC0
7000
7000
E000
E000
E180
C380
C380
E380
E300
FF00
7F00
ENDCHAR
STARTCHAR 0121
ENCODING 289
SWIDTH 495 0
DWIDTH 11 0
BBX 12 19 0 -4
BITMAP
00C0
01C0
00C0
0000
01C0
0FF0
1FE0
3860
38E0
30E0
30E0
38C0
3FC0
1FC0
01C0
0380
7F80
FF00
3C00
ENDCHAR
STARTCHAR 0122
ENCODING 290
SWIDTH 495 0
DWIDTH 11 0
BBX 10 18 2 -4
BITMAP
07C0
1FC0
3CC0
7000
7000
E000
E000
E180
C380
C380
E380
E300
FF00
7F00
0000
1800
7000
E000
ENDCHAR
STARTCHAR 0123
ENCODING 291
SWIDTH 495 0
DWIDTH 11 0
BBX 12 20 0 -4
BITMAP
0020
00E0
00C0
01C0
0000
01C0
0FF0
1FE0
3860
38E0
30E0
30E0
38C0
3FC0
1FC0
01C0
0380
7F80
FF00
3C00
ENDCHAR
STARTCHAR 0124
ENCODING 292
SWIDTH 495 0
DWIDTH 11 0
BBX 12 18 1 0
BITMAP
0180
03C0
0660
0000
1C70
1870
3860
38E0
38E0
30E0
7FE0
7FC0
71C0
61C0
E1C0
E180
E380
C380
ENDCHAR
STARTCHAR 0125
ENCODING 293
SWIDTH 495 0
DWIDTH 11 0
BBX 10 18 1 0
BITMAP
0300
0F80
0880
0000
1C00
1C00
1800
1B00
3FC0
3FC0
39C0
31C0
71C0
7180
7180
6380
E380
E380
ENDCHAR
STARTCHAR 0126
ENCODING 294
SWIDTH 495 0
DWIDTH 11 0
BBX 12 14 1 0
BITMAP
1C60
1CE0
3FF0
7FF0
38C0
39C0
3FC0
3FC0
3180
7380
7380
7380
6300
E700
ENDCHAR
STARTCHAR 0127
ENCODING 295
SWIDTH 495 0
DWIDTH 11 0
BBX 10 15 1 0
BITMAP
0C00
3F80
3F80
1C00
1F00
1FC0
3FC0
39C0
39C0
31C0
7180
7380
7380
6380
E380
ENDCHAR
STARTCHAR 0128
ENCODING 296
SWIDTH 495 0
DWIDTH 11 0
BBX 12 18 1 0
BITMAP
0720
07E0
04C0
0000
1FF0
1FF0
1FE0
0700
0700
0700
0600
0E00
0E00
0E00
0C00
1C00
FF80
FF80
ENDCHAR
STARTCHAR 0129
ENCODING 297
SWIDTH 495 0
DWIDTH 11 0
BBX 8 15 3 0
BITMAP
39
7F
6E
00
00
F8
F8
38
38
30
70
70
70
7E
3E
ENDCHAR
STARTCHAR 012A
ENCODING 298
SWIDTH 495 0
DWIDTH 11 0
BBX 12 17 1 0
BITMAP
07E0
0000
0000
1FF0
1FF0
1FE0
0700
0700
0700
0600
0E00
0E00
0E00
0C00
1C00
FF80
FF80
ENDCHAR
STARTCHAR 012B
ENCODING 299
SWIDTH 495 0
DWIDTH 11 0
BBX 8 14 3 0
BITMAP
3F
7F
00
00
F8
F8
38
38
30
70
70
70
7E
3E
ENDCHAR
STARTCHAR 012C
ENCODING 300
SWIDTH 495 0
DWIDTH 11 0
BBX 12 18 1 0
BITMAP
0660
07E0
03C0
0000
1FF0
1FF0
1FE0
0700
0700
0700
0600
0E00
0E00
0E00
0C00
1C00
FF80
FF80
ENDCHAR
STARTCHAR 012D
ENCODING 301
SWIDTH 495 0
DWIDTH 11 0
BBX 8 15 3 0
BITMAP
33
3F
1E
00
00
F8
F8
38
38
30
70
70
70
7E
3E
ENDCHAR
STARTCHAR 012E
ENCODING 302
SWIDTH 495 0
DWIDTH 11 0
BBX 12 18 1 -4
BITMAP
1FF0
1FF0
1FE0
0700
0700
0700
0600
0E00
0E00
0E00
0C00
1C00
FF80
FF80
3800
7000
7800
3800
ENDCHAR
STARTCHAR 012F
ENCODING 303
SWIDTH 495 0
DWIDTH 11 0
BBX 7 19 3 -4
BITMAP
1C
1C
1C
00
00
F8
F8
38
38
30
70
70
70
7E
3E
0C
18
3C
1C
ENDCHAR
STARTCHAR 0130
ENCODING 304
SWIDTH 495 0
DWIDTH 11 0
BBX 12 18 1 0
BITMAP
0180
0380
0180
0000
1FF0
1FF0
1FE0
0700
0700
0700
0600
0E00
0E00
0E00
0C00
1C00
FF80
FF80
ENDCHAR
STARTCHAR 0131
ENCODING 305
SWIDTH 495 0
DWIDTH 11 0
BBX 7 10 3 0
BITMAP
F8
F8
38
38
30
70
70
70
7E
3E
ENDCHAR
STARTCHAR 0132
ENCODING 306
SWIDTH 495 0
DWIDTH 11 0
BBX 13 14 0 0
BITMAP
0C18
1C18
1C38
1838
1830
3830
3870
3070
3060
7060
70E0
60E0
6FC0
EF80
ENDCHAR
STARTCHAR 0133
ENCODING 307
SWIDTH 495 0
DWIDTH 11 0
BBX 11 19 2 -4
BITMAP
1CC0
3DE0
39C0
0000
0000
3980
3380
7380
7380
7380
6300
E700
E700
E700
C600
0E00
3E00
7C00
3000
ENDCHAR
STARTCHAR 0134
ENCODING 308
SWIDTH 495 0
DWIDTH 11 0
BBX 11 18 1 0
BITMAP
00C0
01E0
0360
0000
0FE0
0FE0
0FE0
00E0
00C0
01C0
01C0
01C0
0180
0380
0380
4780
FF00
7E00
ENDCHAR
STARTCHAR 0135
ENCODING 309
SWIDTH 495 0
DWIDTH 11 0
BBX 11 19 0 -4
BITMAP
0080
03C0
0760
0000
0000
1FC0
1FC0
01C0
01C0
0180
0380
0380
0380
0300
0700
0700
FE00
FE00
7800
ENDCHAR
STARTCHAR 0136
ENCODING 310
SWIDTH 495 0
DWIDTH 11 0
BBX 12 18 1 -4
BITMAP
1C70
18E0
38E0
39C0
3B80
3700
7E00
7E00
7700
7700
6380
E380
E380
E1C0
0000
1800
7800
7000
ENDCHAR
STARTCHAR 0137
ENCODING 311
SWIDTH 495 0
DWIDTH 11 0
BBX 11 19 1 -4
BITMAP
0C00
1C00
1C00
1C00
1800
38E0
39C0
3B80
3700
3E00
7600
7700
7380
6380
E380
0000
1C00
7800
7000
ENDCHAR
STARTCHAR 0138
ENCODING 312
SWIDTH 495 0
DWIDTH 11 0
BBX 11 10 1 0
BITMAP
38E0
39C0
3B80
3700
3E00
7600
7700
7380
6380
E380
ENDCHAR
STARTCHAR 0139
ENCODING 313
SWIDTH 495 0
DWIDTH 11 0
BBX 9 18 1 0
BITMAP
0300
0F00
0E00
0800
1C00
1C00
1800
1800
3800
3800
3800
3000
7000
7000
7000
6000
FF80
FF80
ENDCHAR
STARTCHAR 013A
ENCODING 314
SWIDTH 495 0
DWIDTH 11 0
BBX 8 18 3 0
BITMAP
07
1F
18
00
FC
FC
18
38
38
38
38
30
70
70
70
70
7E
3E
ENDCHAR
STARTCHAR 013B
ENCODING 315
SWIDTH 495 0
DWIDTH 11 0
BBX 9 18 1 -4
BITMAP
1C00
1C00
1800
1800
3800
3800
3800
3000
7000
7000
7000
6000
FF80
FF80
0000
1C00
7800
7000
ENDCHAR
STARTCHAR 013C
ENCODING 316
SWIDTH 495 0
DWIDTH 11 0
BBX 7 19 3 -4
BITMAP
7C
FC
1C
18
18
38
38
38
30
70
70
70
70
7E
3E
00
18
70
E0
ENDCHAR
STARTCHAR 013D
ENCODING 317
SWIDTH 495 0
DWIDTH 11 0
BBX 10 14 1 0
BITMAP
1CC0
1CC0
19C0
1980
3980
3800
3800
3000
7000
7000
7000
6000
FF80
FF80
ENDCHAR
STARTCHAR 013E
ENCODING 318
SWIDTH 495 0
DWIDTH 11 0
BBX 10 15 3 0
BITMAP
7CC0
FCC0
1CC0
1980
1800
3800
3800
3800
3000
7000
7000
7000
7000
7E00
3E00
ENDCHAR
STARTCHAR 013F
ENCODING 319
SWIDTH 495 0
DWIDTH 11 0
BBX 10 14 1 0
BITMAP
1C00
1C00
1800
1800
3800
38C0
39C0
31C0
7000
7000
7000
6000
FF80
FF80
ENDCHAR
STARTCHAR 0140
ENCODING 320
SWIDTH 495 0
DWIDTH 11 0
BBX 10 15 3 0
BITMAP
7C00
FC00
1C00
1800
1800
3800
38C0
39C0
31C0
7000
7000
7000
7000
7E00
3E00
ENDCHAR
STARTCHAR 0141
ENCODING 321
SWIDTH 495 0
DWIDTH 11 0
BBX 9 14 1 0
BITMAP
0E00
0E00
0C00
1C00
1F00
1F00
3E00
F800
F800
3800
3000
7000
7F80
7F80
ENDCHAR
STARTCHAR 0142
ENCODING 322
SWIDTH 495 0
DWIDTH 11 0
BBX 7 15 3 0
BITMAP
7C
FC
1C
18
1A
3E
7C
F8
B0
70
70
70
70
7E
3E
ENDCHAR
STARTCHAR 0143
ENCODING 323
SWIDTH 495 0
DWIDTH 11 0
BBX 12 18 1 0
BITMAP
00C0
01E0
0380
0000
1830
1C70
3C60
3C60
3C60
36E0
76E0
76C0
66C0
63C0
E3C0
E380
C380
C380
ENDCHAR
STARTCHAR 0144
ENCODING 324
SWIDTH 495 0
DWIDTH 11 0
BBX 10 15 1 0
BITMAP
0180
03C0
0780
0200
0F00
3FC0
3FC0
39C0
31C0
71C0
7180
7180
6380
E380
E300
ENDCHAR
STARTCHAR 0145
ENCODING 325
SWIDTH 495 0
DWIDTH 11 0
BBX 12 18 1 -4
BITMAP
1830
1C70
3C60
3C60
3C60
36E0
76E0
76C0
66C0
63C0
E3C0
E380
C380
C380
0000
1800
7800
7000
ENDCHAR
STARTCHAR 0146
ENCODING 326
SWIDTH 495 0
DWIDTH 11 0
BBX 10 15 1 -4
BITMAP
0F00
3FC0
3FC0
39C0
31C0
71C0
7180
7180
6380
E380
E300
0000
1800
7800
7000
ENDCHAR
STARTCHAR 0147
ENCODING 327
SWIDTH 495 0
DWIDTH 11 0
BBX 12 18 1 0
BITMAP
0660
03C0
0180
0000
1830
1C70
3C60
3C60
3C60
36E0
76E0
76C0
66C0
63C0
E3C0
E380
C380
C380
ENDCHAR
STARTCHAR 0148
ENCODING 328
SWIDTH 495 0
DWIDTH 11 0
BBX 10 15 1 0
BITMAP
06C0
07C0
0300
0000
0F00
3FC0
3FC0
39C0
31C0
71C0
7180
7180
6380
E380
E300
ENDCHAR
STARTCHAR 0149
ENCODING 329
SWIDTH 495 0
DWIDTH 11 0
BBX 10 15 1 0
BITMAP
1800
3800
3000
3000
0700
1FC0
3FC0
39C0
39C0
31C0
71C0
71C0
7180
6380
E380
ENDCHAR
STARTCHAR 014A
ENCODING 330
SWIDTH 495 0
DWIDTH 11 0
BBX 12 18 1 -4
BITMAP
1830
1C70
3C60
3C60
3C60
36E0
76C0
76C0
66C0
63C0
E3C0
E380
C380
C380
0380
1F00
1F00
1C00
ENDCHAR
STARTCHAR 014B
ENCODING 331
SWIDTH 495 0
DWIDTH 11 0
BBX 10 15 1 -4
BITMAP
0F00
3F80
3FC0
39C0
31C0
71C0
7180
7180
6380
E380
E380
0700
1F00
1E00
1C00
ENDCHAR
STARTCHAR 014C
ENCODING 332
SWIDTH 495 0
DWIDTH 11 0
BBX 11 17 1 0
BITMAP
07E0
0000
0000
0780
1FC0
1CE0
38E0
30E0
70E0
70E0
60E0
60C0
E1C0
61C0
7380
7F00
3E00
ENDCHAR
STARTCHAR 014D
ENCODING 333
SWIDTH 495 0
DWIDTH 11 0
BBX 10 14 1 0
BITMAP
0FC0
0FC0
0000
0700
1F80
3FC0
71C0
71C0
61C0
E1C0
E1C0
7380
7F00
3E00
ENDCHAR
STARTCHAR 014E
ENCODING 334
SWIDTH 495 0
DWIDTH 11 0
BBX 12 18 1 0
BITMAP
0670
03E0
03C0
0000
0780
1FC0
1CE0
38E0
30E0
70E0
70E0
60E0
60C0
E1C0
61C0
7380
7F00
3E00
ENDCHAR
STARTCHAR 014F
ENCODING 335
SWIDTH 495 0
DWIDTH 11 0
BBX 11 15 1 0
BITMAP
0CE0
07C0
0780
0000
0700
1F80
3FC0
71C0
71C0
61C0
E1C0
E1C0
7380
7F00
3E00
ENDCHAR
STARTCHAR 0150
ENCODING 336
SWIDTH 495 0
DWIDTH 11 0
BBX 13 18 1 0
BITMAP
0318
0738
0E60
0000
0780
1FC0
1CE0
38E0
30E0
70E0
70E0
60E0
60C0
E1C0
61C0
7380
7F00
3E00
ENDCHAR
STARTCHAR 0151
ENCODING 337
SWIDTH 495 0
DWIDTH 11 0
BBX 12 15 1 0
BITMAP
0620
0F70
1CC0
0800
0700
1F80
3FC0
71C0
71C0
61C0
E1C0
E1C0
7380
7F00
3E00
ENDCHAR
STARTCHAR 0152
ENCODING 338
SWIDTH 495 0
DWIDTH 11 0
BBX 12 14 1 0
BITMAP
07F0
1FF0
3DF0
3980
7180
7380
63E0
E3C0
E300
E700
E700
E600
7FC0
3FC0
ENDCHAR
STARTCHAR 0153
ENCODING 339
SWIDTH 495 0
DWIDTH 11 0
BBX 11 11 1 0
BITMAP
0CC0
3FE0
7F60
6660
C660
C7C0
C780
CE00
CE00
FFC0
73C0
ENDCHAR
STARTCHAR 0154
ENCODING 340
SWIDTH 495 0
DWIDTH 11 0
BBX 11 18 1 0
BITMAP
00C0
03C0
0380
0200
1F80
1FC0
39E0
38E0
38E0
30E0
33C0
7F80
7F00
7700
6300
E380
E380
E180
ENDCHAR
STARTCHAR 0155
ENCODING 341
SWIDTH 495 0
DWIDTH 11 0
BBX 10 15 2 0
BITMAP
0180
0380
0700
0400
0780
3FC0
3F80
7000
7000
7000
6000
E000
E000
E000
C000
ENDCHAR
STARTCHAR 0156
ENCODING 342
SWIDTH 495 0
DWIDTH 11 0
BBX 11 18 1 -4
BITMAP
1F80
1FC0
39E0
38E0
38E0
30E0
33C0
7F80
7F00
7700
6300
E380
E380
E180
0000
1800
7800
7000
ENDCHAR
STARTCHAR 0157
ENCODING 343
SWIDTH 495 0
DWIDTH 11 0
BBX 13 15 -1 -4
BITMAP
00F0
07F8
07F0
0E00
0E00
0E00
0C00
1C00
1C00
1C00
1800
0000
3800
F000
E000
ENDCHAR
STARTCHAR 0158
ENCODING 344
SWIDTH 495 0
DWIDTH 11 0
BBX 11 18 1 0
BITMAP
06C0
07C0
0300
0000
1F80
1FC0
39E0
38E0
38E0
30E0
33C0
7F80
7F00
7700
6300
E380
E380
E180
ENDCHAR
STARTCHAR 0159
ENCODING 345
SWIDTH 495 0
DWIDTH 11 0
BBX 10 15 2 0
BITMAP
0CC0
0780
0300
0200
0780
3FC0
3F80
7000
7000
7000
6000
E000
E000
E000
C000
ENDCHAR
STARTCHAR 015A
ENCODING 346
SWIDTH 495 0
DWIDTH 11 0
BBX 11 18 1 0
BITMAP
00C0
03C0
0380
0200
0FC0
1FE0
3C40
3800
3800
3C00
1F00
0F80
0380
01C0
0180
4380
FF80
FE00
ENDCHAR
STARTCHAR 015B
ENCODING 347
SWIDTH 495 0
DWIDTH 11 0
BBX 10 15 1 0
BITMAP
0180
03C0
0780
0200
0780
1FC0
3FC0
3800
3C00
1F00
0F80
0380
4380
FF80
FF00
ENDCHAR
STARTCHAR 015C
ENCODING 348
SWIDTH 495 0
DWIDTH 11 0
BBX 11 18 1 0
BITMAP
0180
03C0
0660
0000
0FC0
1FE0
3C40
3800
3800
3C00
1F00
0F80
0380
01C0
0180
4380
FF80
FE00
ENDCHAR
STARTCHAR 015D
ENCODING 349
SWIDTH 495 0
DWIDTH 11 0
BBX 10 15 1 0
BITMAP
0180
0380
0EC0
0400
0780
1FC0
3FC0
3800
3C00
1F00
0F80
0380
4380
FF80
FF00
ENDCHAR
STARTCHAR 015E
ENCODING 350
SWIDTH 495 0
DWIDTH 11 0
BBX 11 18 1 -4
BITMAP
0FC0
1FE0
3C40
3800
3800
3C00
1F00
0F80
0380
01C0
0180
4380
FF80
FE00
1800
1800
7800
7000
ENDCHAR
STARTCHAR 015F
ENCODING 351
SWIDTH 495 0
DWIDTH 11 0
BBX 10 15 1 -4
BITMAP
0780
1FC0
3FC0
3800
3C00
1F00
0F80
0380
4380
FF80
FE00
1800
0C00
7C00
7000
ENDCHAR
STARTCHAR 0160
ENCODING 352
SWIDTH 495 0
DWIDTH 11 0
BBX 11 18 1 0
BITMAP
0660
03C0
0180
0000
0FC0
1FE0
3C40
3800
3800
3C00
1F00
0F80
0380
01C0
0180
4380
FF80
FE00
ENDCHAR
STARTCHAR 0161
ENCODING 353
SWIDTH 495 0
DWIDTH 11 0
BBX 10 15 1 0
BITMAP
0640
07C0
0380
0000
0780
1FC0
3FC0
3800
3C00
1F00
0F80
0380
4380
FF80
FF00
ENDCHAR
STARTCHAR 0162
ENCODING 354
SWIDTH 495 0
DWIDTH 11 0
BBX 11 18 2 -4
BITMAP
7FE0
7FE0
7FE0
0E00
0E00
0E00
0C00
1C00
1C00
1C00
1800
3800
3800
3800
3000
1800
F800
E000
ENDCHAR
STARTCHAR 0163
ENCODING 355
SWIDTH 495 0
DWIDTH 11 0
BBX 9 17 2 -3
BITMAP
1C00
1C00
1C00
FF80
FF80
3800
3800
3000
7000
7000
7100
7F00
3F00
1800
0C00
3C00
3800
ENDCHAR
STARTCHAR 0164
ENCODING 356
SWIDTH 495 0
DWIDTH 11 0
BBX 10 18 3 0
BITMAP
1980
0F00
0600
0000
FFC0
FFC0
FFC0
1C00
1C00
1C00
1800
3800
3800
3800
3000
7000
7000
7000
ENDCHAR
STARTCHAR 0165
ENCODING 357
SWIDTH 495 0
DWIDTH 11 0
BBX 9 15 3 0
BITMAP
0180
0580
1980
3800
3800
FF80
FF00
7000
7000
7000
6000
E000
E000
7E00
7E00
ENDCHAR
STARTCHAR 0166
ENCODING 358
SWIDTH 495 0
DWIDTH 11 0
BBX 10 14 3 0
BITMAP
FFC0
FFC0
FFC0
1C00
1C00
1800
1800
FE00
FE00
3800
3000
7000
7000
7000
ENDCHAR
STARTCHAR 0167
ENCODING 359
SWIDTH 495 0
DWIDTH 11 0
BBX 10 14 2 0
BITMAP
0200
0C00
1C00
1C00
7FC0
7F80
3800
3800
FF80
3000
7000
7000
3F00
3F00
ENDCHAR
STARTCHAR 0168
ENCODING 360
SWIDTH 495 0
DWIDTH 11 0
BBX 12 18 1 0
BITMAP
0720
07E0
04C0
0000
1870
3870
3860
38E0
38E0
30E0
70C0
71C0
71C0
61C0
E180
7380
7F00
3E00
ENDCHAR
STARTCHAR 0169
ENCODING 361
SWIDTH 495 0
DWIDTH 11 0
BBX 9 15 2 0
BITMAP
0C80
1F80
1380
0000
0000
7180
7380
6380
E380
E300
E300
C700
E700
FF00
FB00
ENDCHAR
STARTCHAR 016A
ENCODING 362
SWIDTH 495 0
DWIDTH 11 0
BBX 12 17 1 0
BITMAP
07E0
0000
0000
1870
3870
3860
38E0
38E0
30E0
70C0
71C0
71C0
61C0
E180
7380
7F00
3E00
ENDCHAR
STARTCHAR 016B
ENCODING 363
SWIDTH 495 0
DWIDTH 11 0
BBX 9 14 2 0
BITMAP
1F80
1F80
0000
0000
7180
7380
6380
E380
E300
E300
C700
E700
FF00
FB00
ENDCHAR
STARTCHAR 016C
ENCODING 364
SWIDTH 495 0
DWIDTH 11 0
BBX 12 18 1 0
BITMAP
0660
07E0
03C0
0000
1870
3870
3860
38E0
38E0
30E0
70C0
71C0
71C0
61C0
E180
7380
7F00
3E00
ENDCHAR
STARTCHAR 016D
ENCODING 365
SWIDTH 495 0
DWIDTH 11 0
BBX 9 15 2 0
BITMAP
1980
1F80
0F00
0000
0000
7180
7380
6380
E380
E300
E300
C700
E700
FF00
FB00
ENDCHAR
STARTCHAR 016E
ENCODING 366
SWIDTH 495 0
DWIDTH 11 0
BBX 12 18 1 0
BITMAP
0380
06C0
06C0
0380
0000
3870
3860
38E0
38E0
30E0
70C0
71C0
71C0
61C0
E180
7380
7F00
3E00
ENDCHAR
STARTCHAR 016F
ENCODING 367
SWIDTH 495 0
DWIDTH 11 0
BBX 9 16 2 0
BITMAP
0700
0D80
0980
0F00
0000
0000
7180
7380
6380
E380
E300
E300
C700
E700
FF00
FB00
ENDCHAR
STARTCHAR 0170
ENCODING 368
SWIDTH 495 0
DWIDTH 11 0
BBX 12 18 1 0
BITMAP
0230
0770
0CE0
0000
1870
3870
3860
38E0
38E0
30E0
70C0
71C0
71C0
61C0
E180
7380
7F00
3E00
ENDCHAR
STARTCHAR 0171
ENCODING 369
SWIDTH 495 0
DWIDTH 11 0
BBX 11 15 2 0
BITMAP
0C40
1DE0
3980
0100
0000
7180
7380
6380
E380
E300
E300
C700
E700
FF00
FB00
ENDCHAR
STARTCHAR 0172
ENCODING 370
SWIDTH 495 0
DWIDTH 11 0
BBX 12 18 1 -4
BITMAP
1870
3870
3860
38E0
38E0
30E0
70C0
71C0
71C0
61C0
E180
7380
7F00
3E00
1C00
3800
3C00
1C00
ENDCHAR
STARTCHAR 0173
ENCODING 371
SWIDTH 495 0
DWIDTH 11 0
BBX 9 14 2 -4
BITMAP
7180
7380
6380
E380
E300
E300
C700
E700
FF00
FB00
0600
0C00
0F00
0E00
ENDCHAR
STARTCHAR 0174
ENCODING 372
SWIDTH 495 0
DWIDTH 11 0
BBX 12 18 1 0
BITMAP
0180
03C0
0660
0000
3830
3830
3030
3070
3060
7660
6660
6EE0
6AC0
7AC0
F3C0
F380
E380
E380
ENDCHAR
STARTCHAR 0175
ENCODING 373
SWIDTH 495 0
DWIDTH 11 0
BBX 12 15 1 0
BITMAP
0100
0780
0EC0
0000
0000
6070
6060
6660
6EE0
6EC0
7AC0
5B80
F380
E380
E300
ENDCHAR
STARTCHAR 0176
ENCODING 374
SWIDTH 495 0
DWIDTH 11 0
BBX 11 18 3 0
BITMAP
0600
0F00
1D80
0000
E0E0
E1C0
6380
6380
6700
7600
7E00
3C00
3800
3800
3000
7000
7000
7000
ENDCHAR
STARTCHAR 0177
ENCODING 375
SWIDTH 495 0
DWIDTH 11 0
BBX 13 19 -1 -4
BITMAP
0040
01E0
03B0
0000
0000
0C38
0C30
0E70
0E70
0EE0
0EE0
0FC0
0780
0780
0700
0E00
7E00
F800
7000
ENDCHAR
STARTCHAR 0178
ENCODING 376
SWIDTH 495 0
DWIDTH 11 0
BBX 11 18 3 0
BITMAP
1980
39C0
1980
0000
E0E0
E1C0
6380
6380
6700
7600
7E00
3C00
3800
3800
3000
7000
7000
7000
ENDCHAR
STARTCHAR 0179
ENCODING 377
SWIDTH 495 0
DWIDTH 11 0
BBX 12 18 1 0
BITMAP
00C0
01E0
0380
0000
1FF0
1FE0
00E0
01C0
0380
0700
0700
0E00
1C00
3800
7000
6000
FF80
FF80
ENDCHAR
STARTCHAR 017A
ENCODING 378
SWIDTH 495 0
DWIDTH 11 0
BBX 11 15 1 0
BITMAP
0180
03C0
0780
0200
0000
1FE0
3FC0
0380
0700
0E00
1C00
3800
7000
FF80
FF80
ENDCHAR
STARTCHAR 017B
ENCODING 379
SWIDTH 495 0
DWIDTH 11 0
BBX 12 18 1 0
BITMAP
0180
0380
0180
0000
1FF0
1FE0
00E0
01C0
0380
0700
0700
0E00
1C00
3800
7000
6000
FF80
FF80
ENDCHAR
STARTCHAR 017C
ENCODING 380
SWIDTH 495 0
DWIDTH 11 0
BBX 11 15 1 0
BITMAP
0380
0380
0380
0000
0000
1FE0
3FC0
0380
0700
0E00
1C00
3800
7000
FF80
FF80
ENDCHAR
STARTCHAR 017D
ENCODING 381
SWIDTH 495 0
DWIDTH 11 0
BBX 12 18 1 0
BITMAP
0660
03C0
0380
0000
1FF0
1FE0
00E0
01C0
0380
0700
0700
0E00
1C00
3800
7000
6000
FF80
FF80
ENDCHAR
STARTCHAR 017E
ENCODING 382
SWIDTH 495 0
DWIDTH 11 0
BBX 11 15 1 0
BITMAP
06C0
07C0
0300
0000
0000
1FE0
3FC0
0380
0700
0E00
1C00
3800
7000
FF80
FF80
ENDCHAR
STARTCHAR 017F
ENCODING 383
SWIDTH 495 0
DWIDTH 11 0
BBX 14 19 -1 -4
BITMAP
00FC
01FC
01C0
0180
0380
0380
0380
0380
0300
0700
0700
0700
0700
0600
0E00
0E00
7C00
FC00
7000
ENDCHAR
STARTCHAR 0180
ENCODING 384
SWIDTH 495 0
DWIDTH 11 0
BBX 10 15 1 0
BITMAP
0C00
3F80
3F80
1C00
1900
3FC0
3FC0
38C0
30C0
70C0
71C0
71C0
6380
FF00
FE00
ENDCHAR
STARTCHAR 0181
ENCODING 385
SWIDTH 495 0
DWIDTH 11 0
BBX 10 14 2 0
BITMAP
1F00
7FC0
ECC0
DCC0
DCC0
19C0
1F00
3F80
3980
3180
3180
7380
7F00
7E00
ENDCHAR
STARTCHAR 0182
ENCODING 386
SWIDTH 495 0
DWIDTH 11 0
BBX 11 14 1 0
BITMAP
1FE0
1FC0
3FC0
3800
3800
3F00
7F80
73C0
71C0
61C0
61C0
E380
FF80
FE00
ENDCHAR
STARTCHAR 0183
ENCODING 387
SWIDTH 495 0
DWIDTH 11 0
BBX 11 15 1 0
BITMAP
1FE0
1FE0
1C00
1800
3B00
3F80
3FC0
31C0
71C0
71C0
71C0
61C0
E380
FF00
FE00
ENDCHAR
STARTCHAR 0184
ENCODING 388
SWIDTH 495 0
DWIDTH 11 0
BBX 10 15 1 0
BITMAP
0C00
3C00
3C00
1800
1B00
3FC0
3FC0
39C0
30C0
70C0
71C0
71C0
6380
FF00
FE00
ENDCHAR
STARTCHAR 0185
ENCODING 389
SWIDTH 495 0
DWIDTH 11 0
BBX 10 14 1 0
BITMAP
0400
3C00
3C00
1C00
1800
3F00
3FC0
39C0
31C0
71C0
71C0
7380
7F80
FE00
ENDCHAR
STARTCHAR 0186
ENCODING 390
SWIDTH 495 0
DWIDTH 11 0
BBX 10 14 1 0
BITMAP
1F00
3F80
13C0
01C0
00C0
00C0
00C0
01C0
01C0
01C0
0380
8780
FF00
FE00
ENDCHAR
STARTCHAR 0187
ENCODING 391
SWIDTH 495 0
DWIDTH 11 0
BBX 12 16 2 0
BITMAP
0030
0070
0FF0
1FC0
3C80
7000
7000
E000
E000
E000
E000
E000
E000
E000
FF00
7E00
ENDCHAR
STARTCHAR 0188
ENCODING 392
SWIDTH 495 0
DWIDTH 11 0
BBX 11 12 2 0
BITMAP
01E0
0FE0
3F00
7F00
F000
E000
C000
C000
C000
E000
FE00
7E00
ENDCHAR
STARTCHAR 0189
ENCODING 393
SWIDTH 495 0
DWIDTH 11 0
BBX 11 14 1 0
BITMAP
1F00
1FC0
1DC0
18E0
38E0
38E0
7CE0
FCE0
71C0
71C0
73C0
6780
FF00
FC00
ENDCHAR
STARTCHAR 018A
ENCODING 394
SWIDTH 495 0
DWIDTH 11 0
BBX 10 14 2 0
BITMAP
1F00
7F80
EDC0
DCC0
DCC0
18C0
18C0
38C0
39C0
3180
3380
7300
7F00
7C00
ENDCHAR
STARTCHAR 018B
ENCODING 395
SWIDTH 495 0
DWIDTH 11 0
BBX 12 14 1 0
BITMAP
0FF0
1FF0
1FE0
00E0
00E0
0FE0
3FC0
7DC0
71C0
E1C0
E180
7380
7F80
3F80
ENDCHAR
STARTCHAR 018C
ENCODING 396
SWIDTH 495 0
DWIDTH 11 0
BBX 12 15 1 0
BITMAP
0FF0
0FF0
0060
00E0
03E0
1FE0
3FC0
71C0
71C0
61C0
E180
E380
7380
7F80
3D80
ENDCHAR
STARTCHAR 018D
ENCODING 397
SWIDTH 495 0
DWIDTH 11 0
BBX 10 15 1 -4
BITMAP
0700
1FC0
3FC0
70C0
70C0
61C0
71C0
7380
3F00
1E00
0E00
0600
CE00
FE00
7800
ENDCHAR
STARTCHAR 018E
ENCODING 398
SWIDTH 495 0
DWIDTH 11 0
BBX 11 14 1 0
BITMAP
1FE0
1FE0
1FE0
00E0
00E0
00C0
3FC0
3FC0
01C0
0180
0380
0380
FF80
FF00
ENDCHAR
STARTCHAR 018F
ENCODING 399
SWIDTH 495 0
DWIDTH 11 0
BBX 11 14 1 0
BITMAP
1F80
1FC0
11E0
00E0
00E0
00E0
7FE0
7FE0
E0C0
E1C0
E1C0
6380
7F00
3E00
ENDCHAR
STARTCHAR 0190
ENCODING 400
SWIDTH 495 0
DWIDTH 11 0
BBX 11 14 2 0
BITMAP
0FC0
1FE0
3C40
3000
3000
3800
1F00
7F00
E000
C000
C000
E100
FF80
7F00
ENDCHAR
STARTCHAR 0191
ENCODING 401
SWIDTH 495 0
DWIDTH 11 0
BBX 15 18 -2 -4
BITMAP
01FE
03FE
03FC
0380
0300
0700
07F8
07F8
0600
0E00
0E00
0E00
0C00
1C00
1C00
7C00
7800
E000
ENDCHAR
STARTCHAR 0192
ENCODING 402
SWIDTH 495 0
DWIDTH 11 0
BBX 14 19 -1 -4
BITMAP
00FC
01FC
01C0
0180
0380
0FF8
0FF0
0380
0300
0700
0700
0700
0700
0600
0E00
0E00
7C00
FC00
7000
ENDCHAR
STARTCHAR 0193
ENCODING 403
SWIDTH 495 0
DWIDTH 11 0
BBX 12 16 2 0
BITMAP
0030
0070
0FF0
1FC0
3C80
7000
7000
E000
E000
E180
C380
C380
E380
E300
FF00
7F00
ENDCHAR
STARTCHAR 0194
ENCODING 404
SWIDTH 495 0
DWIDTH 11 0
BBX 12 18 2 -4
BITMAP
7070
70E0
70C0
31C0
3180
3380
3F00
3E00
1E00
1C00
3C00
3C00
6C00
6C00
CC00
FC00
7C00
3000
ENDCHAR
STARTCHAR 0195
ENCODING 405
SWIDTH 495 0
DWIDTH 11 0
BBX 12 15 0 0
BITMAP
0C00
0C00
1800
1800
1E00
1F30
3B30
3330
3330
3370
7660
6660
6660
67C0
E7C0
ENDCHAR
STARTCHAR 0196
ENCODING 406
SWIDTH 495 0
DWIDTH 11 0
BBX 9 14 3 0
BITMAP
7F80
7F80
FF80
1800
3800
3800
3800
3000
7000
7000
7000
7000
7E00
3E00
ENDCHAR
STARTCHAR 0197
ENCODING 407
SWIDTH 495 0
DWIDTH 11 0
BBX 12 14 1 0
BITMAP
1FF0
1FF0
1FE0
0700
0700
0700
1F80
3F80
0E00
0E00
0C00
1C00
FF80
FF80
ENDCHAR
STARTCHAR 0198
ENCODING 408
SWIDTH 495 0
DWIDTH 11 0
BBX 13 14 1 0
BITMAP
1C78
18F8
39F0
3B80
3B00
3700
7E00
7E00
7700
6700
6380
E380
E380
E1C0
ENDCHAR
STARTCHAR 0199
ENCODING 409
SWIDTH 495 0
DWIDTH 11 0
BBX 11 15 1 0
BITMAP
0F80
0F00
1C00
1C00
1800
38E0
39C0
3B80
3700
3E00
7600
7700
7380
6380
E380
ENDCHAR
STARTCHAR 019A
ENCODING 410
SWIDTH 495 0
DWIDTH 11 0
BBX 9 15 2 0
BITMAP
3E00
3E00
0E00
0E00
0C00
0C00
FF80
FF80
1C00
1800
3800
3800
3800
3F00
1F00
ENDCHAR
STARTCHAR 019B
ENCODING 411
SWIDTH 495 0
DWIDTH 11 0
BBX 11 15 3 0
BITMAP
0F00
0F60
03E0
0F80
0B80
0380
0780
0F80
0DC0
1DC0
39C0
39C0
71C0
71C0
E1C0
ENDCHAR
STARTCHAR 019C
ENCODING 412
SWIDTH 495 0
DWIDTH 11 0
BBX 12 14 1 0
BITMAP
3830
3030
3030
3070
7060
6660
6660
66E0
ECC0
CCC0
CCC0
CDC0
FF80
FF80
ENDCHAR
STARTCHAR 019D
ENCODING 413
SWIDTH 495 0
DWIDTH 11 0
BBX 15 18 -2 -4
BITMAP
0306
038E
078C
078C
06CC
06DC
06DC
0ED8
0C58
0C78
0C78
1C70
1C70
1870
1800
F800
F000
E000
ENDCHAR
STARTCHAR 019E
ENCODING 414
SWIDTH 495 0
DWIDTH 11 0
BBX 10 15 1 -4
BITMAP
0F00
3F80
3FC0
39C0
31C0
71C0
7180
7180
6380
E380
E380
0300
0700
0700
0700
ENDCHAR
STARTCHAR 019F
ENCODING 415
SWIDTH 495 0
DWIDTH 11 0
BBX 10 14 2 0
BITMAP
0F00
3F80
39C0
71C0
61C0
E1C0
FFC0
FFC0
C180
C380
C380
E700
FE00
7C00
ENDCHAR
STARTCHAR 01A0
ENCODING 416
SWIDTH 495 0
DWIDTH 11 0
BBX 12 16 1 0
BITMAP
0030
0030
07F0
1FE0
3DC0
38E0
70E0
70E0
70C0
60C0
61C0
E1C0
E380
7380
7F00
3E00
ENDCHAR
STARTCHAR 01A1
ENCODING 417
SWIDTH 495 0
DWIDTH 11 0
BBX 12 13 1 0
BITMAP
0070
0070
0760
1FE0
3FC0
71C0
71C0
61C0
E1C0
E380
7380
7F00
3E00
ENDCHAR
STARTCHAR 01A2
ENCODING 418
SWIDTH 495 0
DWIDTH 11 0
BBX 11 14 1 0
BITMAP
0EE0
1FE0
3360
3360
6360
6360
6660
66E0
C6C0
C6C0
CCC0
CCC0
F980
7980
ENDCHAR
STARTCHAR 01A3
ENCODING 419
SWIDTH 495 0
DWIDTH 11 0
BBX 11 15 1 -4
BITMAP
0CC0
3FE0
36E0
6660
6660
C6C0
C6C0
C6C0
CCC0
FD80
7980
0180
0180
0380
0300
ENDCHAR
STARTCHAR 01A4
ENCODING 420
SWIDTH 495 0
DWIDTH 11 0
BBX 11 14 2 0
BITMAP
1F80
7FC0
ECC0
CCE0
DCC0
18C0
19C0
1F80
3F00
3000
3000
3000
7000
7000
ENDCHAR
STARTCHAR 01A5
ENCODING 421
SWIDTH 495 0
DWIDTH 11 0
BBX 11 19 0 -4
BITMAP
0780
0F80
0E00
0C00
1F80
1FC0
1FE0
18E0
3860
38E0
38E0
30E0
73C0
7F80
7F00
6000
E000
E000
E000
ENDCHAR
STARTCHAR 01A6
ENCODING 422
SWIDTH 495 0
DWIDTH 11 0
BBX 11 17 1 -2
BITMAP
1C00
1F80
1FC0
19E0
38E0
38E0
30E0
33C0
7F80
7E00
7700
6300
E380
E380
E180
01C0
01C0
ENDCHAR
STARTCHAR 01A7
ENCODING 423
SWIDTH 495 0
DWIDTH 11 0
BBX 11 14 1 0
BITMAP
0FC0
1FE0
18E0
00E0
00E0
03C0
0F80
3F00
7800
7000
E000
F080
7F80
3F80
ENDCHAR
STARTCHAR 01A8
ENCODING 424
SWIDTH 495 0
DWIDTH 11 0
BBX 9 11 2 0
BITMAP
1E00
3F80
3F80
0380
0780
3F00
FC00
E000
C000
FE00
7F00
ENDCHAR
STARTCHAR 01A9
ENCODING 425
SWIDTH 495 0
DWIDTH 11 0
BBX 12 14 1 0
BITMAP
1FF0
1FF0
1FF0
1C00
0E00
0600
0700
0700
0E00
1C00
3800
F000
FF80
FF80
ENDCHAR
STARTCHAR 01AA
ENCODING 426
SWIDTH 495 0
DWIDTH 11 0
BBX 7 19 3 -4
BITMAP
3E
6E
C6
C6
FE
7E
0E
0C
1C
1C
1C
18
38
38
38
38
3E
3E
1C
ENDCHAR
STARTCHAR 01AB
ENCODING 427
SWIDTH 495 0
DWIDTH 11 0
BBX 10 18 2 -4
BITMAP
0200
0C00
1C00
1C00
FFC0
FFC0
3800
3800
3800
3000
7000
7000
3F00
3F00
0300
0700
1E00
1C00
ENDCHAR
STARTCHAR 01AC
ENCODING 428
SWIDTH 495 0
DWIDTH 11 0
BBX 11 14 2 0
BITMAP
1FE0
7FE0
FFE0
C600
CE00
0E00
0E00
0C00
1C00
1C00
1C00
1800
3800
3800
ENDCHAR
STARTCHAR 01AD
ENCODING 429
SWIDTH 495 0
DWIDTH 11 0
BBX 11 15 2 0
BITMAP
07E0
0FE0
0E00
1C00
1C00
FFC0
FFC0
3800
3800
3800
3000
7000
7000
3F00
3F00
ENDCHAR
STARTCHAR 01AE
ENCODING 430
SWIDTH 495 0
DWIDTH 11 0
BBX 10 18 3 -4
BITMAP
FFC0
FFC0
FFC0
1C00
1C00
1C00
1800
3800
3800
3800
3000
7000
7000
7000
6000
7800
7800
3800
ENDCHAR
STARTCHAR 01AF
ENCODING 431
SWIDTH 495 0
DWIDTH 11 0
BBX 14 16 1 0
BITMAP
001C
0018
18F8
38F0
38C0
38C0
31C0
31C0
7180
7180
6380
6380
E300
E700
7F00
7E00
ENDCHAR
STARTCHAR 01B0
ENCODING 432
SWIDTH 495 0
DWIDTH 11 0
BBX 12 13 1 0
BITMAP
0030
0030
0070
31E0
7180
7380
6380
6380
E300
E300
E700
7F00
7B00
ENDCHAR
STARTCHAR 01B1
ENCODING 433
SWIDTH 495 0
DWIDTH 11 0
BBX 13 14 1 0
BITMAP
3EF8
3EF0
3CF0
18C0
38E0
70E0
70E0
60E0
E0E0
E0C0
E1C0
7380
7F80
3E00
ENDCHAR
STARTCHAR 01B2
ENCODING 434
SWIDTH 495 0
DWIDTH 11 0
BBX 10 14 2 0
BITMAP
3B80
33C0
73C0
71C0
71C0
61C0
E1C0
E1C0
E180
C380
C380
C700
FE00
FC00
ENDCHAR
STARTCHAR 01B3
ENCODING 435
SWIDTH 495 0
DWIDTH 11 0
BBX 11 14 3 0
BITMAP
E1E0
E3E0
E3C0
E700
6600
6C00
7C00
7800
3800
3000
7000
7000
7000
6000
ENDCHAR
STARTCHAR 01B4
ENCODING 436
SWIDTH 495 0
DWIDTH 11 0
BBX 14 15 -1 -4
BITMAP
0018
0C3C
0C78
0C60
0CE0
0EC0
0FC0
0F80
0F80
0780
0700
0E00
7E00
F800
7000
ENDCHAR
STARTCHAR 01B5
ENCODING 437
SWIDTH 495 0
DWIDTH 11 0
BBX 12 14 1 0
BITMAP
1FF0
1FE0
00E0
01C0
0380
0700
3FC0
7FC0
1C00
3800
7000
6000
FF80
FF80
ENDCHAR
STARTCHAR 01B6
ENCODING 438
SWIDTH 495 0
DWIDTH 11 0
BBX 11 10 1 0
BITMAP
1FE0
3FC0
0380
0700
3F80
3F80
3800
7000
FF80
FF80
ENDCHAR
STARTCHAR 01B7
ENCODING 439
SWIDTH 495 0
DWIDTH 11 0
BBX 12 14 1 0
BITMAP
1FF0
1FE0
1FE0
01C0
0380
0700
0F00
0F80
01C0
01C0
01C0
4380
FF80
FF00
ENDCHAR
STARTCHAR 01B8
ENCODING 440
SWIDTH 495 0
DWIDTH 11 0
BBX 11 14 2 0
BITMAP
1FE0
3FE0
1FC0
1C00
0C00
0E00
1E00
7E00
E000
E000
E000
E000
FF00
7F00
ENDCHAR
STARTCHAR 01B9
ENCODING 441
SWIDTH 495 0
DWIDTH 11 0
BBX 11 14 1 -4
BITMAP
1FE0
1FE0
1C00
0E00
0600
0F00
3F00
7000
E000
E000
E000
7F80
7F80
1E00
ENDCHAR
STARTCHAR 01BA
ENCODING 442
SWIDTH 495 0
DWIDTH 11 0
BBX 11 14 0 -4
BITMAP
1FE0
1FE0
01C0
0380
0E00
0F80
01C0
01C0
03C0
1F80
7F00
F000
C000
C000
ENDCHAR
STARTCHAR 01BB
ENCODING 443
SWIDTH 495 0
DWIDTH 11 0
BBX 11 14 1 0
BITMAP
0F80
1FC0
19E0
00E0
00E0
01C0
3FE0
3FC0
1E00
3C00
7000
7000
FF80
FF80
ENDCHAR
STARTCHAR 01BC
ENCODING 444
SWIDTH 495 0
DWIDTH 11 0
BBX 12 14 1 0
BITMAP
1FF0
3FE0
3FE0
0C00
1C00
1C00
1F80
03C0
01C0
01C0
01C0
43C0
FF80
FF00
ENDCHAR
STARTCHAR 01BD
ENCODING 445
SWIDTH 495 0
DWIDTH 11 0
BBX 10 10 1 0
BITMAP
3FC0
3FC0
1C00
1C00
3F80
0380
0380
0380
7F80
FF00
ENDCHAR
STARTCHAR 01BE
ENCODING 446
SWIDTH 495 0
DWIDTH 11 0
BBX 10 14 2 0
BITMAP
0200
0C00
1C00
1C00
7FC0
7F80
3800
3800
1F00
0F00
0380
0380
FF00
FE00
ENDCHAR
STARTCHAR 01BF
ENCODING 447
SWIDTH 495 0
DWIDTH 11 0
BBX 11 15 0 -4
BITMAP
0380
1FC0
1FE0
1CE0
38E0
38E0
38E0
39C0
73C0
7F80
7E00
7800
E000
E000
E000
ENDCHAR
STARTCHAR 01C0
ENCODING 448
SWIDTH 495 0
DWIDTH 11 0
BBX 7 20 3 -4
BITMAP
0E
0E
0E
0C
1C
1C
1C
18
38
38
38
30
30
70
70
70
60
E0
E0
E0
ENDCHAR
STARTCHAR 01C1
ENCODING 449
SWIDTH 495 0
DWIDTH 11 0
BBX 11 20 1 -4
BITMAP
0E60
0EE0
0EE0
0CE0
1CC0
1DC0
1DC0
19C0
39C0
3980
3B80
3380
7380
7300
7700
6700
E700
E600
EE00
CE00
ENDCHAR
STARTCHAR 01C2
ENCODING 450
SWIDTH 495 0
DWIDTH 11 0
BBX 11 20 1 -4
BITMAP
0380
0380
0380
0300
0300
0700
0700
7FE0
7FE0
0E00
0E00
FFC0
FFC0
1C00
1C00
1C00
1800
3800
3800
3800
ENDCHAR
STARTCHAR 01C3
ENCODING 451
SWIDTH 495 0
DWIDTH 11 0
BBX 6 14 4 0
BITMAP
1C
3C
38
38
38
38
70
70
70
00
00
E0
E0
E0
ENDCHAR
STARTCHAR 01C4
ENCODING 452
SWIDTH 495 0
DWIDTH 11 0
BBX 15 18 0 0
BITMAP
0022
001E
0018
0000
1E3C
1F3C
1B18
1B18
3330
3330
3360
3360
63C0
66C0
6780
6D80
79E0
F3E0
ENDCHAR
STARTCHAR 01C5
ENCODING 453
SWIDTH 495 0
DWIDTH 11 0
BBX 14 15 0 0
BITMAP
0024
1E3C
1F18
1B00
1B00
3378
3378
3330
3330
6360
66C0
66C0
6D80
79E0
F1E0
ENDCHAR
STARTCHAR 01C6
ENCODING 454
SWIDTH 495 0
DWIDTH 11 0
BBX 13 15 1 0
BITMAP
0308
0378
0630
0600
1E00
3EF0
6CF0
6C60
CC60
CCC0
C980
D980
DB00
FBC0
FBC0
ENDCHAR
STARTCHAR 01C7
ENCODING 455
SWIDTH 495 0
DWIDTH 11 0
BBX 13 14 0 0
BITMAP
1808
1818
1818
3018
3010
3030
3030
6030
6030
6060
6060
4060
FBC0
FB80
ENDCHAR
STARTCHAR 01C8
ENCODING 456
SWIDTH 495 0
DWIDTH 11 0
BBX 13 19 0 -4
BITMAP
0018
0838
1838
1800
1800
1830
3030
3060
3060
3060
6060
60C0
60C0
7CC0
FCC0
0180
0980
0F00
0E00
ENDCHAR
STARTCHAR 01C9
ENCODING 457
SWIDTH 495 0
DWIDTH 11 0
BBX 11 19 2 -4
BITMAP
1860
3060
30E0
3000
3000
60C0
60C0
60C0
6180
C180
C180
C180
C300
F300
6300
0300
0600
3E00
1800
ENDCHAR
STARTCHAR 01CA
ENCODING 458
SWIDTH 495 0
DWIDTH 11 0
BBX 13 14 0 0
BITMAP
1988
1998
1B18
3B18
3B10
3B30
3E30
6E30
6E30
6E60
6C60
4C60
CDC0
CDC0
ENDCHAR
STARTCHAR 01CB
ENCODING 459
SWIDTH 495 0
DWIDTH 11 0
BBX 13 19 0 -4
BITMAP
0018
19B8
19B8
1980
1B00
3B30
3B30
3B60
3E60
6E60
6E60
6E40
6CC0
CCC0
CCC0
0080
0980
0F00
0E00
ENDCHAR
STARTCHAR 01CC
ENCODING 460
SWIDTH 495 0
DWIDTH 11 0
BBX 14 19 0 -4
BITMAP
0008
001C
0018
0000
0E00
3F30
3330
3330
3330
6360
6360
6660
6660
C6C0
C6C0
00C0
0180
0F80
0600
ENDCHAR
STARTCHAR 01CD
ENCODING 461
SWIDTH 495 0
DWIDTH 11 0
BBX 12 18 0 0
BITMAP
0330
01E0
00C0
0080
01C0
03C0
03C0
06C0
06C0
0CC0
1CC0
1CC0
38C0
3FE0
7FE0
70E0
60E0
E0E0
ENDCHAR
STARTCHAR 01CE
ENCODING 462
SWIDTH 495 0
DWIDTH 11 0
BBX 11 15 1 0
BITMAP
0660
03C0
0380
0100
0780
1FE0
3FC0
71C0
71C0
61C0
E180
E380
7380
7F80
3D80
ENDCHAR
STARTCHAR 01CF
ENCODING 463
SWIDTH 495 0
DWIDTH 11 0
BBX 12 18 1 0
BITMAP
0660
03C0
0180
0100
1FF0
1FF0
1FE0
0700
0700
0700
0600
0E00
0E00
0E00
0C00
1C00
FF80
FF80
ENDCHAR
STARTCHAR 01D0
ENCODING 464
SWIDTH 495 0
DWIDTH 11 0
BBX 7 15 3 0
BITMAP
32
3E
1C
00
00
F8
F8
38
38
30
70
70
70
7E
3E
ENDCHAR
STARTCHAR 01D1
ENCODING 465
SWIDTH 495 0
DWIDTH 11 0
BBX 11 18 1 0
BITMAP
0660
03C0
0180
0000
0780
1FC0
1CE0
38E0
30E0
70E0
70E0
60E0
60C0
E1C0
61C0
7380
7F00
3E00
ENDCHAR
STARTCHAR 01D2
ENCODING 466
SWIDTH 495 0
DWIDTH 11 0
BBX 10 15 1 0
BITMAP
06C0
07C0
0300
0000
0700
1F80
3FC0
71C0
71C0
61C0
E1C0
E1C0
7380
7F00
3E00
ENDCHAR
STARTCHAR 01D3
ENCODING 467
SWIDTH 495 0
DWIDTH 11 0
BBX 12 18 1 0
BITMAP
0660
03C0
0180
0100
1870
3870
3860
38E0
38E0
30E0
70C0
71C0
71C0
61C0
E180
7380
7F00
3E00
ENDCHAR
STARTCHAR 01D4
ENCODING 468
SWIDTH 495 0
DWIDTH 11 0
BBX 9 15 2 0
BITMAP
0980
0F80
0600
0000
0000
7180
7380
6380
E380
E300
E300
C700
E700
FF00
FB00
ENDCHAR
STARTCHAR 01D5
ENCODING 469
SWIDTH 495 0
DWIDTH 11 0
BBX 12 18 1 0
BITMAP
03E0
0000
06E0
06E0
0000
1870
3860
38E0
38E0
30E0
70C0
71C0
71C0
61C0
E180
7380
7F00
3E00
ENDCHAR
STARTCHAR 01D6
ENCODING 470
SWIDTH 495 0
DWIDTH 11 0
BBX 9 16 2 0
BITMAP
0F80
0000
1980
1980
0000
0000
7180
7380
6380
E380
E300
E300
C700
E700
FF00
FB00
ENDCHAR
STARTCHAR 01D7
ENCODING 471
SWIDTH 495 0
DWIDTH 11 0
BBX 12 18 1 0
BITMAP
0180
0DA0
0C60
0C60
0000
3870
3860
38E0
38E0
30E0
70C0
71C0
71C0
61C0
E180
7380
7F00
3E00
ENDCHAR
STARTCHAR 01D8
ENCODING 472
SWIDTH 495 0
DWIDTH 11 0
BBX 10 18 2 0
BITMAP
0100
0180
0300
0600
18C0
38C0
0000
0000
7180
7380
6380
E380
E300
E300
C700
E700
FF00
FB00
ENDCHAR
STARTCHAR 01D9
ENCODING 473
SWIDTH 495 0
DWIDTH 11 0
BBX 12 18 1 0
BITMAP
03C0
0DA0
0C70
0C20
0000
3870
3860
38E0
38E0
30E0
70C0
71C0
71C0
61C0
E180
7380
7F00
3E00
ENDCHAR
STARTCHAR 01DA
ENCODING 474
SWIDTH 495 0
DWIDTH 11 0
BBX 10 17 2 0
BITMAP
0880
0F80
0700
18C0
38C0
0000
0000
7180
7380
6380
E380
E300
E300
C700
E700
FF00
FB00
ENDCHAR
STARTCHAR 01DB
ENCODING 475
SWIDTH 495 0
DWIDTH 11 0
BBX 12 18 1 0
BITMAP
0300
0DA0
0C70
0C20
0000
3870
3860
38E0
38E0
30E0
70C0
71C0
71C0
61C0
E180
7380
7F00
3E00
ENDCHAR
STARTCHAR 01DC
ENCODING 476
SWIDTH 495 0
DWIDTH 11 0
BBX 10 18 2 0
BITMAP
0400
0C00
0C00
0600
31C0
31C0
0000
0000
7180
7380
6380
E380
E300
E300
C700
E700
FF00
FB00
ENDCHAR
STARTCHAR 01DD
ENCODING 477
SWIDTH 495 0
DWIDTH 11 0
BBX 10 11 1 0
BITMAP
1E00
3F80
3FC0
01C0
07C0
3FC0
71C0
E1C0
E380
FF00
7E00
ENDCHAR
STARTCHAR 01DE
ENCODING 478
SWIDTH 495 0
DWIDTH 11 0
BBX 12 18 0 0
BITMAP
03F0
0000
0370
0360
0000
03C0
03C0
07C0
06C0
0EC0
0CC0
1CC0
18C0
3FE0
3FE0
70E0
60E0
E0E0
ENDCHAR
STARTCHAR 01DF
ENCODING 479
SWIDTH 495 0
DWIDTH 11 0
BBX 11 16 1 0
BITMAP
03E0
0000
06C0
0EC0
0000
0780
1FE0
3FC0
71C0
71C0
61C0
E180
E380
7380
7F80
3D80
ENDCHAR
STARTCHAR 01E0
ENCODING 480
SWIDTH 495 0
DWIDTH 11 0
BBX 12 18 0 0
BITMAP
01F0
0000
01C0
01C0
0000
03C0
03C0
07C0
06C0
0EC0
0CC0
1CC0
18C0
3FE0
3FE0
70E0
60E0
E0E0
ENDCHAR
STARTCHAR 01E1
ENCODING 481
SWIDTH 495 0
DWIDTH 11 0
BBX 11 16 1 0
BITMAP
03E0
0000
0380
0380
0000
0780
1FE0
3FC0
71C0
71C0
61C0
E180
E380
7380
7F80
3D80
ENDCHAR
STARTCHAR 01E2
ENCODING 482
SWIDTH 495 0
DWIDTH 11 0
BBX 14 17 0 0
BITMAP
00FC
0000
0000
01F8
03F8
03F8
06C0
06C0
0DC0
1DE0
19E0
3980
3F80
7F00
7300
E3E0
E7E0
ENDCHAR
STARTCHAR 01E3
ENCODING 483
SWIDTH 495 0
DWIDTH 11 0
BBX 11 14 1 0
BITMAP
0FE0
0FC0
0000
38C0
7DE0
4F60
0E60
1E60
7FC0
EF80
CC00
DC00
FFC0
F7C0
ENDCHAR
STARTCHAR 01E4
ENCODING 484
SWIDTH 495 0
DWIDTH 11 0
BBX 10 14 2 0
BITMAP
0FC0
1FC0
3CC0
7000
7000
E000
E180
E380
C7C0
CF80
E300
E700
FF00
7F00
ENDCHAR
STARTCHAR 01E5
ENCODING 485
SWIDTH 495 0
DWIDTH 11 0
BBX 12 15 0 -4
BITMAP
03C0
0FE0
1FE0
38E0
39F0
33F0
31C0
39C0
3FC0
1F80
0380
0380
7F00
FE00
7C00
ENDCHAR
STARTCHAR 01E6
ENCODING 486
SWIDTH 495 0
DWIDTH 11 0
BBX 11 18 2 0
BITMAP
0660
03C0
0380
0000
07C0
1FC0
3CC0
7000
7000
E000
E000
E180
C380
C380
E380
E300
FF00
7F00
ENDCHAR
STARTCHAR 01E7
ENCODING 487
SWIDTH 495 0
DWIDTH 11 0
BBX 12 19 0 -4
BITMAP
01B0
01F0
00C0
0000
01C0
0FF0
1FE0
3860
38E0
30E0
30E0
38C0
3FC0
1FC0
01C0
0380
7F80
FF00
3C00
ENDCHAR
STARTCHAR 01E8
ENCODING 488
SWIDTH 495 0
DWIDTH 11 0
BBX 12 18 1 0
BITMAP
0660
03C0
0380
0000
1C70
18E0
38E0
39C0
3B80
3700
7E00
7E00
7700
7700
6380
E380
E380
E1C0
ENDCHAR
STARTCHAR 01E9
ENCODING 489
SWIDTH 495 0
DWIDTH 11 0
BBX 11 18 1 0
BITMAP
0D80
0700
0200
0000
1C00
1C00
1C00
1800
38E0
39C0
3B80
3700
3E00
7600
7700
7380
6380
E380
ENDCHAR
STARTCHAR 01EA
ENCODING 490
SWIDTH 495 0
DWIDTH 11 0
BBX 11 18 1 -4
BITMAP
0780
1FC0
1CE0
38E0
30E0
70E0
70E0
60E0
60C0
E1C0
61C0
7380
7F00
3E00
1800
3000
3C00
3C00
ENDCHAR
STARTCHAR 01EB
ENCODING 491
SWIDTH 495 0
DWIDTH 11 0
BBX 10 15 1 -4
BITMAP
0700
1F80
3FC0
71C0
71C0
61C0
E1C0
E1C0
7380
7F00
3E00
1C00
3800
3C00
3C00
ENDCHAR
STARTCHAR 01EC
ENCODING 492
SWIDTH 495 0
DWIDTH 11 0
BBX 11 21 1 -4
BITMAP
07E0
0000
0000
0780
1FC0
1CE0
38E0
30E0
70E0
70E0
60E0
60C0
E1C0
61C0
7380
7F00
3E00
1800
3000
3C00
3C00
ENDCHAR
STARTCHAR 01ED
ENCODING 493
SWIDTH 495 0
DWIDTH 11 0
BBX 11 18 1 -4
BITMAP
0FE0
0FE0
0000
0700
1F80
3FC0
71C0
71C0
61C0
E1C0
E1C0
7380
7F00
3E00
1C00
3800
3C00
3C00
ENDCHAR
STARTCHAR 01EE
ENCODING 494
SWIDTH 495 0
DWIDTH 11 0
BBX 12 18 1 0
BITMAP
0660
03C0
0180
0100
1FF0
1FE0
1FE0
01C0
0380
0700
0F00
0F80
01C0
01C0
01C0
4380
FF80
FF00
ENDCHAR
STARTCHAR 01EF
ENCODING 495
SWIDTH 495 0
DWIDTH 11 0
BBX 11 19 0 -4
BITMAP
0360
03E0
0180
0000
0000
1FE0
1FE0
01C0
0380
0700
0E00
0F80
0380
01C0
01C0
0380
7F80
FF00
3800
ENDCHAR
STARTCHAR 01F0
ENCODING 496
SWIDTH 495 0
DWIDTH 11 0
BBX 11 19 0 -4
BITMAP
0660
03C0
0180
0000
0000
1FC0
1FC0
01C0
01C0
0180
0380
0380
0380
0300
0700
0700
FE00
FE00
7800
ENDCHAR
STARTCHAR 01F1
ENCODING 497
SWIDTH 495 0
DWIDTH 11 0
BBX 14 14 0 0
BITMAP
1E3C
1F3C
1B18
1B18
3330
3330
3360
3360
63C0
66C0
6780
6D80
79E0
F3E0
ENDCHAR
STARTCHAR 01F2
ENCODING 498
SWIDTH 495 0
DWIDTH 11 0
BBX 13 14 0 0
BITMAP
1E00
1F00
1B00
1B00
3378
3378
3330
3330
6360
66C0
66C0
6D80
79E0
F1E0
ENDCHAR
STARTCHAR 01F3
ENCODING 499
SWIDTH 495 0
DWIDTH 11 0
BBX 12 15 1 0
BITMAP
0300
0300
0600
0600
1E00
3EF0
6CF0
6C60
CC60
CCC0
C980
D980
DB00
FBC0
FBC0
ENDCHAR
STARTCHAR 01F4
ENCODING 500
SWIDTH 495 0
DWIDTH 11 0
BBX 10 18 2 0
BITMAP
0180
0780
0700
0400
07C0
1FC0
3CC0
7000
7000
E000
E000
E180
C380
C380
E380
E300
FF00
7F00
ENDCHAR
STARTCHAR 01F5
ENCODING 501
SWIDTH 495 0
DWIDTH 11 0
BBX 12 19 0 -4
BITMAP
0060
00E0
01C0
0100
01C0
0FF0
1FE0
3860
38E0
30E0
30E0
38C0
3FC0
1FC0
01C0
0380
7F80
FF00
3C00
ENDCHAR
STARTCHAR 01F6
ENCODING 502
SWIDTH 495 0
DWIDTH 11 0
BBX 12 14 0 0
BITMAP
1DC0
1980
1980
1980
3BB0
3330
3F30
3F30
7770
6660
6660
6660
E7C0
C7C0
ENDCHAR
STARTCHAR 01F7
ENCODING 503
SWIDTH 495 0
DWIDTH 11 0
BBX 12 18 0 -4
BITMAP
07C0
0FF0
0EF0
0C70
1C30
1C30
1C70
1870
38E0
39E0
3BC0
3F80
7E00
7800
7000
7000
6000
E000
ENDCHAR
STARTCHAR 01F8
ENCODING 504
SWIDTH 495 0
DWIDTH 11 0
BBX 12 18 1 0
BITMAP
0600
0780
0380
0080
1830
1C70
3C60
3C60
3C60
36E0
76E0
76C0
66C0
63C0
E3C0
E380
C380
C380
ENDCHAR
STARTCHAR 01F9
ENCODING 505
SWIDTH 495 0
DWIDTH 11 0
BBX 10 15 1 0
BITMAP
0600
0F00
0380
0000
0F00
3FC0
3FC0
39C0
31C0
71C0
7180
7180
6380
E380
E300
ENDCHAR
STARTCHAR 01FA
ENCODING 506
SWIDTH 495 0
DWIDTH 11 0
BBX 11 18 0 0
BITMAP
00E0
01C0
0000
01C0
0360
01C0
03C0
07C0
06C0
0EC0
0CC0
1CC0
18C0
3FE0
3FE0
70E0
60E0
E0E0
ENDCHAR
STARTCHAR 01FB
ENCODING 507
SWIDTH 495 0
DWIDTH 11 0
BBX 11 18 1 0
BITMAP
00C0
0180
0000
03C0
0240
03C0
0000
0780
1FE0
3FC0
71C0
71C0
61C0
E180
E380
7380
7F80
3D80
ENDCHAR
STARTCHAR 01FC
ENCODING 508
SWIDTH 495 0
DWIDTH 11 0
BBX 13 18 0 0
BITMAP
0030
0078
00E0
0040
01F8
03F8
03F8
06C0
06C0
0DC0
1DE0
19E0
3980
3F80
7F00
7300
E3E0
E7E0
ENDCHAR
STARTCHAR 01FD
ENCODING 509
SWIDTH 495 0
DWIDTH 11 0
BBX 11 15 1 0
BITMAP
0180
03C0
0780
0200
38C0
7DE0
4F60
0E60
1E60
7FC0
EF80
CC00
DC00
FFC0
F7C0
ENDCHAR
STARTCHAR 01FE
ENCODING 510
SWIDTH 495 0
DWIDTH 11 0
BBX 11 19 1 -1
BITMAP
0180
0780
0700
0400
07E0
1FE0
1CE0
39E0
33E0
73E0
66E0
6EE0
6CC0
F9C0
79C0
7380
7F00
FE00
4000
ENDCHAR
STARTCHAR 01FF
ENCODING 511
SWIDTH 495 0
DWIDTH 11 0
BBX 10 16 2 -1
BITMAP
0300
0700
0E00
0800
0FC0
1F80
3FC0
73C0
E7C0
EDC0
F980
F380
F380
FF00
FE00
8000
ENDCHAR
STARTCHAR 0200
ENCODING 512
SWIDTH 495 0
DWIDTH 11 0
BBX 12 18 0 0
BITMAP
0660
0770
0330
0000
01C0
03C0
03C0
06C0
06C0
0CC0
1CC0
1CC0
38C0
3FE0
7FE0
70E0
60E0
E0E0
ENDCHAR
STARTCHAR 0201
ENCODING 513
SWIDTH 495 0
DWIDTH 11 0
BBX 11 15 1 0
BITMAP
0CC0
0CC0
0660
0040
0780
1FE0
3FC0
71C0
71C0
61C0
E180
E380
7380
7F80
3D80
ENDCHAR
STARTCHAR 0202
ENCODING 514
SWIDTH 495 0
DWIDTH 11 0
BBX 12 18 0 0
BITMAP
01E0
03F0
0330
0000
01C0
03C0
03C0
06C0
06C0
0CC0
1CC0
1CC0
38C0
3FE0
7FE0
70E0
60E0
E0E0
ENDCHAR
STARTCHAR 0203
ENCODING 515
SWIDTH 495 0
DWIDTH 11 0
BBX 11 15 1 0
BITMAP
0380
07C0
0CC0
0000
0780
1FE0
3FC0
71C0
71C0
61C0
E180
E380
7380
7F80
3D80
ENDCHAR
STARTCHAR 0204
ENCODING 516
SWIDTH 495 0
DWIDTH 11 0
BBX 12 18 1 0
BITMAP
0640
0660
0330
0000
1FF0
1FE0
1FE0
1800
3800
3800
3F80
3F80
7000
7000
7000
6000
7F80
FF80
ENDCHAR
STARTCHAR 0205
ENCODING 517
SWIDTH 495 0
DWIDTH 11 0
BBX 10 15 2 0
BITMAP
1980
1980
0CC0
0080
0F00
3F80
7BC0
61C0
E380
FF80
FE00
C000
E000
FF00
7F00
ENDCHAR
STARTCHAR 0206
ENCODING 518
SWIDTH 495 0
DWIDTH 11 0
BBX 12 18 1 0
BITMAP
03C0
07E0
0660
0000
1FF0
1FE0
1FE0
1800
3800
3800
3F80
3F80
7000
7000
7000
6000
7F80
FF80
ENDCHAR
STARTCHAR 0207
ENCODING 519
SWIDTH 495 0
DWIDTH 11 0
BBX 10 15 2 0
BITMAP
0700
0F80
1980
0000
0F00
3F80
7BC0
61C0
E380
FF80
FE00
C000
E000
FF00
7F00
ENDCHAR
STARTCHAR 0208
ENCODING 520
SWIDTH 495 0
DWIDTH 11 0
BBX 12 18 1 0
BITMAP
0CC0
0EE0
0660
0000
1FF0
1FF0
1FE0
0700
0700
0700
0600
0E00
0E00
0E00
0C00
1C00
FF80
FF80
ENDCHAR
STARTCHAR 0209
ENCODING 521
SWIDTH 495 0
DWIDTH 11 0
BBX 8 15 3 0
BITMAP
66
76
33
00
00
F8
F8
38
38
30
70
70
70
7E
3E
ENDCHAR
STARTCHAR 020A
ENCODING 522
SWIDTH 495 0
DWIDTH 11 0
BBX 12 18 1 0
BITMAP
03C0
07E0
0660
0000
1FF0
1FF0
1FE0
0700
0700
0700
0600
0E00
0E00
0E00
0C00
1C00
FF80
FF80
ENDCHAR
STARTCHAR 020B
ENCODING 523
SWIDTH 495 0
DWIDTH 11 0
BBX 7 15 3 0
BITMAP
1C
3E
66
00
00
F8
F8
38
38
30
70
70
70
7E
3E
ENDCHAR
STARTCHAR 020C
ENCODING 524
SWIDTH 495 0
DWIDTH 11 0
BBX 11 18 1 0
BITMAP
0CC0
0EC0
0660
0000
0780
1FC0
1CE0
38E0
30E0
70E0
70E0
60E0
60C0
E1C0
61C0
7380
7F00
3E00
ENDCHAR
STARTCHAR 020D
ENCODING 525
SWIDTH 495 0
DWIDTH 11 0
BBX 11 15 1 0
BITMAP
0C80
0CC0
06E0
0440
0700
1F80
3FC0
71C0
71C0
61C0
E1C0
E1C0
7380
7F00
3E00
ENDCHAR
STARTCHAR 020E
ENCODING 526
SWIDTH 495 0
DWIDTH 11 0
BBX 11 18 1 0
BITMAP
03C0
07E0
0660
0000
0780
1FC0
1CE0
38E0
30E0
70E0
70E0
60E0
60C0
E1C0
61C0
7380
7F00
3E00
ENDCHAR
STARTCHAR 020F
ENCODING 527
SWIDTH 495 0
DWIDTH 11 0
BBX 10 15 1 0
BITMAP
0380
07C0
0CC0
0000
0700
1F80
3FC0
71C0
71C0
61C0
E1C0
E1C0
7380
7F00
3E00
ENDCHAR
STARTCHAR 0210
ENCODING 528
SWIDTH 495 0
DWIDTH 11 0
BBX 11 18 1 0
BITMAP
0CC0
0CC0
0660
0000
1F80
1FC0
39E0
38E0
38E0
30E0
33C0
7F80
7F00
7700
6300
E380
E380
E180
ENDCHAR
STARTCHAR 0211
ENCODING 529
SWIDTH 495 0
DWIDTH 11 0
BBX 10 15 2 0
BITMAP
1900
1980
0D80
0880
0780
3FC0
3F80
7000
7000
7000
6000
E000
E000
E000
C000
ENDCHAR
STARTCHAR 0212
ENCODING 530
SWIDTH 495 0
DWIDTH 11 0
BBX 11 18 1 0
BITMAP
03C0
07E0
0660
0000
1F80
1FC0
39E0
38E0
38E0
30E0
33C0
7F80
7F00
7700
6300
E380
E380
E180
ENDCHAR
STARTCHAR 0213
ENCODING 531
SWIDTH 495 0
DWIDTH 11 0
BBX 10 15 2 0
BITMAP
0700
0F80
1980
0000
0780
3FC0
3F80
7000
7000
7000
6000
E000
E000
E000
C000
ENDCHAR
STARTCHAR 0214
ENCODING 532
SWIDTH 495 0
DWIDTH 11 0
BBX 12 18 1 0
BITMAP
0CC0
0EE0
0660
0000
1870
3870
3860
38E0
38E0
30E0
70C0
71C0
71C0
61C0
E180
7380
7F00
3E00
ENDCHAR
STARTCHAR 0215
ENCODING 533
SWIDTH 495 0
DWIDTH 11 0
BBX 10 15 2 0
BITMAP
1900
1980
0DC0
0880
0000
7180
7380
6380
E380
E300
E300
C700
E700
FF00
FB00
ENDCHAR
STARTCHAR 0216
ENCODING 534
SWIDTH 495 0
DWIDTH 11 0
BBX 12 18 1 0
BITMAP
03C0
07E0
0660
0000
1870
3870
3860
38E0
38E0
30E0
70C0
71C0
71C0
61C0
E180
7380
7F00
3E00
ENDCHAR
STARTCHAR 0217
ENCODING 535
SWIDTH 495 0
DWIDTH 11 0
BBX 9 15 2 0
BITMAP
0700
0F80
1980
0000
0000
7180
7380
6380
E380
E300
E300
C700
E700
FF00
FB00
ENDCHAR
STARTCHAR 0218
ENCODING 536
SWIDTH 495 0
DWIDTH 11 0
BBX 11 18 1 -4
BITMAP
0FC0
1FE0
3C40
3800
3800
3C00
1F00
0F80
0380
01C0
0180
4380
FF80
FE00
0000
1800
7000
E000
ENDCHAR
STARTCHAR 0219
ENCODING 537
SWIDTH 495 0
DWIDTH 11 0
BBX 10 15 1 -4
BITMAP
0780
1FC0
3FC0
3800
3C00
1F00
0F80
0380
4380
FF80
FF00
0000
1800
7800
7000
ENDCHAR
STARTCHAR 021A
ENCODING 538
SWIDTH 495 0
DWIDTH 11 0
BBX 11 18 2 -4
BITMAP
7FE0
7FE0
7FE0
0E00
0E00
0E00
0C00
1C00
1C00
1C00
1800
3800
3800
3800
0000
3000
E000
C000
ENDCHAR
STARTCHAR 021B
ENCODING 539
SWIDTH 495 0
DWIDTH 11 0
BBX 9 18 3 -4
BITMAP
0400
1800
3800
3800
FF80
FF00
7000
7000
7000
6000
E000
E000
7E00
7E00
0000
3000
F000
E000
ENDCHAR
STARTCHAR 021C
ENCODING 540
SWIDTH 495 0
DWIDTH 11 0
BBX 13 18 -1 -4
BITMAP
07E0
0FF0
0C78
0038
0038
0070
00E0
0FC0
0FC0
01E0
00E0
0060
00E0
00E0
01C0
7FC0
7F00
F800
ENDCHAR
STARTCHAR 021D
ENCODING 541
SWIDTH 495 0
DWIDTH 11 0
BBX 11 15 0 -4
BITMAP
0700
1FC0
1FE0
00E0
00E0
03C0
0F80
0F80
03C0
01C0
01C0
0380
FF80
FE00
E000
ENDCHAR
STARTCHAR 021E
ENCODING 542
SWIDTH 495 0
DWIDTH 11 0
BBX 12 18 1 0
BITMAP
0660
03C0
0180
0100
1C70
1870
3860
38E0
38E0
30E0
7FE0
7FC0
71C0
61C0
E1C0
E180
E380
C380
ENDCHAR
STARTCHAR 021F
ENCODING 543
SWIDTH 495 0
DWIDTH 11 0
BBX 10 18 1 0
BITMAP
0D80
0700
0200
0000
1C00
1C00
1800
3B00
3FC0
3FC0
39C0
31C0
71C0
7180
7180
6380
E380
E380
ENDCHAR
STARTCHAR 0220
ENCODING 544
SWIDTH 495 0
DWIDTH 11 0
BBX 11 18 1 -4
BITMAP
1F80
1FC0
39E0
38E0
38E0
30E0
70C0
71C0
71C0
61C0
E1C0
E180
E380
C380
0380
0300
0700
0700
ENDCHAR
STARTCHAR 0221
ENCODING 545
SWIDTH 495 0
DWIDTH 11 0
BBX 10 19 1 -4
BITMAP
00C0
01C0
01C0
0180
0580
1F80
3F80
7300
E300
C300
C700
C700
E780
FFC0
7EC0
1CC0
3CC0
2780
0300
ENDCHAR
STARTCHAR 0222
ENCODING 546
SWIDTH 495 0
DWIDTH 11 0
BBX 11 14 1 0
BITMAP
0C60
1C60
18E0
38E0
38E0
1FC0
1F80
7FC0
71C0
E0C0
E1C0
E3C0
FF80
7F00
ENDCHAR
STARTCHAR 0223
ENCODING 547
SWIDTH 495 0
DWIDTH 11 0
BBX 12 15 1 0
BITMAP
1C70
1C70
1870
18E0
18E0
1FC0
1F80
3FC0
71C0
60C0
E1C0
E1C0
E380
7F80
3E00
ENDCHAR
STARTCHAR 0224
ENCODING 548
SWIDTH 495 0
DWIDTH 11 0
BBX 12 18 1 -4
BITMAP
1FF0
1FE0
00E0
01C0
0380
0700
0700
0E00
1C00
3800
7000
6000
FF80
FF80
0380
0300
1F00
1C00
ENDCHAR
STARTCHAR 0225
ENCODING 549
SWIDTH 495 0
DWIDTH 11 0
BBX 11 14 0 -4
BITMAP
1FE0
3FC0
0380
0700
0E00
1C00
3800
7000
7F80
FF80
0300
0300
1E00
1C00
ENDCHAR
STARTCHAR 0226
ENCODING 550
SWIDTH 495 0
DWIDTH 11 0
BBX 11 18 0 0
BITMAP
00C0
01C0
00C0
0000
01C0
03C0
03C0
06C0
06C0
0CC0
1CC0
1CC0
38C0
3FE0
7FE0
70E0
60E0
E0E0
ENDCHAR
STARTCHAR 0227
ENCODING 551
SWIDTH 495 0
DWIDTH 11 0
BBX 11 15 1 0
BITMAP
0180
0380
0380
0000
0780
1FE0
3FC0
71C0
71C0
61C0
E180
E380
7380
7F80
3D80
ENDCHAR
STARTCHAR 0228
ENCODING 552
SWIDTH 495 0
DWIDTH 11 0
BBX 12 18 1 -4
BITMAP
1FF0
1FE0
1FE0
1800
3800
3800
3F80
3F80
7000
7000
7000
6000
7F80
FF80
0800
0C00
3C00
3800
ENDCHAR
STARTCHAR 0229
ENCODING 553
SWIDTH 495 0
DWIDTH 11 0
BBX 10 15 2 -4
BITMAP
0F00
3F80
7BC0
61C0
E380
FF80
FE00
C000
E000
FF00
7F00
1800
1800
7800
7000
ENDCHAR
STARTCHAR 022A
ENCODING 554
SWIDTH 495 0
DWIDTH 11 0
BBX 11 18 1 0
BITMAP
03E0
0000
06E0
06E0
0000
07C0
1FC0
3CE0
38E0
70E0
70E0
70E0
60C0
61C0
E1C0
7380
7F00
3E00
ENDCHAR
STARTCHAR 022B
ENCODING 555
SWIDTH 495 0
DWIDTH 11 0
BBX 11 16 1 0
BITMAP
03E0
0000
06E0
06E0
0000
0700
1F80
3FC0
71C0
71C0
61C0
E1C0
E1C0
7380
7F00
3E00
ENDCHAR
STARTCHAR 022C
ENCODING 556
SWIDTH 495 0
DWIDTH 11 0
BBX 11 18 1 0
BITMAP
07E0
0000
07E0
0DC0
0000
07C0
1FC0
3CE0
38E0
70E0
70E0
70E0
60C0
61C0
E1C0
7380
7F00
3E00
ENDCHAR
STARTCHAR 022D
ENCODING 557
SWIDTH 495 0
DWIDTH 11 0
BBX 11 16 1 0
BITMAP
07E0
0000
0740
0FC0
0000
0700
1F80
3FC0
71C0
71C0
61C0
E1C0
E1C0
7380
7F00
3E00
ENDCHAR
STARTCHAR 022E
ENCODING 558
SWIDTH 495 0
DWIDTH 11 0
BBX 11 18 1 0
BITMAP
01C0
01C0
0180
0000
0780
1FC0
1CE0
38E0
30E0
70E0
70E0
60E0
60C0
E1C0
61C0
7380
7F00
3E00
ENDCHAR
STARTCHAR 022F
ENCODING 559
SWIDTH 495 0
DWIDTH 11 0
BBX 10 15 1 0
BITMAP
0380
0380
0380
0000
0700
1F80
3FC0
71C0
71C0
61C0
E1C0
E1C0
7380
7F00
3E00
ENDCHAR
STARTCHAR 0230
ENCODING 560
SWIDTH 495 0
DWIDTH 11 0
BBX 11 18 1 0
BITMAP
03E0
0000
0180
0180
0000
07C0
1FC0
3CE0
38E0
70E0
70E0
70E0
60C0
61C0
E1C0
7380
7F00
3E00
ENDCHAR
STARTCHAR 0231
ENCODING 561
SWIDTH 495 0
DWIDTH 11 0
BBX 11 16 1 0
BITMAP
07E0
0000
0300
0300
0000
0700
1F80
3FC0
71C0
71C0
61C0
E1C0
E1C0
7380
7F00
3E00
ENDCHAR
STARTCHAR 0232
ENCODING 562
SWIDTH 495 0
DWIDTH 11 0
BBX 11 17 3 0
BITMAP
1F80
0000
0000
E0E0
E1C0
6380
6380
6700
7600
7E00
3C00
3800
3800
3000
7000
7000
7000
ENDCHAR
STARTCHAR 0233
ENCODING 563
SWIDTH 495 0
DWIDTH 11 0
BBX 13 18 -1 -4
BITMAP
03F0
03F0
0000
0000
0C38
0C30
0E70
0E70
0EE0
0EE0
0FC0
0780
0780
0700
0E00
7E00
F800
7000
ENDCHAR
STARTCHAR 0234
ENCODING 564
SWIDTH 495 0
DWIDTH 11 0
BBX 10 19 0 -4
BITMAP
0F80
1F80
0380
0380
0300
0700
0700
0700
0600
0E00
0E00
0E00
0F80
1FC0
1CC0
3CC0
7DC0
CF80
0600
ENDCHAR
STARTCHAR 0235
ENCODING 565
SWIDTH 495 0
DWIDTH 11 0
BBX 10 15 1 -4
BITMAP
0E00
3F00
7F00
7300
6300
6300
6700
E700
C780
C7C0
CEC0
1CC0
3CC0
2780
0300
ENDCHAR
STARTCHAR 0236
ENCODING 566
SWIDTH 495 0
DWIDTH 11 0
BBX 12 18 0 -4
BITMAP
0080
0300
0700
0700
3FF0
3FF0
0E00
0E00
0E00
0C00
1C00
1F80
1FC0
1DC0
38C0
F980
DF80
0600
ENDCHAR
STARTCHAR 0237
ENCODING 567
SWIDTH 495 0
DWIDTH 11 0
BBX 10 14 0 -4
BITMAP
1FC0
1FC0
01C0
01C0
0180
0380
0380
0380
0300
0700
0700
FE00
FE00
7800
ENDCHAR
STARTCHAR 0238
ENCODING 568
SWIDTH 495 0
DWIDTH 11 0
BBX 11 15 1 0
BITMAP
0380
0300
0300
0300
1BC0
3FC0
77E0
6660
E660
CCE0
CCC0
CCC0
CDC0
FF80
7F00
ENDCHAR
STARTCHAR 0239
ENCODING 569
SWIDTH 495 0
DWIDTH 11 0
BBX 11 15 1 -4
BITMAP
0D80
3FC0
76E0
6660
6660
CCE0
CCC0
CCC0
CDC0
FF80
7F00
1800
1800
3800
3000
ENDCHAR
STARTCHAR 023A
ENCODING 570
SWIDTH 495 0
DWIDTH 11 0
BBX 12 17 0 -2
BITMAP
0030
01F0
03E0
07E0
06C0
0EC0
0DC0
1DC0
1BC0
3AC0
3FE0
7FE0
6CE0
ECE0
D8E0
1800
3000
ENDCHAR
STARTCHAR 023B
ENCODING 571
SWIDTH 495 0
DWIDTH 11 0
BBX 11 18 2 -2
BITMAP
0040
0060
0FC0
1FE0
3DC0
7380
7300
E700
E600
EE00
EC00
F800
F800
F100
7F80
7F00
6000
4000
ENDCHAR
STARTCHAR 023C
ENCODING 572
SWIDTH 495 0
DWIDTH 11 0
BBX 10 14 2 -2
BITMAP
0080
0780
1FC0
7F80
7200
E600
E400
CC00
E800
F900
FF00
7F00
2000
2000
ENDCHAR
STARTCHAR 023D
ENCODING 573
SWIDTH 495 0
DWIDTH 11 0
BBX 8 14 2 0
BITMAP
1C
18
38
38
38
30
FE
FE
70
60
60
E0
FF
FF
ENDCHAR
STARTCHAR 023E
ENCODING 574
SWIDTH 495 0
DWIDTH 11 0
BBX 14 15 0 -1
BITMAP
0004
1FFC
1FF8
3FF0
03E0
03C0
07C0
0780
0700
0600
0E00
1E00
3E00
6C00
DC00
ENDCHAR
STARTCHAR 023F
ENCODING 575
SWIDTH 495 0
DWIDTH 11 0
BBX 10 15 1 -4
BITMAP
0780
1FC0
3FC0
3800
3C00
1F00
0F80
0380
4380
FF80
FE00
7000
3800
1E00
0E00
ENDCHAR
STARTCHAR 0240
ENCODING 576
SWIDTH 495 0
DWIDTH 11 0
BBX 11 14 1 -4
BITMAP
1FE0
3FC0
0380
0700
0E00
1C00
3800
7000
F000
F800
1C00
0F80
0F80
0300
ENDCHAR
STARTCHAR 0241
ENCODING 577
SWIDTH 495 0
DWIDTH 11 0
BBX 9 14 3 0
BITMAP
3F00
7F80
6780
0380
0380
0700
1E00
3C00
7000
7000
E000
E000
E000
C000
ENDCHAR
STARTCHAR 0242
ENCODING 578
SWIDTH 495 0
DWIDTH 11 0
BBX 8 11 3 0
BITMAP
1C
7F
7F
07
07
0E
3C
70
70
60
E0
ENDCHAR
STARTCHAR 0243
ENCODING 579
SWIDTH 495 0
DWIDTH 11 0
BBX 11 14 1 0
BITMAP
1F80
1FC0
1DE0
18E0
38E0
39C0
3F80
3F80
31C0
F8C0
F9C0
63C0
7F80
FE00
ENDCHAR
STARTCHAR 0244
ENCODING 580
SWIDTH 495 0
DWIDTH 11 0
BBX 12 14 1 0
BITMAP
1C70
1860
38E0
38E0
38E0
FFF0
FFE0
FFE0
71C0
7180
6380
7380
7F00
3E00
ENDCHAR
STARTCHAR 0245
ENCODING 581
SWIDTH 495 0
DWIDTH 11 0
BBX 11 14 0 0
BITMAP
01C0
03C0
03C0
06C0
0EC0
0CC0
1CC0
1CC0
38C0
38E0
70E0
70E0
60E0
E0E0
ENDCHAR
STARTCHAR 0246
ENCODING 582
SWIDTH 495 0
DWIDTH 11 0
BBX 13 17 1 -2
BITMAP
0018
1FF0
1FF0
1FE0
38C0
38C0
3980
3FC0
7FC0
7600
7600
6C00
E800
FF80
FF80
3000
6000
ENDCHAR
STARTCHAR 0247
ENCODING 583
SWIDTH 495 0
DWIDTH 11 0
BBX 10 14 2 -2
BITMAP
0100
0F00
3F80
7FC0
67C0
ED80
FF80
FE00
D800
D100
FF00
7F00
2000
2000
ENDCHAR
STARTCHAR 0248
ENCODING 584
SWIDTH 495 0
DWIDTH 11 0
BBX 11 14 1 0
BITMAP
0FE0
0FE0
0FC0
01C0
01C0
01C0
0FE0
0FE0
0380
0380
0380
4700
FF00
7E00
ENDCHAR
STARTCHAR 0249
ENCODING 585
SWIDTH 495 0
DWIDTH 11 0
BBX 11 19 0 -4
BITMAP
00C0
01E0
01C0
0000
0000
1FC0
1FC0
01C0
01C0
3FE0
3FC0
0380
0380
0300
0700
0700
FE00
FE00
7800
ENDCHAR
STARTCHAR 024A
ENCODING 586
SWIDTH 495 0
DWIDTH 11 0
BBX 10 18 2 -4
BITMAP
0F00
3F80
3B80
71C0
61C0
E1C0
E180
C180
C380
C380
C700
E700
FF00
7F00
0700
0780
0780
0380
ENDCHAR
STARTCHAR 024B
ENCODING 587
SWIDTH 495 0
DWIDTH 11 0
BBX 9 15 2 -4
BITMAP
0F00
3F80
7F80
7380
E380
C380
C300
C700
E700
FF00
7E00
0E00
0F80
0F00
0300
ENDCHAR
STARTCHAR 024C
ENCODING 588
SWIDTH 495 0
DWIDTH 11 0
BBX 11 14 1 0
BITMAP
0F80
1FC0
1DE0
1CE0
18E0
38E0
39C0
FF80
FF00
3300
7300
7380
6180
6180
ENDCHAR
STARTCHAR 024D
ENCODING 589
SWIDTH 495 0
DWIDTH 11 0
BBX 11 11 1 0
BITMAP
03C0
1FE0
1FC0
1800
3800
7F00
FF00
3000
7000
7000
7000
ENDCHAR
STARTCHAR 024E
ENCODING 590
SWIDTH 495 0
DWIDTH 11 0
BBX 11 14 2 0
BITMAP
7060
70E0
30C0
FFE0
FFE0
3B00
3F00
1E00
1C00
1C00
1800
3800
3800
3800
ENDCHAR
STARTCHAR 024F
ENCODING 591
SWIDTH 495 0
DWIDTH 11 0
BBX 13 14 -1 -4
BITMAP
0E38
0E30
0E70
1FF8
3FF8
0EE0
0FC0
0780
0780
0700
0E00
7E00
F800
7000
ENDCHAR
STARTCHAR 0292
ENCODING 658
SWIDTH 495 0
DWIDTH 11 0
BBX 11 14 0 -4
BITMAP
1FE0
1FE0
01C0
0380
0700
0E00
0F80
0380
01C0
01C0
0380
7F80
FF00
3800
ENDCHAR
STARTCHAR 02BC
ENCODING 700
SWIDTH 495 0
DWIDTH 11 0
BBX 3 4 6 11
BITMAP
60
60
E0
C0
ENDCHAR
STARTCHAR 02C6
ENCODING 710
SWIDTH 495 0
DWIDTH 11 0
BBX 6 3 5 11
BITMAP
10
78
EC
ENDCHAR
STARTCHAR 02C7
ENCODING 711
SWIDTH 495 0
DWIDTH 11 0
BBX 5 3 6 11
BITMAP
D8
F8
60
ENDCHAR
STARTCHAR 02C9
ENCODING 713
SWIDTH 495 0
DWIDTH 11 0
BBX 6 2 5 12
BITMAP
FC
FC
ENDCHAR
STARTCHAR 02D8
ENCODING 728
SWIDTH 495 0
DWIDTH 11 0
BBX 7 3 5 12
BITMAP
CE
7C
78
ENDCHAR
STARTCHAR 02D9
ENCODING 729
SWIDTH 495 0
DWIDTH 11 0
BBX 3 3 7 12
BITMAP
C0
E0
C0
ENDCHAR
STARTCHAR 02DA
ENCODING 730
SWIDTH 495 0
DWIDTH 11 0
BBX 5 4 6 12
BITMAP
70
D8
98
F0
ENDCHAR
STARTCHAR 02DB
ENCODING 731
SWIDTH 495 0
DWIDTH 11 0
BBX 4 4 2 -4
BITMAP
30
60
F0
70
ENDCHAR
STARTCHAR 02DC
ENCODING 732
SWIDTH 495 0
DWIDTH 11 0
BBX 6 3 5 12
BITMAP
64
FC
9C
ENDCHAR
STARTCHAR 02DD
ENCODING 733
SWIDTH 495 0
DWIDTH 11 0
BBX 9 4 4 11
BITMAP
3300
7780
EE00
0400
ENDCHAR
STARTCHAR 0311
ENCODING 785
SWIDTH 495 0
DWIDTH 11 0
BBX 6 3 5 12
BITMAP
78
FC
CC
ENDCHAR
STARTCHAR 0384
ENCODING 900
SWIDTH 495 0
DWIDTH 11 0
BBX 4 5 6 11
BITMAP
30
30
60
C0
40
ENDCHAR
STARTCHAR 0385
ENCODING 901
SWIDTH 495 0
DWIDTH 11 0
BBX 10 4 3 12
BITMAP
0400
67C0
EDC0
6980
ENDCHAR
STARTCHAR 0386
ENCODING 902
SWIDTH 495 0
DWIDTH 11 0
BBX 11 15 0 0
BITMAP
1000
1DC0
1BC0
3BC0
36C0
06C0
0CC0
1CC0
1CC0
38C0
3FE0
7FE0
70E0
60E0
E0E0
ENDCHAR
STARTCHAR 0388
ENCODING 904
SWIDTH 495 0
DWIDTH 11 0
BBX 14 15 -1 0
BITMAP
2000
37FC
77F8
67F8
E600
0E00
0E00
0FE0
0FE0
1C00
1C00
1C00
1800
1FE0
3FE0
ENDCHAR
STARTCHAR 0389
ENCODING 905
SWIDTH 495 0
DWIDTH 11 0
BBX 14 14 -1 1
BITMAP
771C
661C
EE18
CE38
0E38
0C38
1FF8
1FF0
1C70
1870
3870
3860
38E0
30E0
ENDCHAR
STARTCHAR 038A
ENCODING 906
SWIDTH 495 0
DWIDTH 11 0
BBX 14 14 -1 1
BITMAP
77FC
67FC
67F8
C1C0
01C0
01C0
0180
0380
0380
0380
0300
0700
3FE0
3FE0
ENDCHAR
STARTCHAR 038C
ENCODING 908
SWIDTH 495 0
DWIDTH 11 0
BBX 12 14 0 1
BITMAP
73C0
6FE0
EE70
DC70
1870
3870
3870
3070
3060
70E0
30E0
39C0
3F80
1F00
ENDCHAR
STARTCHAR 038E
ENCODING 910
SWIDTH 495 0
DWIDTH 11 0
BBX 16 14 -2 1
BITMAP
3707
770E
631C
E31C
0338
03B0
03F0
01E0
01C0
01C0
0180
0380
0380
0380
ENDCHAR
STARTCHAR 038F
ENCODING 911
SWIDTH 495 0
DWIDTH 11 0
BBX 12 15 0 0
BITMAP
4000
73C0
EFF0
DE70
DC70
3830
3870
3070
3070
3060
30E0
30C0
3980
FBE0
FBE0
ENDCHAR
STARTCHAR 0390
ENCODING 912
SWIDTH 495 0
DWIDTH 11 0
BBX 10 16 3 0
BITMAP
0400
67C0
EDC0
6980
0000
0000
F800
F800
3800
3800
3000
7000
7000
7000
7E00
3E00
ENDCHAR
STARTCHAR 0391
ENCODING 913
SWIDTH 495 0
DWIDTH 11 0
BBX 11 14 0 0
BITMAP
01C0
03C0
03C0
06C0
06C0
0CC0
1CC0
1CC0
38C0
3FE0
7FE0
70E0
60E0
E0E0
ENDCHAR
STARTCHAR 0392
ENCODING 914
SWIDTH 495 0
DWIDTH 11 0
BBX 11 14 1 0
BITMAP
1F80
1FC0
19E0
38E0
38E0
39C0
3F80
7F80
71C0
70C0
61C0
E3C0
FF80
FE00
ENDCHAR
STARTCHAR 0393
ENCODING 915
SWIDTH 495 0
DWIDTH 11 0
BBX 13 14 0 0
BITMAP
03F8
07F8
07F8
0700
0600
0E00
0E00
0E00
0C00
1C00
1C00
1C00
7F00
FF00
ENDCHAR
STARTCHAR 0394
ENCODING 916
SWIDTH 495 0
DWIDTH 11 0
BBX 11 14 0 0
BITMAP
01C0
03C0
03C0
06C0
0EC0
0CC0
1CC0
18C0
38C0
38C0
70E0
70E0
7FE0
FFE0
ENDCHAR
STARTCHAR 0395
ENCODING 917
SWIDTH 495 0
DWIDTH 11 0
BBX 12 14 1 0
BITMAP
1FF0
1FE0
1FE0
1800
3800
3800
3F80
3F80
7000
7000
7000
6000
7F80
FF80
ENDCHAR
STARTCHAR 0396
ENCODING 918
SWIDTH 495 0
DWIDTH 11 0
BBX 12 14 1 0
BITMAP
1FF0
1FE0
00E0
01C0
0380
0700
0700
0E00
1C00
3800
7000
6000
FF80
FF80
ENDCHAR
STARTCHAR 0397
ENCODING 919
SWIDTH 495 0
DWIDTH 11 0
BBX 12 14 1 0
BITMAP
1C70
1870
3860
38E0
38E0
30E0
7FE0
7FC0
71C0
61C0
E1C0
E180
E380
C380
ENDCHAR
STARTCHAR 0398
ENCODING 920
SWIDTH 495 0
DWIDTH 11 0
BBX 10 14 2 0
BITMAP
0F00
3F80
39C0
71C0
61C0
E1C0
DFC0
DDC0
C180
C380
C380
E700
FE00
7C00
ENDCHAR
STARTCHAR 0399
ENCODING 921
SWIDTH 495 0
DWIDTH 11 0
BBX 12 14 1 0
BITMAP
1FF0
1FF0
1FE0
0700
0700
0700
0600
0E00
0E00
0E00
0C00
1C00
FF80
FF80
ENDCHAR
STARTCHAR 039A
ENCODING 922
SWIDTH 495 0
DWIDTH 11 0
BBX 12 14 1 0
BITMAP
1C70
18E0
38E0
39C0
3B80
3700
7E00
7E00
7700
7700
6380
E380
E380
E1C0
ENDCHAR
STARTCHAR 039B
ENCODING 923
SWIDTH 495 0
DWIDTH 11 0
BBX 11 14 0 0
BITMAP
01C0
03C0
03C0
06C0
0EC0
0CC0
1CC0
1CC0
38C0
38E0
70E0
70E0
60E0
E0E0
ENDCHAR
STARTCHAR 039C
ENCODING 924
SWIDTH 495 0
DWIDTH 11 0
BBX 13 14 0 0
BITMAP
0C38
0E38
1E70
1E70
1EF0
3EB0
37B0
3770
3760
7060
6060
60E0
60E0
E0C0
ENDCHAR
STARTCHAR 039D
ENCODING 925
SWIDTH 495 0
DWIDTH 11 0
BBX 12 14 1 0
BITMAP
1830
1C70
3C60
3C60
3C60
36E0
76E0
76C0
66C0
63C0
E3C0
E380
C380
C380
ENDCHAR
STARTCHAR 039E
ENCODING 926
SWIDTH 495 0
DWIDTH 11 0
BBX 12 14 1 0
BITMAP
1FF0
3FF0
3FF0
0000
0000
0000
3FC0
3FC0
0000
0000
0000
0000
FF80
FF80
ENDCHAR
STARTCHAR 039F
ENCODING 927
SWIDTH 495 0
DWIDTH 11 0
BBX 11 14 1 0
BITMAP
0780
1FC0
1CE0
38E0
30E0
70E0
70E0
60E0
60C0
E1C0
61C0
7380
7F00
3E00
ENDCHAR
STARTCHAR 03A0
ENCODING 928
SWIDTH 495 0
DWIDTH 11 0
BBX 12 14 1 0
BITMAP
1FF0
1FF0
3FE0
38E0
38E0
30E0
70C0
70C0
71C0
61C0
E1C0
E180
E380
C380
ENDCHAR
STARTCHAR 03A1
ENCODING 929
SWIDTH 495 0
DWIDTH 11 0
BBX 11 14 1 0
BITMAP
1F80
1FE0
1DE0
38E0
3860
38E0
31E0
7FC0
7F80
7000
6000
E000
E000
E000
ENDCHAR
STARTCHAR 03A3
ENCODING 931
SWIDTH 495 0
DWIDTH 11 0
BBX 12 14 1 0
BITMAP
1FF0
1FF0
1FF0
1C00
0E00
0600
0700
0700
0E00
1C00
3800
F000
FF80
FF80
ENDCHAR
STARTCHAR 03A4
ENCODING 932
SWIDTH 495 0
DWIDTH 11 0
BBX 10 14 3 0
BITMAP
FFC0
FFC0
FFC0
1C00
1C00
1C00
1800
3800
3800
3800
3000
7000
7000
7000
ENDCHAR
STARTCHAR 03A5
ENCODING 933
SWIDTH 495 0
DWIDTH 11 0
BBX 11 14 3 0
BITMAP
E0E0
E1C0
6380
6380
6700
7600
7E00
3C00
3800
3800
3000
7000
7000
7000
ENDCHAR
STARTCHAR 03A6
ENCODING 934
SWIDTH 495 0
DWIDTH 11 0
BBX 10 15 2 0
BITMAP
0700
0600
1F80
3FC0
66C0
ECC0
CCC0
CCC0
CCC0
DD80
DB80
FF00
7E00
3800
3000
ENDCHAR
STARTCHAR 03A7
ENCODING 935
SWIDTH 495 0
DWIDTH 11 0
BBX 13 14 0 0
BITMAP
1C18
0E38
0E70
06E0
07C0
07C0
0380
0780
0F80
1DC0
1DC0
39C0
70C0
F0C0
ENDCHAR
STARTCHAR 03A8
ENCODING 936
SWIDTH 495 0
DWIDTH 11 0
BBX 11 14 2 0
BITMAP
7060
6060
6060
66E0
ECC0
CCC0
CCC0
CDC0
FF80
7F00
3E00
1800
3800
3000
ENDCHAR
STARTCHAR 03A9
ENCODING 937
SWIDTH 495 0
DWIDTH 11 0
BBX 12 14 0 0
BITMAP
03C0
0FF0
1E70
1C70
3830
3870
3070
3070
3060
30E0
30C0
3980
FBE0
FBE0
ENDCHAR
STARTCHAR 03AA
ENCODING 938
SWIDTH 495 0
DWIDTH 11 0
BBX 12 18 1 0
BITMAP
0660
0E70
0660
0000
1FF0
1FF0
1FE0
0700
0700
0700
0600
0E00
0E00
0E00
0C00
1C00
FF80
FF80
ENDCHAR
STARTCHAR 03AB
ENCODING 939
SWIDTH 495 0
DWIDTH 11 0
BBX 11 18 3 0
BITMAP
1980
39C0
1980
0000
E0E0
E1C0
6380
6380
6700
7600
7E00
3C00
3800
3800
3000
7000
7000
7000
ENDCHAR
STARTCHAR 03AC
ENCODING 940
SWIDTH 495 0
DWIDTH 11 0
BBX 11 16 1 0
BITMAP
0040
00E0
01C0
0380
0100
0780
1FC0
3FC0
71C0
71C0
61C0
E180
E380
7380
7FC0
3D80
ENDCHAR
STARTCHAR 03AD
ENCODING 941
SWIDTH 495 0
DWIDTH 11 0
BBX 10 16 2 0
BITMAP
0080
01C0
0380
0700
0200
0F00
3F80
7F80
6000
7000
3E00
FE00
C000
E000
FF00
7F00
ENDCHAR
STARTCHAR 03AE
ENCODING 942
SWIDTH 495 0
DWIDTH 11 0
BBX 11 20 1 -4
BITMAP
0040
00E0
01C0
0380
0100
0F00
3F80
3FC0
39C0
31C0
71C0
7180
7180
6380
E380
E380
0300
0700
0700
0700
ENDCHAR
STARTCHAR 03AF
ENCODING 943
SWIDTH 495 0
DWIDTH 11 0
BBX 8 16 3 0
BITMAP
02
07
0E
1C
00
00
F8
F8
38
38
30
70
70
70
7E
3E
ENDCHAR
STARTCHAR 03B0
ENCODING 944
SWIDTH 495 0
DWIDTH 11 0
BBX 11 16 2 0
BITMAP
0200
33E0
76E0
34C0
0000
0000
71C0
7180
6380
E380
E380
E300
E700
E700
FE00
7C00
ENDCHAR
STARTCHAR 03B1
ENCODING 945
SWIDTH 495 0
DWIDTH 11 0
BBX 10 11 1 0
BITMAP
0780
1FC0
3FC0
71C0
71C0
61C0
E180
E380
7380
7FC0
3D80
ENDCHAR
STARTCHAR 03B2
ENCODING 946
SWIDTH 495 0
DWIDTH 11 0
BBX 12 19 0 -4
BITMAP
07E0
0FF0
0E70
1C70
1C60
1CE0
1BC0
3BC0
38E0
38E0
30E0
70E0
71E0
7FC0
7F80
6000
E000
E000
E000
ENDCHAR
STARTCHAR 03B3
ENCODING 947
SWIDTH 495 0
DWIDTH 11 0
BBX 9 14 3 -4
BITMAP
C380
E380
E700
E700
E600
EE00
FC00
F800
F800
F000
E000
E000
E000
E000
ENDCHAR
STARTCHAR 03B4
ENCODING 948
SWIDTH 495 0
DWIDTH 11 0
BBX 10 15 2 0
BITMAP
0FC0
1FC0
3800
1800
1C00
1E00
7F00
7380
E380
C380
C380
C380
E700
FF00
7C00
ENDCHAR
STARTCHAR 03B5
ENCODING 949
SWIDTH 495 0
DWIDTH 11 0
BBX 9 11 2 0
BITMAP
0F00
3F80
7F80
6000
7000
3E00
FE00
C000
E000
FF00
7F00
ENDCHAR
STARTCHAR 03B6
ENCODING 950
SWIDTH 495 0
DWIDTH 11 0
BBX 11 19 2 -4
BITMAP
1FE0
1FE0
01C0
0780
0E00
1C00
3800
3000
7000
E000
E000
E000
F800
7E00
1F00
0700
0300
0700
0200
ENDCHAR
STARTCHAR 03B7
ENCODING 951
SWIDTH 495 0
DWIDTH 11 0
BBX 10 15 1 -4
BITMAP
0F00
3F80
3FC0
39C0
31C0
71C0
7180
7180
6380
E380
E380
0300
0700
0700
0700
ENDCHAR
STARTCHAR 03B8
ENCODING 952
SWIDTH 495 0
DWIDTH 11 0
BBX 10 15 2 0
BITMAP
0F80
1FC0
39C0
71C0
70C0
E1C0
FFC0
FFC0
FFC0
C180
C380
C380
E700
FE00
7C00
ENDCHAR
STARTCHAR 03B9
ENCODING 953
SWIDTH 495 0
DWIDTH 11 0
BBX 7 10 3 0
BITMAP
F8
F8
38
38
30
70
70
70
7E
3E
ENDCHAR
STARTCHAR 03BA
ENCODING 954
SWIDTH 495 0
DWIDTH 11 0
BBX 11 10 1 0
BITMAP
38E0
39C0
3B80
3700
3E00
7600
7700
7380
6380
E380
ENDCHAR
STARTCHAR 03BB
ENCODING 955
SWIDTH 495 0
DWIDTH 11 0
BBX 9 15 1 0
BITMAP
1E00
1E00
0700
0700
0300
0700
0F80
1F80
1B80
3B80
7380
7380
E380
E380
C380
ENDCHAR
STARTCHAR 03BC
ENCODING 956
SWIDTH 495 0
DWIDTH 11 0
BBX 11 14 0 -4
BITMAP
1C60
1C60
18E0
38E0
38E0
38C0
39C0
79C0
7FE0
7EC0
6000
6000
E000
E000
ENDCHAR
STARTCHAR 03BD
ENCODING 957
SWIDTH 495 0
DWIDTH 11 0
BBX 10 10 2 0
BITMAP
E1C0
E1C0
6380
6380
7700
7600
7E00
7C00
3800
3800
ENDCHAR
STARTCHAR 03BE
ENCODING 958
SWIDTH 495 0
DWIDTH 11 0
BBX 11 18 2 -4
BITMAP
0FE0
1FC0
1C00
3800
3800
1C00
0F80
3F80
7000
E000
E000
E000
F000
7E00
3F00
0700
0700
0E00
ENDCHAR
STARTCHAR 03BF
ENCODING 959
SWIDTH 495 0
DWIDTH 11 0
BBX 10 11 1 0
BITMAP
0700
1F80
3FC0
71C0
71C0
61C0
E1C0
E1C0
7380
7F00
3E00
ENDCHAR
STARTCHAR 03C0
ENCODING 960
SWIDTH 495 0
DWIDTH 11 0
BBX 11 10 1 0
BITMAP
3FE0
3FC0
39C0
31C0
71C0
7180
7380
6380
E380
E300
ENDCHAR
STARTCHAR 03C1
ENCODING 961
SWIDTH 495 0
DWIDTH 11 0
BBX 11 15 0 -4
BITMAP
0380
0FC0
1FE0
1CE0
38E0
38E0
38E0
30E0
71C0
7F80
7F00
6000
E000
E000
E000
ENDCHAR
STARTCHAR 03C2
ENCODING 962
SWIDTH 495 0
DWIDTH 11 0
BBX 10 15 2 -4
BITMAP
0700
1FC0
3F80
7000
E000
E000
E000
E000
F000
7E00
3F00
0700
0700
0E00
0400
ENDCHAR
STARTCHAR 03C3
ENCODING 963
SWIDTH 495 0
DWIDTH 11 0
BBX 12 10 1 0
BITMAP
1FF0
3FE0
79C0
71C0
61C0
E1C0
E380
7380
7F00
3E00
ENDCHAR
STARTCHAR 03C4
ENCODING 964
SWIDTH 495 0
DWIDTH 11 0
BBX 10 10 2 0
BITMAP
FFC0
FFC0
3800
3800
3800
3000
3000
7000
3F00
3F00
ENDCHAR
STARTCHAR 03C5
ENCODING 965
SWIDTH 495 0
DWIDTH 11 0
BBX 10 10 2 0
BITMAP
71C0
7180
6380
E380
E380
E300
E700
E700
FE00
7C00
ENDCHAR
STARTCHAR 03C6
ENCODING 966
SWIDTH 495 0
DWIDTH 11 0
BBX 11 15 1 -4
BITMAP
0700
1FC0
3EC0
76E0
E6E0
EEE0
CCE0
CCC0
EDC0
7F80
3E00
1800
1800
1800
3000
ENDCHAR
STARTCHAR 03C7
ENCODING 967
SWIDTH 495 0
DWIDTH 11 0
BBX 11 10 1 0
BITMAP
38E0
39C0
1F80
1F00
0E00
1E00
3F00
7300
7380
E380
ENDCHAR
STARTCHAR 03C8
ENCODING 968
SWIDTH 495 0
DWIDTH 11 0
BBX 11 14 1 -4
BITMAP
3060
6060
6660
66C0
6EC0
ECC0
CDC0
ED80
7F80
7F00
1800
1800
3800
3000
ENDCHAR
STARTCHAR 03C9
ENCODING 969
SWIDTH 495 0
DWIDTH 11 0
BBX 11 11 1 0
BITMAP
1040
38C0
30C0
60E0
60E0
EEE0
CCC0
CCC0
DDC0
FFC0
F780
ENDCHAR
STARTCHAR 03CA
ENCODING 970
SWIDTH 495 0
DWIDTH 11 0
BBX 9 15 3 0
BITMAP
3180
3B80
3380
0000
0000
F800
F800
3800
3800
3000
7000
7000
7000
7E00
3E00
ENDCHAR
STARTCHAR 03CB
ENCODING 971
SWIDTH 495 0
DWIDTH 11 0
BBX 10 15 2 0
BITMAP
1980
39C0
3980
0000
0000
71C0
7180
6380
E380
E380
E300
E700
E700
FE00
7C00
ENDCHAR
STARTCHAR 03CC
ENCODING 972
SWIDTH 495 0
DWIDTH 11 0
BBX 11 16 1 0
BITMAP
0040
00E0
01C0
0380
0100
0700
1F80
3FC0
71C0
71C0
61C0
E1C0
E1C0
7380
7F00
3E00
ENDCHAR
STARTCHAR 03CD
ENCODING 973
SWIDTH 495 0
DWIDTH 11 0
BBX 10 16 2 0
BITMAP
0100
0380
0700
0E00
0000
0000
71C0
7180
6380
E380
E380
E300
E700
E700
FE00
7C00
ENDCHAR
STARTCHAR 03CE
ENCODING 974
SWIDTH 495 0
DWIDTH 11 0
BBX 11 16 1 0
BITMAP
0080
01C0
0380
0700
0200
1040
38C0
30C0
60E0
60E0
EEE0
CCC0
CCC0
DDC0
FFC0
F780
ENDCHAR
STARTCHAR 0400
ENCODING 1024
SWIDTH 495 0
DWIDTH 11 0
BBX 12 18 1 0
BITMAP
0300
0780
01C0
0000
1FF0
1FE0
1FE0
1800
3800
3800
3F80
3F80
7000
7000
7000
6000
7F80
FF80
ENDCHAR
STARTCHAR 0401
ENCODING 1025
SWIDTH 495 0
DWIDTH 11 0
BBX 12 18 1 0
BITMAP
0670
0E70
0660
0000
1FF0
1FE0
1FE0
1800
3800
3800
3F80
3F80
7000
7000
7000
6000
7F80
FF80
ENDCHAR
STARTCHAR 0402
ENCODING 1026
SWIDTH 495 0
DWIDTH 11 0
BBX 9 14 2 0
BITMAP
7F80
7F80
7F80
3800
3800
3600
7F80
7F80
7180
6180
E380
E380
EF00
CE00
ENDCHAR
STARTCHAR 0403
ENCODING 1027
SWIDTH 495 0
DWIDTH 11 0
BBX 13 18 0 0
BITMAP
0030
0078
00E0
0000
03F8
07F8
07F8
0700
0600
0E00
0E00
0E00
0C00
1C00
1C00
1C00
7F00
FF00
ENDCHAR
STARTCHAR 0404
ENCODING 1028
SWIDTH 495 0
DWIDTH 11 0
BBX 10 14 2 0
BITMAP
07C0
1FC0
3CC0
7800
7000
6000
FF00
FE00
E000
E000
E000
F100
7F00
3F00
ENDCHAR
STARTCHAR 0405
ENCODING 1029
SWIDTH 495 0
DWIDTH 11 0
BBX 11 14 1 0
BITMAP
0FC0
1FE0
3C40
3800
3800
3C00
1F00
0F80
0380
01C0
0180
4380
FF80
FE00
ENDCHAR
STARTCHAR 0406
ENCODING 1030
SWIDTH 495 0
DWIDTH 11 0
BBX 12 14 1 0
BITMAP
1FF0
1FF0
1FE0
0700
0700
0700
0600
0E00
0E00
0E00
0C00
1C00
FF80
FF80
ENDCHAR
STARTCHAR 0407
ENCODING 1031
SWIDTH 495 0
DWIDTH 11 0
BBX 12 18 1 0
BITMAP
0670
0E70
0660
0000
1FF0
1FF0
1FE0
0700
0700
0700
0600
0E00
0E00
0E00
0C00
1C00
FF80
FF80
ENDCHAR
STARTCHAR 0408
ENCODING 1032
SWIDTH 495 0
DWIDTH 11 0
BBX 11 14 1 0
BITMAP
0FE0
0FE0
0FE0
00E0
00C0
01C0
01C0
01C0
0180
0380
0380
4780
FF00
7E00
ENDCHAR
STARTCHAR 0409
ENCODING 1033
SWIDTH 495 0
DWIDTH 11 0
BBX 12 14 0 0
BITMAP
0FC0
0F80
0D80
0D80
1980
1BC0
1BE0
1B70
3330
3330
3660
6660
E7C0
C780
ENDCHAR
STARTCHAR 040A
ENCODING 1034
SWIDTH 495 0
DWIDTH 11 0
BBX 12 14 0 0
BITMAP
0CC0
1980
1980
1980
1980
3FC0
3FE0
3370
3330
6670
6660
6660
67C0
CF80
ENDCHAR
STARTCHAR 040B
ENCODING 1035
SWIDTH 495 0
DWIDTH 11 0
BBX 9 14 2 0
BITMAP
7F80
7F80
7F80
3800
3800
3600
3F80
7F80
7380
7380
6380
E380
E300
E700
ENDCHAR
STARTCHAR 040C
ENCODING 1036
SWIDTH 495 0
DWIDTH 11 0
BBX 12 18 1 0
BITMAP
00C0
01C0
0380
0000
1C70
18E0
38E0
39C0
3B80
3700
7E00
7E00
7700
7700
6380
E380
E380
E1C0
ENDCHAR
STARTCHAR 040D
ENCODING 1037
SWIDTH 495 0
DWIDTH 11 0
BBX 12 18 1 0
BITMAP
0200
0780
0380
0080
1870
1870
38E0
39E0
33E0
33E0
76E0
7CC0
6CC0
79C0
F1C0
F180
E180
C380
ENDCHAR
STARTCHAR 040E
ENCODING 1038
SWIDTH 495 0
DWIDTH 11 0
BBX 14 18 0 0
BITMAP
0730
03F0
03E0
0000
1C1C
1C38
1C38
0C70
0E60
0EE0
0FC0
07C0
0780
0700
0700
0E00
7C00
F800
ENDCHAR
STARTCHAR 040F
ENCODING 1039
SWIDTH 495 0
DWIDTH 11 0
BBX 12 18 1 -4
BITMAP
1C70
1870
3860
38E0
38E0
30E0
70C0
71C0
71C0
61C0
E180
E180
FF80
FF80
1800
1800
3800
3800
ENDCHAR
STARTCHAR 0410
ENCODING 1040
SWIDTH 495 0
DWIDTH 11 0
BBX 11 14 0 0
BITMAP
01C0
03C0
03C0
06C0
06C0
0CC0
1CC0
1CC0
38C0
3FE0
7FE0
70E0
60E0
E0E0
ENDCHAR
STARTCHAR 0411
ENCODING 1041
SWIDTH 495 0
DWIDTH 11 0
BBX 11 14 1 0
BITMAP
1FE0
1FC0
3FC0
3800
3800
3F00
7F80
73C0
71C0
61C0
61C0
E380
FF80
FE00
ENDCHAR
STARTCHAR 0412
ENCODING 1042
SWIDTH 495 0
DWIDTH 11 0
BBX 11 14 1 0
BITMAP
1F80
1FC0
19E0
38E0
38E0
39C0
3F80
7F80
71C0
70C0
61C0
E3C0
FF80
FE00
ENDCHAR
STARTCHAR 0413
ENCODING 1043
SWIDTH 495 0
DWIDTH 11 0
BBX 13 14 0 0
BITMAP
03F8
07F8
07F8
0700
0600
0E00
0E00
0E00
0C00
1C00
1C00
1C00
7F00
FF00
ENDCHAR
STARTCHAR 0414
ENCODING 1044
SWIDTH 495 0
DWIDTH 11 0
BBX 13 18 -1 -4
BITMAP
01F8
03F8
0338
0338
0338
0730
0670
0670
0E70
0C60
1CE0
18E0
7FE0
7FE0
6060
60E0
E0E0
E0C0
ENDCHAR
STARTCHAR 0415
ENCODING 1045
SWIDTH 495 0
DWIDTH 11 0
BBX 12 14 1 0
BITMAP
1FF0
1FE0
1FE0
1800
3800
3800
3F80
3F80
7000
7000
7000
6000
7F80
FF80
ENDCHAR
STARTCHAR 0416
ENCODING 1046
SWIDTH 495 0
DWIDTH 11 0
BBX 14 14 0 0
BITMAP
198C
1998
0DB8
0DB0
0FE0
0FE0
0FC0
0FC0
1FC0
36C0
36C0
66E0
EEE0
CCE0
ENDCHAR
STARTCHAR 0417
ENCODING 1047
SWIDTH 495 0
DWIDTH 11 0
BBX 11 14 1 0
BITMAP
1F80
1FC0
19E0
00E0
00C0
03C0
1F00
1F80
01C0
01C0
01C0
8380
FF80
FE00
ENDCHAR
STARTCHAR 0418
ENCODING 1048
SWIDTH 495 0
DWIDTH 11 0
BBX 12 14 1 0
BITMAP
1870
1870
38E0
39E0
33E0
33E0
76E0
7CC0
6CC0
79C0
F1C0
F180
E180
C380
ENDCHAR
STARTCHAR 0419
ENCODING 1049
SWIDTH 495 0
DWIDTH 11 0
BBX 12 18 1 0
BITMAP
0670
07E0
03C0
0000
1870
1870
38E0
39E0
33E0
33E0
76E0
7CC0
6CC0
79C0
F1C0
F180
E180
C380
ENDCHAR
STARTCHAR 041A
ENCODING 1050
SWIDTH 495 0
DWIDTH 11 0
BBX 12 14 1 0
BITMAP
1C70
18E0
38E0
39C0
3B80
3700
7E00
7E00
7700
7700
6380
E380
E380
E1C0
ENDCHAR
STARTCHAR 041B
ENCODING 1051
SWIDTH 495 0
DWIDTH 11 0
BBX 13 14 0 0
BITMAP
03F8
03F8
07F8
0730
0670
0670
0E70
0C60
0CE0
1CE0
38E0
78C0
F1C0
E1C0
ENDCHAR
STARTCHAR 041C
ENCODING 1052
SWIDTH 495 0
DWIDTH 11 0
BBX 13 14 0 0
BITMAP
0C38
0E38
1E70
1E70
1EF0
3EB0
37B0
3770
3760
7060
6060
60E0
60E0
E0C0
ENDCHAR
STARTCHAR 041D
ENCODING 1053
SWIDTH 495 0
DWIDTH 11 0
BBX 12 14 1 0
BITMAP
1C70
1870
3860
38E0
38E0
30E0
7FE0
7FC0
71C0
61C0
E1C0
E180
E380
C380
ENDCHAR
STARTCHAR 041E
ENCODING 1054
SWIDTH 495 0
DWIDTH 11 0
BBX 11 14 1 0
BITMAP
0780
1FC0
1CE0
38E0
30E0
70E0
70E0
60E0
60C0
E1C0
61C0
7380
7F00
3E00
ENDCHAR
STARTCHAR 041F
ENCODING 1055
SWIDTH 495 0
DWIDTH 11 0
BBX 12 14 1 0
BITMAP
1FF0
1FF0
3FE0
38E0
38E0
30E0
70C0
70C0
71C0
61C0
E1C0
E180
E380
C380
ENDCHAR
STARTCHAR 0420
ENCODING 1056
SWIDTH 495 0
DWIDTH 11 0
BBX 11 14 1 0
BITMAP
1F80
1FE0
1DE0
38E0
3860
38E0
31E0
7FC0
7F80
7000
6000
E000
E000
E000
ENDCHAR
STARTCHAR 0421
ENCODING 1057
SWIDTH 495 0
DWIDTH 11 0
BBX 10 14 2 0
BITMAP
07C0
1FC0
3CC0
7800
7000
6000
E000
E000
E000
E000
E000
F100
7F00
3F00
ENDCHAR
STARTCHAR 0422
ENCODING 1058
SWIDTH 495 0
DWIDTH 11 0
BBX 10 14 3 0
BITMAP
FFC0
FFC0
FFC0
1C00
1C00
1C00
1800
3800
3800
3800
3000
7000
7000
7000
ENDCHAR
STARTCHAR 0423
ENCODING 1059
SWIDTH 495 0
DWIDTH 11 0
BBX 14 14 0 0
BITMAP
1C1C
1C38
1C38
0C70
0E60
0EE0
0FC0
07C0
0780
0700
0700
0E00
7C00
F800
ENDCHAR
STARTCHAR 0424
ENCODING 1060
SWIDTH 495 0
DWIDTH 11 0
BBX 10 15 2 0
BITMAP
0700
0600
1F80
3FC0
66C0
ECC0
CCC0
CCC0
CCC0
DD80
DB80
FF00
7E00
3800
3000
ENDCHAR
STARTCHAR 0425
ENCODING 1061
SWIDTH 495 0
DWIDTH 11 0
BBX 13 14 0 0
BITMAP
1C18
0E38
0E70
06E0
07C0
07C0
0380
0780
0F80
1DC0
1DC0
39C0
70C0
F0C0
ENDCHAR
STARTCHAR 0426
ENCODING 1062
SWIDTH 495 0
DWIDTH 11 0
BBX 11 18 1 -4
BITMAP
1C60
18E0
38E0
38E0
38C0
30C0
71C0
71C0
71C0
6180
E380
E380
FF80
FF80
0380
0380
0380
0300
ENDCHAR
STARTCHAR 0427
ENCODING 1063
SWIDTH 495 0
DWIDTH 11 0
BBX 10 14 3 0
BITMAP
61C0
E180
E180
E380
C380
C380
C300
FF00
FF00
0700
0600
0E00
0E00
0E00
ENDCHAR
STARTCHAR 0428
ENCODING 1064
SWIDTH 495 0
DWIDTH 11 0
BBX 13 14 0 0
BITMAP
1C18
1818
1818
1838
3830
3330
3330
3330
7760
6660
6660
6660
FFE0
FFC0
ENDCHAR
STARTCHAR 0429
ENCODING 1065
SWIDTH 495 0
DWIDTH 11 0
BBX 12 18 1 -4
BITMAP
1830
3830
3060
3060
3060
7660
66E0
66C0
6CC0
6CC0
CDC0
CD80
FFC0
FFC0
0180
0180
0180
0180
ENDCHAR
STARTCHAR 042A
ENCODING 1066
SWIDTH 495 0
DWIDTH 11 0
BBX 9 14 2 0
BITMAP
7C00
7800
7800
3800
3800
3E00
7F80
7380
7380
6380
E380
E700
FF00
FC00
ENDCHAR
STARTCHAR 042B
ENCODING 1067
SWIDTH 495 0
DWIDTH 11 0
BBX 13 14 0 0
BITMAP
0C18
1818
1818
1838
1830
3E30
3F30
3370
3360
6360
6760
66E0
7EC0
FCC0
ENDCHAR
STARTCHAR 042C
ENCODING 1068
SWIDTH 495 0
DWIDTH 11 0
BBX 10 14 1 0
BITMAP
1C00
1800
1800
3800
3800
3F00
3F80
73C0
71C0
71C0
61C0
E380
FF80
FE00
ENDCHAR
STARTCHAR 042D
ENCODING 1069
SWIDTH 495 0
DWIDTH 11 0
BBX 11 14 1 0
BITMAP
1F00
1F80
13C0
00C0
00E0
00E0
0FE0
1FC0
01C0
01C0
0380
8780
FF00
FE00
ENDCHAR
STARTCHAR 042E
ENCODING 1070
SWIDTH 495 0
DWIDTH 11 0
BBX 12 14 0 0
BITMAP
0CF0
19F0
19B0
1B30
1B30
3330
3E30
3E30
3630
6660
6660
66E0
67C0
C780
ENDCHAR
STARTCHAR 042F
ENCODING 1071
SWIDTH 495 0
DWIDTH 11 0
BBX 13 14 0 0
BITMAP
03F8
07F0
0E70
1C70
1C70
1C60
1C60
0FE0
0FE0
1CE0
38C0
39C0
71C0
E1C0
ENDCHAR
STARTCHAR 0430
ENCODING 1072
SWIDTH 495 0
DWIDTH 11 0
BBX 11 11 1 0
BITMAP
0780
1FE0
3FC0
71C0
71C0
61C0
E180
E380
7380
7F80
3D80
ENDCHAR
STARTCHAR 0431
ENCODING 1073
SWIDTH 495 0
DWIDTH 11 0
BBX 11 15 1 0
BITMAP
03E0
0FE0
1E00
1C00
3800
3F80
7FC0
71C0
71C0
61C0
E1C0
E1C0
7380
7F80
3E00
ENDCHAR
STARTCHAR 0432
ENCODING 1074
SWIDTH 495 0
DWIDTH 11 0
BBX 10 11 1 0
BITMAP
0700
1FC0
3DC0
30C0
71C0
7F00
7F80
61C0
61C0
FF80
FF00
ENDCHAR
STARTCHAR 0433
ENCODING 1075
SWIDTH 495 0
DWIDTH 11 0
BBX 9 11 2 0
BITMAP
1E00
3F80
3F80
0380
0780
3F00
FC00
E000
C000
FE00
7F00
ENDCHAR
STARTCHAR 0434
ENCODING 1076
SWIDTH 495 0
DWIDTH 11 0
BBX 9 15 2 0
BITMAP
3E00
3F00
0380
0180
0180
3F80
7F80
F180
E180
C380
C380
C380
E700
FE00
7C00
ENDCHAR
STARTCHAR 0435
ENCODING 1077
SWIDTH 495 0
DWIDTH 11 0
BBX 10 11 2 0
BITMAP
0F00
3F80
7BC0
61C0
E380
FF80
FE00
C000
E000
FF00
7F00
ENDCHAR
STARTCHAR 0436
ENCODING 1078
SWIDTH 495 0
DWIDTH 11 0
BBX 13 11 0 0
BITMAP
2018
3338
1B60
1B60
1B40
1FC0
1FC0
36C0
36C0
E4E0
ECE0
ENDCHAR
STARTCHAR 0437
ENCODING 1079
SWIDTH 495 0
DWIDTH 11 0
BBX 10 11 1 0
BITMAP
0F00
3FC0
3FC0
01C0
0380
1F00
1F80
0180
0380
FF80
FE00
ENDCHAR
STARTCHAR 0438
ENCODING 1080
SWIDTH 495 0
DWIDTH 11 0
BBX 9 10 2 0
BITMAP
7180
7380
6380
E380
E300
E300
C700
E700
FF00
FB00
ENDCHAR
STARTCHAR 0439
ENCODING 1081
SWIDTH 495 0
DWIDTH 11 0
BBX 10 15 2 0
BITMAP
19C0
1F80
0F00
0000
0000
7180
7380
6380
E380
E300
E300
C700
E700
FF00
FB00
ENDCHAR
STARTCHAR 043A
ENCODING 1082
SWIDTH 495 0
DWIDTH 11 0
BBX 11 10 1 0
BITMAP
38E0
39C0
3B80
3700
3E00
7600
7700
7380
6380
E380
ENDCHAR
STARTCHAR 043B
ENCODING 1083
SWIDTH 495 0
DWIDTH 11 0
BBX 12 10 0 0
BITMAP
07F0
0FE0
0CE0
0CE0
1CE0
1CC0
38C0
79C0
F1C0
E180
ENDCHAR
STARTCHAR 043C
ENCODING 1084
SWIDTH 495 0
DWIDTH 11 0
BBX 12 10 0 0
BITMAP
1C70
1CF0
3CF0
3DE0
3DE0
7760
6660
66E0
60E0
E0C0
ENDCHAR
STARTCHAR 043D
ENCODING 1085
SWIDTH 495 0
DWIDTH 11 0
BBX 11 10 1 0
BITMAP
38E0
38C0
31C0
71C0
7FC0
7F80
6380
E380
E380
E300
ENDCHAR
STARTCHAR 043E
ENCODING 1086
SWIDTH 495 0
DWIDTH 11 0
BBX 10 11 1 0
BITMAP
0700
1F80
3FC0
71C0
71C0
61C0
E1C0
E1C0
7380
7F00
3E00
ENDCHAR
STARTCHAR 043F
ENCODING 1087
SWIDTH 495 0
DWIDTH 11 0
BBX 10 11 1 0
BITMAP
0F00
3FC0
3FC0
39C0
31C0
71C0
7180
7180
6380
E380
E300
ENDCHAR
STARTCHAR 0440
ENCODING 1088
SWIDTH 495 0
DWIDTH 11 0
BBX 11 15 0 -4
BITMAP
0780
1FC0
1FE0
18E0
3860
38E0
38E0
30E0
73C0
7F80
7F00
6000
E000
E000
E000
ENDCHAR
STARTCHAR 0441
ENCODING 1089
SWIDTH 495 0
DWIDTH 11 0
BBX 10 11 2 0
BITMAP
0780
1FC0
7F80
7000
E000
E000
C000
E000
E100
FF00
7F00
ENDCHAR
STARTCHAR 0442
ENCODING 1090
SWIDTH 495 0
DWIDTH 11 0
BBX 11 11 1 0
BITMAP
0880
3FE0
37E0
66E0
66C0
6EC0
6CC0
E0C0
C180
C180
C180
ENDCHAR
STARTCHAR 0443
ENCODING 1091
SWIDTH 495 0
DWIDTH 11 0
BBX 13 14 -1 -4
BITMAP
0C38
0C30
0E70
0E70
0EE0
0EE0
0FC0
0780
0780
0700
0E00
7E00
F800
7000
ENDCHAR
STARTCHAR 0444
ENCODING 1092
SWIDTH 495 0
DWIDTH 11 0
BBX 11 19 1 -4
BITMAP
0180
0380
0300
0300
0700
1FC0
3EC0
76E0
E6E0
EEE0
CCE0
CCC0
EDC0
7F80
3E00
1800
1800
1800
3000
ENDCHAR
STARTCHAR 0445
ENCODING 1093
SWIDTH 495 0
DWIDTH 11 0
BBX 11 10 1 0
BITMAP
38E0
39C0
1F80
1F00
0E00
1E00
3F00
7300
7380
E380
ENDCHAR
STARTCHAR 0446
ENCODING 1094
SWIDTH 495 0
DWIDTH 11 0
BBX 9 13 2 -3
BITMAP
7380
6380
E380
E300
E700
C700
C700
CF00
FF80
FB80
0300
0300
0700
ENDCHAR
STARTCHAR 0447
ENCODING 1095
SWIDTH 495 0
DWIDTH 11 0
BBX 9 10 2 0
BITMAP
6180
E380
E380
E380
FF00
FF00
3F00
0700
0600
0E00
ENDCHAR
STARTCHAR 0448
ENCODING 1096
SWIDTH 495 0
DWIDTH 11 0
BBX 11 10 1 0
BITMAP
3060
6060
66E0
66C0
6CC0
CCC0
CDC0
CD80
FF80
FEC0
ENDCHAR
STARTCHAR 0449
ENCODING 1097
SWIDTH 495 0
DWIDTH 11 0
BBX 11 13 1 -3
BITMAP
7060
60C0
66C0
6CC0
ECC0
CDC0
CD80
CD80
FFC0
FEC0
00C0
0180
0180
ENDCHAR
STARTCHAR 044A
ENCODING 1098
SWIDTH 495 0
DWIDTH 11 0
BBX 9 10 2 0
BITMAP
F800
F000
3000
7F00
7F80
6380
6380
E380
FF00
FE00
ENDCHAR
STARTCHAR 044B
ENCODING 1099
SWIDTH 495 0
DWIDTH 11 0
BBX 11 10 1 0
BITMAP
3060
7060
6060
78C0
7CC0
EEC0
C6C0
CD80
FD80
F980
ENDCHAR
STARTCHAR 044C
ENCODING 1100
SWIDTH 495 0
DWIDTH 11 0
BBX 10 10 1 0
BITMAP
3800
3800
3000
7F00
7F80
71C0
71C0
61C0
FF80
FF00
ENDCHAR
STARTCHAR 044D
ENCODING 1101
SWIDTH 495 0
DWIDTH 11 0
BBX 10 11 1 0
BITMAP
1E00
3F80
3FC0
01C0
01C0
1FC0
1FC0
01C0
0780
7F00
FE00
ENDCHAR
STARTCHAR 044E
ENCODING 1102
SWIDTH 495 0
DWIDTH 11 0
BBX 12 11 0 0
BITMAP
00C0
19E0
3370
3330
3630
3E30
7E60
6660
6660
67C0
C780
ENDCHAR
STARTCHAR 044F
ENCODING 1103
SWIDTH 495 0
DWIDTH 11 0
BBX 12 11 0 0
BITMAP
03C0
0FF0
1EF0
3860
38E0
3FE0
1FE0
1CC0
39C0
71C0
E1C0
ENDCHAR
STARTCHAR 0450
ENCODING 1104
SWIDTH 495 0
DWIDTH 11 0
BBX 10 15 2 0
BITMAP
0C00
0F00
0700
0100
0F00
3F80
7BC0
61C0
E380
FF80
FE00
C000
E000
FF00
7F00
ENDCHAR
STARTCHAR 0451
ENCODING 1105
SWIDTH 495 0
DWIDTH 11 0
BBX 10 15 2 0
BITMAP
18C0
1DC0
19C0
0000
0F00
3F80
7BC0
61C0
E380
FF80
FE00
C000
E000
FF00
7F00
ENDCHAR
STARTCHAR 0452
ENCODING 1106
SWIDTH 495 0
DWIDTH 11 0
BBX 10 19 1 -4
BITMAP
0C00
3F80
3F80
1C00
1F00
1FC0
3FC0
39C0
39C0
31C0
7180
7180
7380
6380
E380
0300
1F00
1E00
1C00
ENDCHAR
STARTCHAR 0453
ENCODING 1107
SWIDTH 495 0
DWIDTH 11 0
BBX 9 15 2 0
BITMAP
0300
0700
0E00
0000
1E00
3F80
3F80
0380
0780
3F00
FC00
E000
C000
FE00
7F00
ENDCHAR
STARTCHAR 0454
ENCODING 1108
SWIDTH 495 0
DWIDTH 11 0
BBX 10 11 2 0
BITMAP
0700
1FC0
7F80
7000
E000
FE00
FE00
E000
F100
7F00
3F00
ENDCHAR
STARTCHAR 0455
ENCODING 1109
SWIDTH 495 0
DWIDTH 11 0
BBX 10 11 1 0
BITMAP
0780
1FC0
3FC0
3800
3C00
1F00
0F80
0380
4380
FF80
FF00
ENDCHAR
STARTCHAR 0456
ENCODING 1110
SWIDTH 495 0
DWIDTH 11 0
BBX 7 15 3 0
BITMAP
1C
1C
1C
00
00
F8
F8
38
38
30
70
70
70
7E
3E
ENDCHAR
STARTCHAR 0457
ENCODING 1111
SWIDTH 495 0
DWIDTH 11 0
BBX 8 15 3 0
BITMAP
63
77
67
00
00
F8
F8
38
38
30
70
70
70
7E
3E
ENDCHAR
STARTCHAR 0458
ENCODING 1112
SWIDTH 495 0
DWIDTH 11 0
BBX 11 19 0 -4
BITMAP
00C0
01E0
01C0
0000
0000
1FC0
1FC0
01C0
01C0
0180
0380
0380
0380
0300
0700
0700
FE00
FE00
7800
ENDCHAR
STARTCHAR 0459
ENCODING 1113
SWIDTH 495 0
DWIDTH 11 0
BBX 11 10 0 0
BITMAP
1F80
1B00
1B00
1BC0
33E0
3660
3660
6660
E7E0
CFC0
ENDCHAR
STARTCHAR 045A
ENCODING 1114
SWIDTH 495 0
DWIDTH 11 0
BBX 11 10 0 0
BITMAP
1B00
3300
3300
3380
3FE0
6660
6660
6660
67C0
CF80
ENDCHAR
STARTCHAR 045B
ENCODING 1115
SWIDTH 495 0
DWIDTH 11 0
BBX 10 15 1 0
BITMAP
0C00
3F80
3F80
1C00
1F00
1FC0
3FC0
39C0
39C0
31C0
7180
7380
7380
6380
E380
ENDCHAR
STARTCHAR 045C
ENCODING 1116
SWIDTH 495 0
DWIDTH 11 0
BBX 11 15 1 0
BITMAP
0080
03C0
0780
0200
0000
38E0
39C0
3B80
3700
3E00
7600
7700
7380
6380
E380
ENDCHAR
STARTCHAR 045D
ENCODING 1117
SWIDTH 495 0
DWIDTH 11 0
BBX 9 15 2 0
BITMAP
0800
1E00
0F00
0200
0000
7180
7380
6380
E380
E300
E300
C700
E700
FF00
FB00
ENDCHAR
STARTCHAR 045E
ENCODING 1118
SWIDTH 495 0
DWIDTH 11 0
BBX 13 19 -1 -4
BITMAP
0730
03F0
03E0
0000
0000
0C38
0C30
0E70
0E70
0EE0
0EE0
0FC0
0780
0780
0700
0E00
7E00
F800
7000
ENDCHAR
STARTCHAR 045F
ENCODING 1119
SWIDTH 495 0
DWIDTH 11 0
BBX 9 14 2 -4
BITMAP
7180
7380
6380
E380
E300
E300
C700
E700
FF00
FB00
0000
3000
3000
7000
ENDCHAR
STARTCHAR 0462
ENCODING 1122
SWIDTH 495 0
DWIDTH 11 0
BBX 9 15 2 0
BITMAP
1C00
1C00
7F80
7F00
3800
3800
3E00
7F00
7780
7380
6380
E380
E700
FF00
FC00
ENDCHAR
STARTCHAR 0463
ENCODING 1123
SWIDTH 495 0
DWIDTH 11 0
BBX 11 11 0 0
BITMAP
0400
3F00
3700
3300
3380
77E0
6660
6660
6660
EFC0
CF80
ENDCHAR
STARTCHAR 0472
ENCODING 1138
SWIDTH 495 0
DWIDTH 11 0
BBX 11 14 1 0
BITMAP
0780
1FC0
1CE0
38E0
30E0
70E0
7EE0
7FE0
62C0
E1C0
61C0
7380
7F00
3E00
ENDCHAR
STARTCHAR 0473
ENCODING 1139
SWIDTH 495 0
DWIDTH 11 0
BBX 10 11 1 0
BITMAP
0700
1F80
3FC0
71C0
71C0
7FC0
E7C0
E1C0
7380
7F00
3E00
ENDCHAR
STARTCHAR 0474
ENCODING 1140
SWIDTH 495 0
DWIDTH 11 0
BBX 11 14 3 0
BITMAP
E0E0
E1E0
E380
C300
C700
C600
CE00
CC00
DC00
D800
F800
F000
F000
E000
ENDCHAR
STARTCHAR 0475
ENCODING 1141
SWIDTH 495 0
DWIDTH 11 0
BBX 11 11 2 0
BITMAP
00E0
E3E0
E3C0
E700
E600
EE00
6C00
7C00
7800
7000
7000
ENDCHAR
STARTCHAR 048A
ENCODING 1162
SWIDTH 495 0
DWIDTH 11 0
BBX 12 21 1 -4
BITMAP
0660
07E0
03C0
0000
1870
18E0
38E0
39E0
33E0
32C0
76C0
7DC0
6DC0
7980
F180
F3C0
E3C0
C380
0180
0300
0600
ENDCHAR
STARTCHAR 048B
ENCODING 1163
SWIDTH 495 0
DWIDTH 11 0
BBX 10 18 2 -3
BITMAP
19C0
1F80
0F00
0000
0000
7180
7380
6380
E380
E300
E300
C700
E700
FF80
FB80
0300
0600
0400
ENDCHAR
STARTCHAR 048C
ENCODING 1164
SWIDTH 495 0
DWIDTH 11 0
BBX 10 14 1 0
BITMAP
1C00
1C00
3F00
7F00
1800
3F00
3F80
33C0
31C0
71C0
71C0
7380
7F00
FE00
ENDCHAR
STARTCHAR 048D
ENCODING 1165
SWIDTH 495 0
DWIDTH 11 0
BBX 9 11 2 0
BITMAP
3800
7E00
FE00
7000
7E00
7F00
6380
E380
E380
FF00
FE00
ENDCHAR
STARTCHAR 048E
ENCODING 1166
SWIDTH 495 0
DWIDTH 11 0
BBX 11 14 1 0
BITMAP
1F80
1FE0
1DE0
3860
3860
3FE0
33E0
7FC0
7F80
7180
6180
E000
E000
E000
ENDCHAR
STARTCHAR 048F
ENCODING 1167
SWIDTH 495 0
DWIDTH 11 0
BBX 11 15 0 -4
BITMAP
0780
1FC0
1FE0
18E0
3860
3860
3AE0
33E0
73C0
7F80
7F80
6180
E180
E000
E000
ENDCHAR
STARTCHAR 0490
ENCODING 1168
SWIDTH 495 0
DWIDTH 11 0
BBX 14 16 0 0
BITMAP
001C
001C
03F8
07F8
07F8
0700
0600
0E00
0E00
0E00
0C00
1C00
1C00
1C00
7F00
FF00
ENDCHAR
STARTCHAR 0491
ENCODING 1169
SWIDTH 495 0
DWIDTH 11 0
BBX 10 13 2 0
BITMAP
00C0
00C0
01C0
3FC0
3F80
7000
7000
7000
6000
E000
E000
E000
C000
ENDCHAR
STARTCHAR 0492
ENCODING 1170
SWIDTH 495 0
DWIDTH 11 0
BBX 13 14 0 0
BITMAP
03F8
07F8
07F8
0700
0600
0E00
3FC0
3FC0
0C00
1C00
1C00
1C00
7F00
FF00
ENDCHAR
STARTCHAR 0493
ENCODING 1171
SWIDTH 495 0
DWIDTH 11 0
BBX 9 11 2 0
BITMAP
1E00
3F00
2780
0380
7780
3F00
7F00
E100
C000
FE00
7F00
ENDCHAR
STARTCHAR 0494
ENCODING 1172
SWIDTH 495 0
DWIDTH 11 0
BBX 11 18 1 -4
BITMAP
1FE0
1FE0
3FC0
3800
3800
3F00
7F80
7BC0
71C0
61C0
61C0
E1C0
E180
E380
0780
3F00
3E00
3800
ENDCHAR
STARTCHAR 0495
ENCODING 1173
SWIDTH 495 0
DWIDTH 11 0
BBX 10 14 1 -4
BITMAP
1FC0
3F80
3800
3800
3F80
7F80
71C0
71C0
61C0
E180
0380
0780
1F00
1C00
ENDCHAR
STARTCHAR 0496
ENCODING 1174
SWIDTH 495 0
DWIDTH 11 0
BBX 14 18 0 -4
BITMAP
198C
1998
0DB8
0DB0
0FE0
0FE0
0FC0
0FC0
1FC0
36C0
36C0
66C0
EEE0
CCE0
0060
00C0
00C0
00C0
ENDCHAR
STARTCHAR 0497
ENCODING 1175
SWIDTH 495 0
DWIDTH 11 0
BBX 13 14 0 -3
BITMAP
2018
3338
1B60
1B60
1B40
1FC0
1FC0
36C0
36C0
E4E0
ECE0
0060
00C0
00C0
ENDCHAR
STARTCHAR 0498
ENCODING 1176
SWIDTH 495 0
DWIDTH 11 0
BBX 11 18 1 -4
BITMAP
1F80
1FC0
19E0
00E0
00C0
03C0
1F00
1F80
01C0
01C0
01C0
8380
FF80
FE00
1800
1800
7800
7000
ENDCHAR
STARTCHAR 0499
ENCODING 1177
SWIDTH 495 0
DWIDTH 11 0
BBX 10 15 1 -4
BITMAP
0F00
3FC0
3FC0
01C0
0380
1F00
1F80
0180
0380
FF80
FF00
1800
0C00
7800
7000
ENDCHAR
STARTCHAR 049A
ENCODING 1178
SWIDTH 495 0
DWIDTH 11 0
BBX 12 18 1 -4
BITMAP
1C70
18E0
38C0
39C0
3B80
3700
3E00
7E00
7600
6700
6300
E380
E3C0
E1C0
0180
0180
0180
0380
ENDCHAR
STARTCHAR 049B
ENCODING 1179
SWIDTH 495 0
DWIDTH 11 0
BBX 11 13 1 -3
BITMAP
38E0
39C0
3B80
3700
3E00
7600
7700
7300
63C0
E380
0180
0180
0380
ENDCHAR
STARTCHAR 049C
ENCODING 1180
SWIDTH 495 0
DWIDTH 11 0
BBX 13 14 0 0
BITMAP
0C18
1C38
1C30
1B70
1AE0
3AC0
3F80
3F80
3780
75C0
74C0
60C0
60E0
E0E0
ENDCHAR
STARTCHAR 049D
ENCODING 1181
SWIDTH 495 0
DWIDTH 11 0
BBX 12 10 1 0
BITMAP
3070
34C0
75C0
6F80
7F00
6B00
EB80
F980
C180
C180
ENDCHAR
STARTCHAR 049E
ENCODING 1182
SWIDTH 495 0
DWIDTH 11 0
BBX 12 15 1 0
BITMAP
0C00
1C70
3E70
3EE0
19C0
1B80
3F00
3E00
3E00
3700
7300
7380
6380
6180
E1C0
ENDCHAR
STARTCHAR 049F
ENCODING 1183
SWIDTH 495 0
DWIDTH 11 0
BBX 11 11 1 0
BITMAP
1800
7CE0
39C0
3B80
3700
3E00
7600
7700
6380
6380
E380
ENDCHAR
STARTCHAR 04A0
ENCODING 1184
SWIDTH 495 0
DWIDTH 11 0
BBX 11 14 2 0
BITMAP
7C60
78E0
79C0
3B80
3B00
3700
3E00
7E00
7E00
6700
6700
E300
E300
C380
ENDCHAR
STARTCHAR 04A1
ENCODING 1185
SWIDTH 495 0
DWIDTH 11 0
BBX 10 10 2 0
BITMAP
F9C0
F380
3700
7E00
7C00
6E00
6E00
E700
E700
C300
ENDCHAR
STARTCHAR 04A2
ENCODING 1186
SWIDTH 495 0
DWIDTH 11 0
BBX 11 18 1 -4
BITMAP
1C60
18E0
38E0
38E0
38C0
30C0
7FC0
7FC0
71C0
6180
E380
E380
E380
C380
0380
0380
0380
0300
ENDCHAR
STARTCHAR 04A3
ENCODING 1187
SWIDTH 495 0
DWIDTH 11 0
BBX 10 13 1 -3
BITMAP
38C0
39C0
31C0
71C0
7F80
7F80
6380
E380
E380
E380
0380
0380
0300
ENDCHAR
STARTCHAR 04A4
ENCODING 1188
SWIDTH 495 0
DWIDTH 11 0
BBX 13 14 1 0
BITMAP
1CF8
18F8
38E0
38C0
39C0
31C0
7FC0
7F80
7180
6380
E380
E380
E300
C700
ENDCHAR
STARTCHAR 04A5
ENCODING 1189
SWIDTH 495 0
DWIDTH 11 0
BBX 11 10 1 0
BITMAP
39E0
39E0
3380
7380
7F80
7F00
6700
E700
E700
E600
ENDCHAR
STARTCHAR 04A6
ENCODING 1190
SWIDTH 495 0
DWIDTH 11 0
BBX 11 18 0 -4
BITMAP
0F80
1F80
1980
1B80
1B00
3BC0
33E0
3760
3660
7660
6660
6660
6CE0
ECC0
00C0
0380
0700
0600
ENDCHAR
STARTCHAR 04A7
ENCODING 1191
SWIDTH 495 0
DWIDTH 11 0
BBX 11 15 0 -4
BITMAP
0C00
3F00
3700
3300
7380
67C0
67E0
6660
E660
CE60
CCE0
00C0
01C0
0780
0600
ENDCHAR
STARTCHAR 04A8
ENCODING 1192
SWIDTH 495 0
DWIDTH 11 0
BBX 11 18 1 -4
BITMAP
07E0
0FC0
1E00
3800
71C0
63E0
66E0
EE60
ECE0
ECE0
ECC0
EDC0
7F80
3E00
0C00
0F00
0700
0100
ENDCHAR
STARTCHAR 04A9
ENCODING 1193
SWIDTH 495 0
DWIDTH 11 0
BBX 10 14 1 -3
BITMAP
0780
1F80
3F00
7000
6380
67C0
EEC0
ECC0
6DC0
7F80
3F00
0E00
0780
0300
ENDCHAR
STARTCHAR 04AA
ENCODING 1194
SWIDTH 495 0
DWIDTH 11 0
BBX 10 18 2 -4
BITMAP
07C0
1FC0
3CC0
7800
7000
6000
E000
E000
E000
E000
E000
F100
7F00
3F00
1800
1C00
7800
7000
ENDCHAR
STARTCHAR 04AB
ENCODING 1195
SWIDTH 495 0
DWIDTH 11 0
BBX 10 15 2 -4
BITMAP
0780
1FC0
7F80
7000
E000
E000
C000
E000
E100
FF00
7F00
1800
0C00
3C00
3800
ENDCHAR
STARTCHAR 04AC
ENCODING 1196
SWIDTH 495 0
DWIDTH 11 0
BBX 10 18 3 -4
BITMAP
FFC0
FFC0
FFC0
1C00
1C00
1C00
1800
3800
3800
3800
3000
7000
7800
7800
3800
3000
3000
7000
ENDCHAR
STARTCHAR 04AD
ENCODING 1197
SWIDTH 495 0
DWIDTH 11 0
BBX 11 14 1 -3
BITMAP
0880
3FC0
36E0
66E0
66C0
6CC0
6CC0
C1C0
C180
C1C0
C1C0
0180
0180
0180
ENDCHAR
STARTCHAR 04AE
ENCODING 1198
SWIDTH 495 0
DWIDTH 11 0
BBX 11 14 3 0
BITMAP
E0E0
E1C0
6380
6380
6700
7600
7E00
3C00
3800
3800
3000
7000
7000
7000
ENDCHAR
STARTCHAR 04AF
ENCODING 1199
SWIDTH 495 0
DWIDTH 11 0
BBX 10 14 2 -4
BITMAP
E1C0
E1C0
6380
6380
7700
7600
7E00
7C00
3800
3800
3000
7000
7000
7000
ENDCHAR
STARTCHAR 04B0
ENCODING 1200
SWIDTH 495 0
DWIDTH 11 0
BBX 12 14 2 0
BITMAP
7070
70E0
71C0
31C0
3380
3B00
3F00
1E00
1C00
FF00
1800
3800
3800
3800
ENDCHAR
STARTCHAR 04B1
ENCODING 1201
SWIDTH 495 0
DWIDTH 11 0
BBX 11 14 1 -4
BITMAP
70E0
70E0
31C0
31C0
3B80
3B00
3F00
3E00
7F00
FF00
1800
3800
3800
3800
ENDCHAR
STARTCHAR 04B2
ENCODING 1202
SWIDTH 495 0
DWIDTH 11 0
BBX 11 15 1 -3
BITMAP
18E0
1CC0
1D80
0F00
0F00
0E00
0E00
1F00
3B00
7300
6380
E380
0180
0380
0300
ENDCHAR
STARTCHAR 04B3
ENCODING 1203
SWIDTH 495 0
DWIDTH 11 0
BBX 10 13 1 -3
BITMAP
39C0
3980
1B80
1F00
1E00
1E00
3F00
7700
E380
E380
0180
0380
0380
ENDCHAR
STARTCHAR 04B4
ENCODING 1204
SWIDTH 495 0
DWIDTH 11 0
BBX 11 18 2 -4
BITMAP
7EE0
7EE0
38C0
38C0
31C0
31C0
7180
7180
6380
6380
E300
E300
FF80
FF80
0300
0300
0300
0700
ENDCHAR
STARTCHAR 04B5
ENCODING 1205
SWIDTH 495 0
DWIDTH 11 0
BBX 9 13 2 -3
BITMAP
FD80
F980
7180
6380
6300
6300
E300
E700
FF80
7B80
0300
0300
0300
ENDCHAR
STARTCHAR 04B6
ENCODING 1206
SWIDTH 495 0
DWIDTH 11 0
BBX 10 18 2 -4
BITMAP
30C0
71C0
71C0
71C0
6180
E380
E380
7F80
7F80
0300
0700
0700
0700
0700
0700
0700
0700
0600
ENDCHAR
STARTCHAR 04B7
ENCODING 1207
SWIDTH 495 0
DWIDTH 11 0
BBX 9 13 2 -3
BITMAP
7180
6380
E380
E380
FF00
7F00
3F00
0700
0700
0F00
0700
0700
0600
ENDCHAR
STARTCHAR 04B8
ENCODING 1208
SWIDTH 495 0
DWIDTH 11 0
BBX 11 14 2 0
BITMAP
30E0
70E0
70E0
70C0
61C0
EDC0
EDC0
7F80
7F80
1B80
1B80
1B00
0700
0700
ENDCHAR
STARTCHAR 04B9
ENCODING 1209
SWIDTH 495 0
DWIDTH 11 0
BBX 10 10 2 0
BITMAP
71C0
61C0
E180
E980
FF80
7F80
3F80
1300
0700
0700
ENDCHAR
STARTCHAR 04BA
ENCODING 1210
SWIDTH 495 0
DWIDTH 11 0
BBX 10 14 1 0
BITMAP
1C00
1800
1800
3800
3800
3F80
3FC0
71C0
71C0
71C0
61C0
E180
E380
E380
ENDCHAR
STARTCHAR 04BB
ENCODING 1211
SWIDTH 495 0
DWIDTH 11 0
BBX 10 15 1 0
BITMAP
1C00
1C00
1C00
1800
3B00
3FC0
3FC0
39C0
31C0
71C0
7180
7180
6380
E380
E380
ENDCHAR
STARTCHAR 04BC
ENCODING 1212
SWIDTH 495 0
DWIDTH 11 0
BBX 10 14 2 0
BITMAP
0380
0FC0
0CC0
DCC0
D8C0
D8C0
FFC0
7FC0
3000
3000
3000
3800
3F00
1F00
ENDCHAR
STARTCHAR 04BD
ENCODING 1213
SWIDTH 495 0
DWIDTH 11 0
BBX 11 11 1 0
BITMAP
0180
07E0
0EE0
CC60
D8E0
FFC0
7F80
1800
1800
1F80
0F80
ENDCHAR
STARTCHAR 04BE
ENCODING 1214
SWIDTH 495 0
DWIDTH 11 0
BBX 10 17 2 -3
BITMAP
0380
0FC0
0CC0
DCC0
D8C0
D8C0
FFC0
7FC0
3000
3000
3000
3800
3F00
1F00
0C00
0C00
1800
ENDCHAR
STARTCHAR 04BF
ENCODING 1215
SWIDTH 495 0
DWIDTH 11 0
BBX 11 14 1 -3
BITMAP
0180
07E0
0EE0
CC60
D8E0
FFC0
7F80
1800
1800
1F80
0F80
0600
0E00
0C00
ENDCHAR
STARTCHAR 04C0
ENCODING 1216
SWIDTH 495 0
DWIDTH 11 0
BBX 12 14 1 0
BITMAP
1FF0
1FF0
1FE0
0700
0700
0700
0600
0E00
0E00
0E00
0C00
1C00
FF80
FF80
ENDCHAR
STARTCHAR 04C1
ENCODING 1217
SWIDTH 495 0
DWIDTH 11 0
BBX 14 18 0 0
BITMAP
0338
03F0
01E0
0000
198C
1998
0DB8
0DB0
0FE0
0FE0
0FC0
0FC0
1FC0
36C0
36C0
66E0
EEE0
CCE0
ENDCHAR
STARTCHAR 04C2
ENCODING 1218
SWIDTH 495 0
DWIDTH 11 0
BBX 13 15 0 0
BITMAP
0630
07E0
03C0
0000
2018
3338
1B60
1B60
1B40
1FC0
1FC0
36C0
36C0
E4E0
ECE0
ENDCHAR
STARTCHAR 04C3
ENCODING 1219
SWIDTH 495 0
DWIDTH 11 0
BBX 13 18 1 -4
BITMAP
1C38
1870
38E0
39C0
3B80
3700
7F00
7F80
73C0
71C0
61C0
E1C0
E1C0
E1C0
0380
1F00
3E00
3800
ENDCHAR
STARTCHAR 04C4
ENCODING 1220
SWIDTH 495 0
DWIDTH 11 0
BBX 11 14 1 -4
BITMAP
39E0
3BC0
3F00
3E00
7F00
7F80
73C0
61C0
E180
E180
0380
1F00
3E00
3800
ENDCHAR
STARTCHAR 04C5
ENCODING 1221
SWIDTH 495 0
DWIDTH 11 0
BBX 12 17 0 -4
BITMAP
03F0
03F0
07F0
0770
0660
0660
0EE0
0CE0
0CE0
1CC0
39C0
79E0
F1E0
E1C0
00C0
0180
0300
ENDCHAR
STARTCHAR 04C6
ENCODING 1222
SWIDTH 495 0
DWIDTH 11 0
BBX 12 13 0 -3
BITMAP
07F0
0FE0
0CE0
0CE0
1CE0
1CC0
38C0
79E0
F1E0
E1E0
00C0
0180
0100
ENDCHAR
STARTCHAR 04C7
ENCODING 1223
SWIDTH 495 0
DWIDTH 11 0
BBX 12 18 1 -4
BITMAP
1C70
1870
3860
38E0
38E0
30E0
7FE0
7FC0
71C0
61C0
E1C0
E180
E380
C380
0380
1F00
1F00
1C00
ENDCHAR
STARTCHAR 04C8
ENCODING 1224
SWIDTH 495 0
DWIDTH 11 0
BBX 11 14 1 -4
BITMAP
38E0
38C0
31C0
71C0
7FC0
7F80
6380
E380
E380
E300
0700
1F00
1E00
1C00
ENDCHAR
STARTCHAR 04C9
ENCODING 1225
SWIDTH 495 0
DWIDTH 11 0
BBX 11 17 1 -4
BITMAP
1C60
18E0
38E0
38E0
38C0
31C0
7FC0
7FC0
7180
6180
E380
E3C0
E3C0
C380
0180
0300
0600
ENDCHAR
STARTCHAR 04CA
ENCODING 1226
SWIDTH 495 0
DWIDTH 11 0
BBX 11 13 1 -3
BITMAP
38E0
38C0
31C0
71C0
7FC0
7F80
6380
E3C0
E3C0
E3C0
0180
0300
0200
ENDCHAR
STARTCHAR 04CB
ENCODING 1227
SWIDTH 495 0
DWIDTH 11 0
BBX 10 18 3 -4
BITMAP
61C0
E180
E180
E380
C380
C380
C300
FF00
FF00
0700
0600
0E00
1E00
1E00
1800
3800
3800
3000
ENDCHAR
STARTCHAR 04CC
ENCODING 1228
SWIDTH 495 0
DWIDTH 11 0
BBX 9 13 2 -3
BITMAP
6180
E380
E380
E380
FF00
FF00
3F00
0700
0E00
1E00
1C00
1800
1800
ENDCHAR
STARTCHAR 04CD
ENCODING 1229
SWIDTH 495 0
DWIDTH 11 0
BBX 12 17 0 -4
BITMAP
0C30
0E70
1E70
1EF0
1EB0
3FF0
3760
3760
3660
70E0
60E0
60E0
60E0
E1C0
00C0
0180
0300
ENDCHAR
STARTCHAR 04CE
ENCODING 1230
SWIDTH 495 0
DWIDTH 11 0
BBX 11 13 0 -3
BITMAP
1CE0
1CE0
3DE0
3DE0
3F60
7FE0
6EC0
6EE0
60E0
E1E0
00C0
0180
0180
ENDCHAR
STARTCHAR 04CF
ENCODING 1231
SWIDTH 495 0
DWIDTH 11 0
BBX 12 14 1 0
BITMAP
1FF0
1FF0
1FE0
0700
0700
0700
0600
0E00
0E00
0E00
0C00
1C00
FF80
FF80
ENDCHAR
STARTCHAR 04D0
ENCODING 1232
SWIDTH 495 0
DWIDTH 11 0
BBX 12 18 0 0
BITMAP
0330
03F0
01E0
0000
01C0
03C0
03C0
06C0
06C0
0CC0
1CC0
1CC0
38C0
3FE0
7FE0
70E0
60E0
E0E0
ENDCHAR
STARTCHAR 04D1
ENCODING 1233
SWIDTH 495 0
DWIDTH 11 0
BBX 11 15 1 0
BITMAP
0660
07E0
03C0
0000
0780
1FE0
3FC0
71C0
71C0
61C0
E180
E380
7380
7F80
3D80
ENDCHAR
STARTCHAR 04D2
ENCODING 1234
SWIDTH 495 0
DWIDTH 11 0
BBX 12 18 0 0
BITMAP
0330
0730
0630
0000
01C0
03C0
03C0
06C0
06C0
0CC0
1CC0
1CC0
38C0
3FE0
7FE0
70E0
60E0
E0E0
ENDCHAR
STARTCHAR 04D3
ENCODING 1235
SWIDTH 495 0
DWIDTH 11 0
BBX 12 15 1 0
BITMAP
0660
0E70
0E60
0000
0780
1FE0
3FC0
71C0
71C0
61C0
E180
E380
7380
7F80
3D80
ENDCHAR
STARTCHAR 04D4
ENCODING 1236
SWIDTH 495 0
DWIDTH 11 0
BBX 13 14 0 0
BITMAP
01F8
03F8
03F8
06C0
06C0
0DC0
1DE0
19E0
3980
3F80
7F00
7300
E3E0
E7E0
ENDCHAR
STARTCHAR 04D5
ENCODING 1237
SWIDTH 495 0
DWIDTH 11 0
BBX 11 11 1 0
BITMAP
38C0
7DE0
4F60
0E60
1E60
7FC0
EF80
CC00
DC00
FFC0
F7C0
ENDCHAR
STARTCHAR 04D6
ENCODING 1238
SWIDTH 495 0
DWIDTH 11 0
BBX 12 18 1 0
BITMAP
0630
07E0
03C0
0000
1FF0
1FE0
1FE0
1800
3800
3800
3F80
3F80
7000
7000
7000
6000
7F80
FF80
ENDCHAR
STARTCHAR 04D7
ENCODING 1239
SWIDTH 495 0
DWIDTH 11 0
BBX 10 15 2 0
BITMAP
18C0
1FC0
0F80
0000
0F00
3F80
7BC0
61C0
E380
FF80
FE00
C000
E000
FF00
7F00
ENDCHAR
STARTCHAR 04D8
ENCODING 1240
SWIDTH 495 0
DWIDTH 11 0
BBX 11 14 1 0
BITMAP
1F80
1FC0
11E0
00E0
00E0
00E0
7FE0
7FE0
E0C0
E1C0
E1C0
6380
7F00
3E00
ENDCHAR
STARTCHAR 04D9
ENCODING 1241
SWIDTH 495 0
DWIDTH 11 0
BBX 10 11 1 0
BITMAP
1E00
3F80
3FC0
01C0
07C0
3FC0
71C0
E1C0
E380
FF00
7E00
ENDCHAR
STARTCHAR 04DA
ENCODING 1242
SWIDTH 495 0
DWIDTH 11 0
BBX 11 18 1 0
BITMAP
0CE0
0EE0
0CC0
0000
1F80
1FC0
11E0
00E0
00E0
00E0
7FE0
7FE0
E0C0
E1C0
E1C0
6380
7F00
3E00
ENDCHAR
STARTCHAR 04DB
ENCODING 1243
SWIDTH 495 0
DWIDTH 11 0
BBX 10 15 1 0
BITMAP
0CC0
1CC0
1CC0
0000
1E00
3F80
3FC0
01C0
07C0
3FC0
71C0
E1C0
E380
FF00
7E00
ENDCHAR
STARTCHAR 04DC
ENCODING 1244
SWIDTH 495 0
DWIDTH 11 0
BBX 14 18 0 0
BITMAP
0338
0738
0330
0000
198C
1998
0DB8
0DB0
0FE0
0FE0
0FC0
0FC0
1FC0
36C0
36C0
66E0
EEE0
CCE0
ENDCHAR
STARTCHAR 04DD
ENCODING 1245
SWIDTH 495 0
DWIDTH 11 0
BBX 13 15 0 0
BITMAP
0670
0670
0660
0000
2018
3338
1B60
1B60
1B40
1FC0
1FC0
36C0
36C0
E4E0
ECE0
ENDCHAR
STARTCHAR 04DE
ENCODING 1246
SWIDTH 495 0
DWIDTH 11 0
BBX 11 18 1 0
BITMAP
0E60
0EE0
0C60
0000
1F80
1FC0
19E0
00E0
00C0
03C0
1F00
1F80
01C0
01C0
01C0
8380
FF80
FE00
ENDCHAR
STARTCHAR 04DF
ENCODING 1247
SWIDTH 495 0
DWIDTH 11 0
BBX 11 15 1 0
BITMAP
0C60
0EE0
0CC0
0000
0F00
3FC0
3FC0
01C0
0380
1F00
1F80
0180
0380
FF80
FE00
ENDCHAR
STARTCHAR 04E0
ENCODING 1248
SWIDTH 495 0
DWIDTH 11 0
BBX 12 14 1 0
BITMAP
1FF0
1FE0
1FE0
01C0
0380
0700
0F00
0F80
01C0
01C0
01C0
4380
FF80
FF00
ENDCHAR
STARTCHAR 04E1
ENCODING 1249
SWIDTH 495 0
DWIDTH 11 0
BBX 11 14 0 -4
BITMAP
1FE0
1FE0
01C0
0380
0700
0E00
0F80
0380
01C0
01C0
0380
7F80
FF00
3800
ENDCHAR
STARTCHAR 04E2
ENCODING 1250
SWIDTH 495 0
DWIDTH 11 0
BBX 12 17 1 0
BITMAP
07E0
0000
0000
1870
1870
38E0
39E0
33E0
33E0
76E0
7CC0
6CC0
79C0
F1C0
F180
E180
C380
ENDCHAR
STARTCHAR 04E3
ENCODING 1251
SWIDTH 495 0
DWIDTH 11 0
BBX 9 14 2 0
BITMAP
1F80
1F80
0000
0000
7180
7380
6380
E380
E300
E300
C700
E700
FF00
FB00
ENDCHAR
STARTCHAR 04E4
ENCODING 1252
SWIDTH 495 0
DWIDTH 11 0
BBX 12 18 1 0
BITMAP
0660
0E70
0E60
0000
1870
1870
38E0
39E0
33E0
33E0
76E0
7CC0
6CC0
79C0
F1C0
F180
E180
C380
ENDCHAR
STARTCHAR 04E5
ENCODING 1253
SWIDTH 495 0
DWIDTH 11 0
BBX 10 15 2 0
BITMAP
1980
39C0
3980
0000
0000
7180
7380
6380
E380
E300
E300
C700
E700
FF00
FB00
ENDCHAR
STARTCHAR 04E6
ENCODING 1254
SWIDTH 495 0
DWIDTH 11 0
BBX 11 18 1 0
BITMAP
0660
0EE0
0C60
0000
0780
1FC0
1CE0
38E0
30E0
70E0
70E0
60E0
60C0
E1C0
61C0
7380
7F00
3E00
ENDCHAR
STARTCHAR 04E7
ENCODING 1255
SWIDTH 495 0
DWIDTH 11 0
BBX 11 15 1 0
BITMAP
0CC0
1CE0
0CC0
0000
0700
1F80
3FC0
71C0
71C0
61C0
E1C0
E1C0
7380
7F00
3E00
ENDCHAR
STARTCHAR 04E8
ENCODING 1256
SWIDTH 495 0
DWIDTH 11 0
BBX 10 14 2 0
BITMAP
0F00
3F80
39C0
71C0
61C0
E1C0
FFC0
FFC0
C180
C380
C380
E700
FE00
7C00
ENDCHAR
STARTCHAR 04E9
ENCODING 1257
SWIDTH 495 0
DWIDTH 11 0
BBX 10 11 1 0
BITMAP
0700
1F80
3FC0
71C0
70C0
7FC0
FFC0
E1C0
7380
7F00
3E00
ENDCHAR
STARTCHAR 04EA
ENCODING 1258
SWIDTH 495 0
DWIDTH 11 0
BBX 10 18 2 0
BITMAP
0CC0
1DC0
18C0
0000
0F00
3F80
39C0
71C0
61C0
E1C0
FFC0
FFC0
C180
C380
C380
E700
FE00
7C00
ENDCHAR
STARTCHAR 04EB
ENCODING 1259
SWIDTH 495 0
DWIDTH 11 0
BBX 11 15 1 0
BITMAP
0CC0
1CE0
0CC0
0000
0700
1F80
3FC0
71C0
70C0
7FC0
FFC0
E1C0
7380
7F00
3E00
ENDCHAR
STARTCHAR 04EC
ENCODING 1260
SWIDTH 495 0
DWIDTH 11 0
BBX 11 18 1 0
BITMAP
0E60
0EE0
0C60
0000
1F00
1F80
13C0
00C0
00E0
00E0
0FE0
1FC0
01C0
01C0
0380
8780
FF00
FE00
ENDCHAR
STARTCHAR 04ED
ENCODING 1261
SWIDTH 495 0
DWIDTH 11 0
BBX 11 15 1 0
BITMAP
0CC0
1CE0
0CC0
0000
1E00
3F80
3FC0
01C0
01C0
1FC0
1FC0
01C0
0780
7F00
FE00
ENDCHAR
STARTCHAR 04EE
ENCODING 1262
SWIDTH 495 0
DWIDTH 11 0
BBX 14 17 0 0
BITMAP
03F0
0000
0000
1C1C
1C38
1C38
0C70
0E60
0EE0
0FC0
07C0
0780
0700
0700
0E00
7C00
F800
ENDCHAR
STARTCHAR 04EF
ENCODING 1263
SWIDTH 495 0
DWIDTH 11 0
BBX 13 18 -1 -4
BITMAP
03F0
03F0
0000
0000
0C38
0C30
0E70
0E70
0EE0
0EE0
0FC0
0780
0780
0700
0E00
7E00
F800
7000
ENDCHAR
STARTCHAR 04F0
ENCODING 1264
SWIDTH 495 0
DWIDTH 11 0
BBX 14 18 0 0
BITMAP
0338
0738
0330
0000
1C1C
1C38
1C38
0C70
0E60
0EE0
0FC0
07C0
0780
0700
0700
0E00
7C00
F800
ENDCHAR
STARTCHAR 04F1
ENCODING 1265
SWIDTH 495 0
DWIDTH 11 0
BBX 13 19 -1 -4
BITMAP
0330
0770
0730
0000
0000
0C38
0C30
0E70
0E70
0EE0
0EE0
0FC0
0780
0780
0700
0E00
7E00
F800
7000
ENDCHAR
STARTCHAR 04F2
ENCODING 1266
SWIDTH 495 0
DWIDTH 11 0
BBX 14 18 0 0
BITMAP
008C
03DC
0338
0000
1C1C
1C38
1C38
0C70
0E60
0EE0
0FC0
07C0
0780
0700
0700
0E00
7C00
F800
ENDCHAR
STARTCHAR 04F3
ENCODING 1267
SWIDTH 495 0
DWIDTH 11 0
BBX 14 19 -1 -4
BITMAP
008C
01DC
0338
0000
0000
0C38
0C30
0E70
0E70
0EE0
0EE0
0FC0
0780
0780
0700
0E00
7E00
F800
7000
ENDCHAR
STARTCHAR 04F4
ENCODING 1268
SWIDTH 495 0
DWIDTH 11 0
BBX 10 18 3 0
BITMAP
3980
3B80
3180
0000
61C0
E180
E180
E380
C380
C380
C300
FF00
FF00
0700
0600
0E00
0E00
0E00
ENDCHAR
STARTCHAR 04F5
ENCODING 1269
SWIDTH 495 0
DWIDTH 11 0
BBX 10 15 2 0
BITMAP
1980
39C0
1980
0000
0000
6180
E380
E380
E380
FF00
FF00
3F00
0700
0600
0E00
ENDCHAR
STARTCHAR 04F6
ENCODING 1270
SWIDTH 495 0
DWIDTH 11 0
BBX 13 18 0 -4
BITMAP
03F8
07F8
07F8
0700
0600
0E00
0E00
0E00
0C00
1C00
1C00
1C00
7F00
FF00
0700
0700
0600
0600
ENDCHAR
STARTCHAR 04F7
ENCODING 1271
SWIDTH 495 0
DWIDTH 11 0
BBX 9 14 2 -3
BITMAP
1E00
3F80
3F80
0380
0780
3F00
FC00
E000
C000
FF00
7E00
0600
0E00
0E00
ENDCHAR
STARTCHAR 04F8
ENCODING 1272
SWIDTH 495 0
DWIDTH 11 0
BBX 13 18 0 0
BITMAP
0730
0770
0630
0000
0C18
1818
1818
1838
1830
3E30
3F30
3370
3360
6360
6760
66E0
7EC0
FCC0
ENDCHAR
STARTCHAR 04F9
ENCODING 1273
SWIDTH 495 0
DWIDTH 11 0
BBX 11 15 1 0
BITMAP
0CC0
1CE0
0CC0
0000
0000
3060
7060
6060
78C0
7CC0
EEC0
C6C0
CD80
FD80
F980
ENDCHAR
STARTCHAR 1E80
ENCODING 7808
SWIDTH 495 0
DWIDTH 11 0
BBX 12 18 1 0
BITMAP
0300
0780
01C0
0000
3830
3830
3030
3070
3060
7660
6660
6EE0
6AC0
7AC0
F3C0
F380
E380
E380
ENDCHAR
STARTCHAR 1E81
ENCODING 7809
SWIDTH 495 0
DWIDTH 11 0
BBX 12 15 1 0
BITMAP
0600
0F00
0380
0100
0000
6070
6060
6660
6EE0
6EC0
7AC0
5B80
F380
E380
E300
ENDCHAR
STARTCHAR 1E82
ENCODING 7810
SWIDTH 495 0
DWIDTH 11 0
BBX 12 18 1 0
BITMAP
00C0
01E0
0380
0000
3830
3830
3030
3070
3060
7660
6660
6EE0
6AC0
7AC0
F3C0
F380
E380
E380
ENDCHAR
STARTCHAR 1E83
ENCODING 7811
SWIDTH 495 0
DWIDTH 11 0
BBX 12 15 1 0
BITMAP
0180
03C0
0700
0000
0000
6070
6060
6660
6EE0
6EC0
7AC0
5B80
F380
E380
E300
ENDCHAR
STARTCHAR 1E84
ENCODING 7812
SWIDTH 495 0
DWIDTH 11 0
BBX 12 18 1 0
BITMAP
0670
0E70
0660
0000
3830
3830
3030
3070
3060
7660
6660
6EE0
6AC0
7AC0
F3C0
F380
E380
E380
ENDCHAR
STARTCHAR 1E85
ENCODING 7813
SWIDTH 495 0
DWIDTH 11 0
BBX 12 15 1 0
BITMAP
0C60
0EE0
0CE0
0000
0000
6070
6060
6660
6EE0
6EC0
7AC0
5B80
F380
E380
E300
ENDCHAR
STARTCHAR 1EF2
ENCODING 7922
SWIDTH 495 0
DWIDTH 11 0
BBX 11 18 3 0
BITMAP
1800
1E00
0E00
0200
E0E0
E1C0
6380
6380
6700
7600
7E00
3C00
3800
3800
3000
7000
7000
7000
ENDCHAR
STARTCHAR 1EF3
ENCODING 7923
SWIDTH 495 0
DWIDTH 11 0
BBX 13 19 -1 -4
BITMAP
0100
03C0
01E0
0040
0000
0C38
0C30
0E70
0E70
0EE0
0EE0
0FC0
0780
0780
0700
0E00
7E00
F800
7000
ENDCHAR
STARTCHAR 1F00
ENCODING 7936
SWIDTH 495 0
DWIDTH 11 0
BBX 10 16 1 0
BITMAP
0180
0180
0180
0300
0000
0780
1FC0
3FC0
71C0
71C0
61C0
E180
E380
7380
7FC0
3D80
ENDCHAR
STARTCHAR 1F01
ENCODING 7937
SWIDTH 495 0
DWIDTH 11 0
BBX 10 16 1 0
BITMAP
0380
0380
0300
0180
0000
0780
1FC0
3FC0
71C0
71C0
61C0
E180
E380
7380
7FC0
3D80
ENDCHAR
STARTCHAR 1F02
ENCODING 7938
SWIDTH 495 0
DWIDTH 11 0
BBX 11 16 1 0
BITMAP
0EC0
0E60
0660
0C20
0000
0780
1FC0
3FC0
71C0
71C0
61C0
E180
E380
7380
7FC0
3D80
ENDCHAR
STARTCHAR 1F03
ENCODING 7939
SWIDTH 495 0
DWIDTH 11 0
BBX 11 16 1 0
BITMAP
0FC0
0CC0
0CC0
0460
0000
0780
1FC0
3FC0
71C0
71C0
61C0
E180
E380
7380
7FC0
3D80
ENDCHAR
STARTCHAR 1F04
ENCODING 7940
SWIDTH 495 0
DWIDTH 11 0
BBX 12 16 1 0
BITMAP
0730
0770
0660
0CC0
0000
0780
1FC0
3FC0
71C0
71C0
61C0
E180
E380
7380
7FC0
3D80
ENDCHAR
STARTCHAR 1F05
ENCODING 7941
SWIDTH 495 0
DWIDTH 11 0
BBX 11 16 1 0
BITMAP
0E60
0E60
0CC0
0780
0000
0780
1FC0
3FC0
71C0
71C0
61C0
E180
E380
7380
7FC0
3D80
ENDCHAR
STARTCHAR 1F06
ENCODING 7942
SWIDTH 495 0
DWIDTH 11 0
BBX 11 18 1 0
BITMAP
03E0
0760
0620
0180
0180
0100
0000
0780
1FC0
3FC0
71C0
71C0
61C0
E180
E380
7380
7FC0
3D80
ENDCHAR
STARTCHAR 1F07
ENCODING 7943
SWIDTH 495 0
DWIDTH 11 0
BBX 11 18 1 0
BITMAP
03C0
0760
0620
0180
0180
0180
0000
0780
1FC0
3FC0
71C0
71C0
61C0
E180
E380
7380
7FC0
3D80
ENDCHAR
STARTCHAR 1F08
ENCODING 7944
SWIDTH 495 0
DWIDTH 11 0
BBX 11 14 0 0
BITMAP
39C0
3BC0
1BC0
36C0
26C0
0CC0
1CC0
1CC0
38C0
3FE0
7FE0
70E0
60E0
E0E0
ENDCHAR
STARTCHAR 1F09
ENCODING 7945
SWIDTH 495 0
DWIDTH 11 0
BBX 11 14 0 0
BITMAP
71C0
73C0
63C0
36C0
06C0
0CC0
1CC0
1CC0
38C0
3FE0
7FE0
70E0
60E0
E0E0
ENDCHAR
STARTCHAR 1F0A
ENCODING 7946
SWIDTH 495 0
DWIDTH 11 0
BBX 14 14 -3 0
BITMAP
EC38
EC78
6678
C6D8
80D8
0198
0398
0398
0718
07FC
0FFC
0E1C
0C1C
1C1C
ENDCHAR
STARTCHAR 1F0B
ENCODING 7947
SWIDTH 495 0
DWIDTH 11 0
BBX 14 14 -3 0
BITMAP
EC38
EC78
C678
66D8
00D8
0198
0398
0398
0718
07FC
0FFC
0E1C
0C1C
1C1C
ENDCHAR
STARTCHAR 1F0C
ENCODING 7948
SWIDTH 495 0
DWIDTH 11 0
BBX 13 14 -2 0
BITMAP
E670
E6F0
CCF0
D9B0
01B0
0330
0730
0730
0E30
0FF8
1FF8
1C38
1838
3838
ENDCHAR
STARTCHAR 1F0D
ENCODING 7949
SWIDTH 495 0
DWIDTH 11 0
BBX 13 14 -2 0
BITMAP
C670
C6F0
8CF0
D9B0
41B0
0330
0730
0730
0E30
0FF8
1FF8
1C38
1838
3838
ENDCHAR
STARTCHAR 1F0E
ENCODING 7950
SWIDTH 495 0
DWIDTH 11 0
BBX 12 16 -1 0
BITMAP
3C00
7C00
C6E0
31E0
39E0
3360
2360
0660
0E60
0E60
1C60
1FF0
3FF0
3870
3070
7070
ENDCHAR
STARTCHAR 1F0F
ENCODING 7951
SWIDTH 495 0
DWIDTH 11 0
BBX 12 16 -1 0
BITMAP
3C00
7C00
C6E0
31E0
31E0
1360
0360
0660
0E60
0E60
1C60
1FF0
3FF0
3870
3070
7070
ENDCHAR
STARTCHAR 1F10
ENCODING 7952
SWIDTH 495 0
DWIDTH 11 0
BBX 9 16 2 0
BITMAP
0300
0300
0300
0600
0000
0F00
3F80
7F80
6000
7000
3E00
FE00
C000
E000
FF00
7F00
ENDCHAR
STARTCHAR 1F11
ENCODING 7953
SWIDTH 495 0
DWIDTH 11 0
BBX 9 16 2 0
BITMAP
0700
0700
0600
0300
0000
0F00
3F80
7F80
6000
7000
3E00
FE00
C000
E000
FF00
7F00
ENDCHAR
STARTCHAR 1F12
ENCODING 7954
SWIDTH 495 0
DWIDTH 11 0
BBX 10 16 2 0
BITMAP
1D80
1CC0
0CC0
1840
0000
0F00
3F80
7F80
6000
7000
3E00
FE00
C000
E000
FF00
7F00
ENDCHAR
STARTCHAR 1F13
ENCODING 7955
SWIDTH 495 0
DWIDTH 11 0
BBX 10 16 2 0
BITMAP
1F80
1980
1980
08C0
0000
0F00
3F80
7F80
6000
7000
3E00
FE00
C000
E000
FF00
7F00
ENDCHAR
STARTCHAR 1F14
ENCODING 7956
SWIDTH 495 0
DWIDTH 11 0
BBX 11 16 2 0
BITMAP
0E60
0EE0
0CC0
1980
0000
0F00
3F80
7F80
6000
7000
3E00
FE00
C000
E000
FF00
7F00
ENDCHAR
STARTCHAR 1F15
ENCODING 7957
SWIDTH 495 0
DWIDTH 11 0
BBX 10 16 2 0
BITMAP
1CC0
1CC0
1980
0F00
0000
0F00
3F80
7F80
6000
7000
3E00
FE00
C000
E000
FF00
7F00
ENDCHAR
STARTCHAR 1F18
ENCODING 7960
SWIDTH 495 0
DWIDTH 11 0
BBX 13 14 0 0
BITMAP
6FF8
EFF0
6FF0
CC00
9C00
1C00
1FC0
1FC0
3800
3800
3800
3000
3FC0
7FC0
ENDCHAR
STARTCHAR 1F19
ENCODING 7961
SWIDTH 495 0
DWIDTH 11 0
BBX 13 14 0 0
BITMAP
EFF8
EFF0
CFF0
CC00
5C00
1C00
1FC0
1FC0
3800
3800
3800
3000
3FC0
7FC0
ENDCHAR
STARTCHAR 1F1A
ENCODING 7962
SWIDTH 495 0
DWIDTH 11 0
BBX 18 14 -5 0
BITMAP
667FC0
767F80
667F80
C36000
02E000
00E000
00FE00
00FE00
01C000
01C000
01C000
018000
01FE00
03FE00
ENDCHAR
STARTCHAR 1F1B
ENCODING 7963
SWIDTH 495 0
DWIDTH 11 0
BBX 17 14 -4 0
BITMAP
ECFF80
ECFF00
CCFF00
46C000
45C000
01C000
01FC00
01FC00
038000
038000
038000
030000
03FC00
07FC00
ENDCHAR
STARTCHAR 1F1C
ENCODING 7964
SWIDTH 495 0
DWIDTH 11 0
BBX 17 14 -4 0
BITMAP
E6FF80
E6FF00
CCFF00
D8C000
01C000
01C000
01FC00
01FC00
038000
038000
038000
030000
03FC00
07FC00
ENDCHAR
STARTCHAR 1F1D
ENCODING 7965
SWIDTH 495 0
DWIDTH 11 0
BBX 18 14 -5 0
BITMAP
637FC0
E77F80
467F80
6C6000
20E000
00E000
00FE00
00FE00
01C000
01C000
01C000
018000
01FE00
03FE00
ENDCHAR
STARTCHAR 1F20
ENCODING 7968
SWIDTH 495 0
DWIDTH 11 0
BBX 10 20 1 -4
BITMAP
0180
0180
0180
0300
0000
0F00
3F80
3FC0
39C0
31C0
71C0
7180
7180
6380
E380
E380
0300
0700
0700
0700
ENDCHAR
STARTCHAR 1F21
ENCODING 7969
SWIDTH 495 0
DWIDTH 11 0
BBX 10 20 1 -4
BITMAP
0380
0380
0300
0180
0000
0F00
3F80
3FC0
39C0
31C0
71C0
7180
7180
6380
E380
E380
0300
0700
0700
0700
ENDCHAR
STARTCHAR 1F22
ENCODING 7970
SWIDTH 495 0
DWIDTH 11 0
BBX 11 20 1 -4
BITMAP
0EC0
0E60
0660
0C20
0000
0F00
3F80
3FC0
39C0
31C0
71C0
7180
7180
6380
E380
E380
0300
0700
0700
0700
ENDCHAR
STARTCHAR 1F23
ENCODING 7971
SWIDTH 495 0
DWIDTH 11 0
BBX 11 20 1 -4
BITMAP
0FC0
0CC0
0CC0
0460
0000
0F00
3F80
3FC0
39C0
31C0
71C0
7180
7180
6380
E380
E380
0300
0700
0700
0700
ENDCHAR
STARTCHAR 1F24
ENCODING 7972
SWIDTH 495 0
DWIDTH 11 0
BBX 12 20 1 -4
BITMAP
0730
0770
0660
0CC0
0000
0F00
3F80
3FC0
39C0
31C0
71C0
7180
7180
6380
E380
E380
0300
0700
0700
0700
ENDCHAR
STARTCHAR 1F25
ENCODING 7973
SWIDTH 495 0
DWIDTH 11 0
BBX 11 20 1 -4
BITMAP
0E60
0E60
0CC0
0780
0000
0F00
3F80
3FC0
39C0
31C0
71C0
7180
7180
6380
E380
E380
0300
0700
0700
0700
ENDCHAR
STARTCHAR 1F26
ENCODING 7974
SWIDTH 495 0
DWIDTH 11 0
BBX 11 22 1 -4
BITMAP
03C0
0760
0420
0180
0180
0300
0000
0F00
3F80
3FC0
39C0
31C0
71C0
7180
7180
6380
E380
E380
0300
0700
0700
0700
ENDCHAR
STARTCHAR 1F27
ENCODING 7975
SWIDTH 495 0
DWIDTH 11 0
BBX 11 22 1 -4
BITMAP
03C0
0660
0460
0180
0380
0180
0000
0F00
3F80
3FC0
39C0
31C0
71C0
7180
7180
6380
E380
E380
0300
0700
0700
0700
ENDCHAR
STARTCHAR 1F28
ENCODING 7976
SWIDTH 495 0
DWIDTH 11 0
BBX 14 14 -1 0
BITMAP
671C
761C
6E18
CE38
0E38
0C38
1FF8
1FF0
1C70
1870
3870
3860
38E0
30E0
ENDCHAR
STARTCHAR 1F29
ENCODING 7977
SWIDTH 495 0
DWIDTH 11 0
BBX 14 14 -1 0
BITMAP
E71C
E61C
CE18
6E38
0E38
0C38
1FF8
1FF0
1C70
1870
3870
3860
38E0
30E0
ENDCHAR
STARTCHAR 1F2A
ENCODING 7978
SWIDTH 495 0
DWIDTH 11 0
BBX 18 14 -5 0
BITMAP
EC71C0
EC61C0
66E180
C6E380
80E380
00C380
01FF80
01FF00
01C700
018700
038700
038600
038E00
030E00
ENDCHAR
STARTCHAR 1F2B
ENCODING 7979
SWIDTH 495 0
DWIDTH 11 0
BBX 18 14 -5 0
BITMAP
EC71C0
EC61C0
C6E180
66E380
00E380
00C380
01FF80
01FF00
01C700
018700
038700
038600
038E00
030E00
ENDCHAR
STARTCHAR 1F2C
ENCODING 7980
SWIDTH 495 0
DWIDTH 11 0
BBX 18 14 -5 0
BITMAP
E271C0
E661C0
6CE180
DCE380
88E380
00C380
01FF80
01FF00
01C700
018700
038700
038600
038E00
030E00
ENDCHAR
STARTCHAR 1F2D
ENCODING 7981
SWIDTH 495 0
DWIDTH 11 0
BBX 18 14 -5 0
BITMAP
E271C0
E661C0
CEE180
5CE380
08E380
00C380
01FF80
01FF00
01C700
018700
038700
038600
038E00
030E00
ENDCHAR
STARTCHAR 1F2E
ENCODING 7982
SWIDTH 495 0
DWIDTH 11 0
BBX 16 16 -3 0
BITMAP
7800
FC00
8DC7
3187
7386
238E
438E
030E
07FE
07FC
071C
061C
0E1C
0E18
0E38
0C38
ENDCHAR
STARTCHAR 1F2F
ENCODING 7983
SWIDTH 495 0
DWIDTH 11 0
BBX 16 16 -3 0
BITMAP
7800
FC00
8DC7
3187
7386
238E
038E
030E
07FE
07FC
071C
061C
0E1C
0E18
0E38
0C38
ENDCHAR
STARTCHAR 1F30
ENCODING 7984
SWIDTH 495 0
DWIDTH 11 0
BBX 7 16 3 0
BITMAP
0E
0E
06
0C
00
00
F8
F8
38
38
30
70
70
70
7E
3E
ENDCHAR
STARTCHAR 1F31
ENCODING 7985
SWIDTH 495 0
DWIDTH 11 0
BBX 7 16 3 0
BITMAP
0E
0C
0C
04
00
00
F8
F8
38
38
30
70
70
70
7E
3E
ENDCHAR
STARTCHAR 1F32
ENCODING 7986
SWIDTH 495 0
DWIDTH 11 0
BBX 9 16 3 0
BITMAP
3B00
3B80
1180
6180
0000
0000
F800
F800
3800
3800
3000
7000
7000
7000
7E00
3E00
ENDCHAR
STARTCHAR 1F33
ENCODING 7987
SWIDTH 495 0
DWIDTH 11 0
BBX 9 16 3 0
BITMAP
3600
7300
2300
3180
0000
0000
F800
F800
3800
3800
3000
7000
7000
7000
7E00
3E00
ENDCHAR
STARTCHAR 1F34
ENCODING 7988
SWIDTH 495 0
DWIDTH 11 0
BBX 10 16 3 0
BITMAP
1CC0
1DC0
1B80
3300
0000
0000
F800
F800
3800
3800
3000
7000
7000
7000
7E00
3E00
ENDCHAR
STARTCHAR 1F35
ENCODING 7989
SWIDTH 495 0
DWIDTH 11 0
BBX 9 16 3 0
BITMAP
3980
3380
3300
1600
0000
0000
F800
F800
3800
3800
3000
7000
7000
7000
7E00
3E00
ENDCHAR
STARTCHAR 1F36
ENCODING 7990
SWIDTH 495 0
DWIDTH 11 0
BBX 9 18 3 0
BITMAP
0F00
1B80
3180
0E00
0E00
0C00
0000
0000
F800
F800
3800
3800
3000
7000
7000
7000
7E00
3E00
ENDCHAR
STARTCHAR 1F37
ENCODING 7991
SWIDTH 495 0
DWIDTH 11 0
BBX 9 18 3 0
BITMAP
1F00
1B00
3180
0C00
0C00
0400
0000
0000
F800
F800
3800
3800
3000
7000
7000
7000
7E00
3E00
ENDCHAR
STARTCHAR 1F38
ENCODING 7992
SWIDTH 495 0
DWIDTH 11 0
BBX 14 14 -1 0
BITMAP
77FC
77FC
67F8
C1C0
01C0
01C0
0180
0380
0380
0380
0300
0700
3FE0
3FE0
ENDCHAR
STARTCHAR 1F39
ENCODING 7993
SWIDTH 495 0
DWIDTH 11 0
BBX 13 14 0 0
BITMAP
CFF8
CFF8
8FF0
C380
4380
0380
0300
0700
0700
0700
0600
0E00
7FC0
7FC0
ENDCHAR
STARTCHAR 1F3A
ENCODING 7994
SWIDTH 495 0
DWIDTH 11 0
BBX 18 14 -5 0
BITMAP
647FC0
EE7FC0
667F80
C61C00
821C00
001C00
001800
003800
003800
003800
003000
007000
03FE00
03FE00
ENDCHAR
STARTCHAR 1F3B
ENCODING 7995
SWIDTH 495 0
DWIDTH 11 0
BBX 17 14 -4 0
BITMAP
ECFF80
ECFF80
CCFF00
463800
043800
003800
003000
007000
007000
007000
006000
00E000
07FC00
07FC00
ENDCHAR
STARTCHAR 1F3C
ENCODING 7996
SWIDTH 495 0
DWIDTH 11 0
BBX 18 14 -5 0
BITMAP
627FC0
677FC0
6E7F80
CC1C00
881C00
001C00
001800
003800
003800
003800
003000
007000
03FE00
03FE00
ENDCHAR
STARTCHAR 1F3D
ENCODING 7997
SWIDTH 495 0
DWIDTH 11 0
BBX 18 14 -5 0
BITMAP
E27FC0
E77FC0
CE7F80
6C1C00
081C00
001C00
001800
003800
003800
003800
003000
007000
03FE00
03FE00
ENDCHAR
STARTCHAR 1F3E
ENCODING 7998
SWIDTH 495 0
DWIDTH 11 0
BBX 16 16 -3 0
BITMAP
7800
FC00
CDFF
31FF
31FE
2070
4070
0070
0060
00E0
00E0
00E0
00C0
01C0
0FF8
0FF8
ENDCHAR
STARTCHAR 1F3F
ENCODING 7999
SWIDTH 495 0
DWIDTH 11 0
BBX 16 16 -3 0
BITMAP
7800
FC00
C5FF
31FF
31FE
2070
1070
0070
0060
00E0
00E0
00E0
00C0
01C0
0FF8
0FF8
ENDCHAR
STARTCHAR 1F40
ENCODING 8000
SWIDTH 495 0
DWIDTH 11 0
BBX 10 16 1 0
BITMAP
0180
0180
0180
0300
0000
0700
1F80
3FC0
71C0
71C0
61C0
E1C0
E1C0
7380
7F00
3E00
ENDCHAR
STARTCHAR 1F41
ENCODING 8001
SWIDTH 495 0
DWIDTH 11 0
BBX 10 16 1 0
BITMAP
0380
0380
0300
0180
0000
0700
1F80
3FC0
71C0
71C0
61C0
E1C0
E1C0
7380
7F00
3E00
ENDCHAR
STARTCHAR 1F42
ENCODING 8002
SWIDTH 495 0
DWIDTH 11 0
BBX 11 16 1 0
BITMAP
0EC0
0E60
0660
0C20
0000
0700
1F80
3FC0
71C0
71C0
61C0
E1C0
E1C0
7380
7F00
3E00
ENDCHAR
STARTCHAR 1F43
ENCODING 8003
SWIDTH 495 0
DWIDTH 11 0
BBX 11 16 1 0
BITMAP
0FC0
0CC0
0CC0
0460
0000
0700
1F80
3FC0
71C0
71C0
61C0
E1C0
E1C0
7380
7F00
3E00
ENDCHAR
STARTCHAR 1F44
ENCODING 8004
SWIDTH 495 0
DWIDTH 11 0
BBX 12 16 1 0
BITMAP
0730
0770
0660
0CC0
0000
0700
1F80
3FC0
71C0
71C0
61C0
E1C0
E1C0
7380
7F00
3E00
ENDCHAR
STARTCHAR 1F45
ENCODING 8005
SWIDTH 495 0
DWIDTH 11 0
BBX 11 16 1 0
BITMAP
0E60
0E60
0CC0
0780
0000
0700
1F80
3FC0
71C0
71C0
61C0
E1C0
E1C0
7380
7F00
3E00
ENDCHAR
STARTCHAR 1F48
ENCODING 8008
SWIDTH 495 0
DWIDTH 11 0
BBX 12 14 0 0
BITMAP
E3C0
EFE0
CE70
DC70
1870
3870
3870
3070
3060
70E0
30E0
39C0
3F80
1F00
ENDCHAR
STARTCHAR 1F49
ENCODING 8009
SWIDTH 495 0
DWIDTH 11 0
BBX 13 14 -1 0
BITMAP
E1E0
E7F0
C738
6E38
0C38
1C38
1C38
1838
1830
3870
1870
1CE0
1FC0
0F80
ENDCHAR
STARTCHAR 1F4A
ENCODING 8010
SWIDTH 495 0
DWIDTH 11 0
BBX 17 14 -5 0
BITMAP
EC1E00
EC7F00
CE7380
C6E380
04C380
01C380
01C380
018380
018300
038700
018700
01CE00
01FC00
00F800
ENDCHAR
STARTCHAR 1F4B
ENCODING 8011
SWIDTH 495 0
DWIDTH 11 0
BBX 17 14 -5 0
BITMAP
EC1E00
EC7F00
C67380
66E380
00C380
01C380
01C380
018380
018300
018700
018700
01CE00
01FC00
00F800
ENDCHAR
STARTCHAR 1F4C
ENCODING 8012
SWIDTH 495 0
DWIDTH 11 0
BBX 16 14 -4 0
BITMAP
E63C
E6FE
CCE7
D9C7
0187
0387
0387
0307
0306
070E
030E
039C
03F8
01F0
ENDCHAR
STARTCHAR 1F4D
ENCODING 8013
SWIDTH 495 0
DWIDTH 11 0
BBX 16 14 -4 0
BITMAP
E23C
E6FE
CCE7
59C7
4987
0387
0387
0307
0306
070E
030E
039C
03F8
01F0
ENDCHAR
STARTCHAR 1F50
ENCODING 8016
SWIDTH 495 0
DWIDTH 11 0
BBX 10 16 2 0
BITMAP
0300
0300
0300
0600
0000
0000
71C0
7180
6380
E380
E380
E300
E700
E700
FE00
7C00
ENDCHAR
STARTCHAR 1F51
ENCODING 8017
SWIDTH 495 0
DWIDTH 11 0
BBX 10 16 2 0
BITMAP
0700
0600
0600
0200
0000
0000
71C0
7180
6380
E380
E380
E300
E700
E700
FE00
7C00
ENDCHAR
STARTCHAR 1F52
ENCODING 8018
SWIDTH 495 0
DWIDTH 11 0
BBX 10 16 2 0
BITMAP
1D80
1D80
18C0
30C0
0000
0000
71C0
7180
6380
E380
E380
E300
E700
E700
FE00
7C00
ENDCHAR
STARTCHAR 1F53
ENCODING 8019
SWIDTH 495 0
DWIDTH 11 0
BBX 10 16 2 0
BITMAP
3B00
3B80
1180
1980
0000
0000
71C0
7180
6380
E380
E380
E300
E700
E700
FE00
7C00
ENDCHAR
STARTCHAR 1F54
ENCODING 8020
SWIDTH 495 0
DWIDTH 11 0
BBX 11 16 2 0
BITMAP
0C60
0CC0
0DC0
1980
0000
0000
71C0
7180
6380
E380
E380
E300
E700
E700
FE00
7C00
ENDCHAR
STARTCHAR 1F55
ENCODING 8021
SWIDTH 495 0
DWIDTH 11 0
BBX 10 16 2 0
BITMAP
1CC0
19C0
1980
0B00
0000
0000
71C0
7180
6380
E380
E380
E300
E700
E700
FE00
7C00
ENDCHAR
STARTCHAR 1F56
ENCODING 8022
SWIDTH 495 0
DWIDTH 11 0
BBX 10 18 2 0
BITMAP
0780
0CC0
08C0
0700
0300
0600
0000
0000
71C0
7180
6380
E380
E380
E300
E700
E700
FE00
7C00
ENDCHAR
STARTCHAR 1F57
ENCODING 8023
SWIDTH 495 0
DWIDTH 11 0
BBX 10 18 2 0
BITMAP
0780
0DC0
18C0
0700
0600
0200
0000
0000
71C0
7180
6380
E380
E380
E300
E700
E700
FE00
7C00
ENDCHAR
STARTCHAR 1F59
ENCODING 8025
SWIDTH 495 0
DWIDTH 11 0
BBX 15 14 -1 0
BITMAP
EE0E
EE1C
C638
6638
0670
0760
07E0
03C0
0380
0380
0300
0700
0700
0700
ENDCHAR
STARTCHAR 1F5B
ENCODING 8027
SWIDTH 495 0
DWIDTH 11 0
BBX 19 14 -5 0
BITMAP
64E0E0
EEE1C0
466380
666380
226700
007600
007E00
003C00
003800
003800
003000
007000
007000
007000
ENDCHAR
STARTCHAR 1F5D
ENCODING 8029
SWIDTH 495 0
DWIDTH 11 0
BBX 19 14 -5 0
BITMAP
C6E0E0
C6E1C0
8C6380
D86380
406700
007600
007E00
003C00
003800
003800
003000
007000
007000
007000
ENDCHAR
STARTCHAR 1F5F
ENCODING 8031
SWIDTH 495 0
DWIDTH 11 0
BBX 18 16 -4 0
BITMAP
380000
7C0000
C5C1C0
31C380
30C700
30C700
10CE00
00EC00
00FC00
007800
007000
007000
006000
00E000
00E000
00E000
ENDCHAR
STARTCHAR 1F60
ENCODING 8032
SWIDTH 495 0
DWIDTH 11 0
BBX 11 16 1 0
BITMAP
0180
0180
0180
0300
0000
1040
38C0
30C0
60E0
60E0
EEE0
CCC0
CCC0
DDC0
FFC0
F780
ENDCHAR
STARTCHAR 1F61
ENCODING 8033
SWIDTH 495 0
DWIDTH 11 0
BBX 11 16 1 0
BITMAP
0380
0300
0300
0100
0000
1040
38C0
30C0
60E0
60E0
EEE0
CCC0
CCC0
DDC0
FFC0
F780
ENDCHAR
STARTCHAR 1F62
ENCODING 8034
SWIDTH 495 0
DWIDTH 11 0
BBX 11 16 1 0
BITMAP
0EC0
0EC0
0C60
1860
0000
1040
38C0
30C0
60E0
60E0
EEE0
CCC0
CCC0
DDC0
FFC0
F780
ENDCHAR
STARTCHAR 1F63
ENCODING 8035
SWIDTH 495 0
DWIDTH 11 0
BBX 11 16 1 0
BITMAP
1D80
1DC0
08C0
0CC0
0000
1040
38C0
30C0
60E0
60E0
EEE0
CCC0
CCC0
DDC0
FFC0
F780
ENDCHAR
STARTCHAR 1F64
ENCODING 8036
SWIDTH 495 0
DWIDTH 11 0
BBX 11 16 1 0
BITMAP
0E20
0660
06C0
0D80
0000
1040
38C0
30C0
60E0
60E0
EEE0
CCC0
CCC0
DDC0
FFC0
F780
ENDCHAR
STARTCHAR 1F65
ENCODING 8037
SWIDTH 495 0
DWIDTH 11 0
BBX 11 16 1 0
BITMAP
0C60
1CE0
08C0
0D80
0000
1040
38C0
30C0
60E0
60E0
EEE0
CCC0
CCC0
DDC0
FFC0
F780
ENDCHAR
STARTCHAR 1F66
ENCODING 8038
SWIDTH 495 0
DWIDTH 11 0
BBX 11 18 1 0
BITMAP
03C0
0660
0460
0380
0180
0300
0000
1040
38C0
30C0
60E0
60E0
EEE0
CCC0
CCC0
DDC0
FFC0
F780
ENDCHAR
STARTCHAR 1F67
ENCODING 8039
SWIDTH 495 0
DWIDTH 11 0
BBX 11 18 1 0
BITMAP
03C0
06E0
0C60
0380
0300
0100
0000
1040
38C0
30C0
60E0
60E0
EEE0
CCC0
CCC0
DDC0
FFC0
F780
ENDCHAR
STARTCHAR 1F68
ENCODING 8040
SWIDTH 495 0
DWIDTH 11 0
BBX 13 14 -1 0
BITMAP
61E0
67F8
6F38
CE38
9C18
1C38
1838
1838
1830
1870
1860
1CC0
7DF0
7DF0
ENDCHAR
STARTCHAR 1F69
ENCODING 8041
SWIDTH 495 0
DWIDTH 11 0
BBX 13 14 -1 0
BITMAP
C1E0
E7F8
CF38
CE38
5C18
1C38
1838
1838
1830
1870
1860
1CC0
7DF0
7DF0
ENDCHAR
STARTCHAR 1F6A
ENCODING 8042
SWIDTH 495 0
DWIDTH 11 0
BBX 18 14 -6 0
BITMAP
660F00
763FC0
6679C0
C371C0
82E0C0
00E1C0
00C1C0
00C1C0
00C180
00C380
00C300
00E600
03EF80
03EF80
ENDCHAR
STARTCHAR 1F6B
ENCODING 8043
SWIDTH 495 0
DWIDTH 11 0
BBX 17 14 -5 0
BITMAP
CC1E00
EC7F80
CCF380
C6E380
45C180
01C380
018380
018380
018300
018700
018600
01CC00
07DF00
07DF00
ENDCHAR
STARTCHAR 1F6C
ENCODING 8044
SWIDTH 495 0
DWIDTH 11 0
BBX 17 14 -5 0
BITMAP
621E00
777F80
66F380
CCE380
01C180
01C380
018380
018380
018300
018700
018600
01CC00
07DF00
07DF00
ENDCHAR
STARTCHAR 1F6D
ENCODING 8045
SWIDTH 495 0
DWIDTH 11 0
BBX 17 14 -5 0
BITMAP
621E00
E77F80
46F380
6CE380
21C180
01C380
018380
018380
018300
018700
018600
01CC00
07DF00
07DF00
ENDCHAR
STARTCHAR 1F6E
ENCODING 8046
SWIDTH 495 0
DWIDTH 11 0
BBX 15 16 -3 0
BITMAP
3C00
7C00
C678
31FE
33CE
338E
2706
070E
060E
060E
060C
061C
0618
0730
1F7C
1F7C
ENDCHAR
STARTCHAR 1F6F
ENCODING 8047
SWIDTH 495 0
DWIDTH 11 0
BBX 15 16 -3 0
BITMAP
3800
7C00
C478
31FE
33CE
338E
1706
070E
060E
060E
060C
061C
0618
0730
1F7C
1F7C
ENDCHAR
STARTCHAR 1F70
ENCODING 8048
SWIDTH 495 0
DWIDTH 11 0
BBX 10 16 1 0
BITMAP
0200
0300
07C0
01C0
0000
0780
1FC0
3FC0
71C0
71C0
61C0
E180
E380
7380
7FC0
3D80
ENDCHAR
STARTCHAR 1F71
ENCODING 8049
SWIDTH 495 0
DWIDTH 11 0
BBX 10 15 1 1
BITMAP
01C0
03C0
0300
0000
0780
1FC0
3FC0
71C0
71C0
61C0
E180
E380
7380
7FC0
3D80
ENDCHAR
STARTCHAR 1F72
ENCODING 8050
SWIDTH 495 0
DWIDTH 11 0
BBX 9 16 2 0
BITMAP
0400
0600
0F80
0380
0000
0F00
3F80
7F80
6000
7000
3E00
FE00
C000
E000
FF00
7F00
ENDCHAR
STARTCHAR 1F73
ENCODING 8051
SWIDTH 495 0
DWIDTH 11 0
BBX 9 15 2 1
BITMAP
0380
0780
0600
0000
0F00
3F80
7F80
6000
7000
3E00
FE00
C000
E000
FF00
7F00
ENDCHAR
STARTCHAR 1F74
ENCODING 8052
SWIDTH 495 0
DWIDTH 11 0
BBX 10 19 1 -3
BITMAP
0700
0780
01C0
0000
0F00
3F80
3FC0
39C0
31C0
71C0
7180
7180
6380
E380
E380
0300
0700
0700
0700
ENDCHAR
STARTCHAR 1F75
ENCODING 8053
SWIDTH 495 0
DWIDTH 11 0
BBX 10 19 1 -3
BITMAP
01C0
03C0
0300
0000
0F00
3F80
3FC0
39C0
31C0
71C0
7180
7180
6380
E380
E380
0300
0700
0700
0700
ENDCHAR
STARTCHAR 1F76
ENCODING 8054
SWIDTH 495 0
DWIDTH 11 0
BBX 7 15 3 1
BITMAP
1C
1E
06
00
00
F8
F8
38
38
30
70
70
70
7E
3E
ENDCHAR
STARTCHAR 1F77
ENCODING 8055
SWIDTH 495 0
DWIDTH 11 0
BBX 8 16 3 0
BITMAP
02
06
1F
1C
00
00
F8
F8
38
38
30
70
70
70
7E
3E
ENDCHAR
STARTCHAR 1F78
ENCODING 8056
SWIDTH 495 0
DWIDTH 11 0
BBX 10 16 1 0
BITMAP
0200
0300
07C0
01C0
0000
0700
1F80
3FC0
71C0
71C0
61C0
E1C0
E1C0
7380
7F00
3E00
ENDCHAR
STARTCHAR 1F79
ENCODING 8057
SWIDTH 495 0
DWIDTH 11 0
BBX 10 15 1 1
BITMAP
01C0
03C0
0300
0000
0700
1F80
3FC0
71C0
71C0
61C0
E1C0
E1C0
7380
7F00
3E00
ENDCHAR
STARTCHAR 1F7A
ENCODING 8058
SWIDTH 495 0
DWIDTH 11 0
BBX 10 15 2 1
BITMAP
0E00
0F00
0380
0000
0000
71C0
7180
6380
E380
E380
E300
E700
E700
FE00
7C00
ENDCHAR
STARTCHAR 1F7B
ENCODING 8059
SWIDTH 495 0
DWIDTH 11 0
BBX 10 15 2 1
BITMAP
0380
0780
0600
0000
0000
71C0
7180
6380
E380
E380
E300
E700
E700
FE00
7C00
ENDCHAR
STARTCHAR 1F7C
ENCODING 8060
SWIDTH 495 0
DWIDTH 11 0
BBX 11 16 1 0
BITMAP
0400
0600
0F80
0380
0000
1040
38C0
30C0
60E0
60E0
EEE0
CCC0
CCC0
DDC0
FFC0
F780
ENDCHAR
STARTCHAR 1F7D
ENCODING 8061
SWIDTH 495 0
DWIDTH 11 0
BBX 11 15 1 1
BITMAP
01C0
03C0
0700
0000
1040
38C0
30C0
60E0
60E0
EEE0
CCC0
CCC0
DDC0
FFC0
F780
ENDCHAR
STARTCHAR 1F80
ENCODING 8064
SWIDTH 495 0
DWIDTH 11 0
BBX 10 20 1 -4
BITMAP
0180
0180
0180
0300
0000
0780
1FC0
3FC0
71C0
71C0
61C0
E180
E380
7380
7FC0
3D80
0000
1800
1C00
1C00
ENDCHAR
STARTCHAR 1F81
ENCODING 8065
SWIDTH 495 0
DWIDTH 11 0
BBX 10 20 1 -4
BITMAP
0380
0380
0300
0180
0000
0780
1FC0
3FC0
71C0
71C0
61C0
E180
E380
7380
7FC0
3D80
0000
1800
1C00
1C00
ENDCHAR
STARTCHAR 1F82
ENCODING 8066
SWIDTH 495 0
DWIDTH 11 0
BBX 11 20 1 -4
BITMAP
0EC0
0E60
0660
0C20
0000
0780
1FC0
3FC0
71C0
71C0
61C0
E180
E380
7380
7FC0
3D80
0000
1800
1C00
1C00
ENDCHAR
STARTCHAR 1F83
ENCODING 8067
SWIDTH 495 0
DWIDTH 11 0
BBX 11 20 1 -4
BITMAP
0FC0
0CC0
0CC0
0460
0000
0780
1FC0
3FC0
71C0
71C0
61C0
E180
E380
7380
7FC0
3D80
0000
1800
1C00
1C00
ENDCHAR
STARTCHAR 1F84
ENCODING 8068
SWIDTH 495 0
DWIDTH 11 0
BBX 12 20 1 -4
BITMAP
0730
0770
0660
0CC0
0000
0780
1FC0
3FC0
71C0
71C0
61C0
E180
E380
7380
7FC0
3D80
0000
1800
1C00
1C00
ENDCHAR
STARTCHAR 1F85
ENCODING 8069
SWIDTH 495 0
DWIDTH 11 0
BBX 11 20 1 -4
BITMAP
0E60
0E60
0CC0
0780
0000
0780
1FC0
3FC0
71C0
71C0
61C0
E180
E380
7380
7FC0
3D80
0000
1800
1C00
1C00
ENDCHAR
STARTCHAR 1F86
ENCODING 8070
SWIDTH 495 0
DWIDTH 11 0
BBX 11 22 1 -4
BITMAP
03E0
0760
0620
0180
0180
0100
0000
0780
1FC0
3FC0
71C0
71C0
61C0
E180
E380
7380
7FC0
3D80
0000
1800
1C00
1C00
ENDCHAR
STARTCHAR 1F87
ENCODING 8071
SWIDTH 495 0
DWIDTH 11 0
BBX 11 22 1 -4
BITMAP
03C0
0760
0620
0180
0180
0180
0000
0780
1FC0
3FC0
71C0
71C0
61C0
E180
E380
7380
7FC0
3D80
0000
1800
1C00
1C00
ENDCHAR
STARTCHAR 1F88
ENCODING 8072
SWIDTH 495 0
DWIDTH 11 0
BBX 12 14 0 0
BITMAP
7700
7700
6F00
CF00
0F30
1B30
1B70
3360
3360
7F60
7FE0
67C0
E7E0
C660
ENDCHAR
STARTCHAR 1F89
ENCODING 8073
SWIDTH 495 0
DWIDTH 11 0
BBX 12 14 0 0
BITMAP
E700
E700
CF00
6F00
0F30
1B30
1B70
3360
3360
7F60
7FE0
67C0
E7E0
C660
ENDCHAR
STARTCHAR 1F8A
ENCODING 8074
SWIDTH 495 0
DWIDTH 11 0
BBX 17 14 -5 0
BITMAP
763800
763800
667800
C37800
027980
00D980
00DB80
019B00
019B00
03FB00
03FF00
033E00
073F00
063300
ENDCHAR
STARTCHAR 1F8B
ENCODING 8075
SWIDTH 495 0
DWIDTH 11 0
BBX 16 14 -4 0
BITMAP
EC70
EC70
CCF0
46F0
44F3
01B3
01B7
0336
0336
07F6
07FE
067C
0E7E
0C66
ENDCHAR
STARTCHAR 1F8C
ENCODING 8076
SWIDTH 495 0
DWIDTH 11 0
BBX 16 14 -4 0
BITMAP
6270
6770
6EF0
CCF0
80F3
01B3
01B7
0336
0336
07F6
07FE
067C
0E7E
0C66
ENDCHAR
STARTCHAR 1F8D
ENCODING 8077
SWIDTH 495 0
DWIDTH 11 0
BBX 16 14 -4 0
BITMAP
E270
E770
CEF0
6CF0
00F3
01B3
01B7
0336
0336
07F6
07FE
067C
0E7E
0C66
ENDCHAR
STARTCHAR 1F8E
ENCODING 8078
SWIDTH 495 0
DWIDTH 11 0
BBX 14 16 -2 0
BITMAP
7800
FC00
C5C0
31C0
33C0
33C0
43CC
06CC
06DC
0CD8
0CD8
1FD8
1FF8
19F0
39F8
3198
ENDCHAR
STARTCHAR 1F8F
ENCODING 8079
SWIDTH 495 0
DWIDTH 11 0
BBX 14 16 -2 0
BITMAP
7800
FC00
C5C0
31C0
33C0
23C0
13CC
06CC
06DC
0CD8
0CD8
1FD8
1FF8
19F0
39F8
3198
ENDCHAR
STARTCHAR 1F90
ENCODING 8080
SWIDTH 495 0
DWIDTH 11 0
BBX 10 20 1 -4
BITMAP
0180
0180
0180
0300
0000
0F00
3F80
3FC0
39C0
31C0
71C0
7180
7180
6380
E380
E380
0300
C700
E700
E700
ENDCHAR
STARTCHAR 1F91
ENCODING 8081
SWIDTH 495 0
DWIDTH 11 0
BBX 10 20 1 -4
BITMAP
0380
0380
0300
0180
0000
0F00
3F80
3FC0
39C0
31C0
71C0
7180
7180
6380
E380
E380
0300
C700
E700
E700
ENDCHAR
STARTCHAR 1F92
ENCODING 8082
SWIDTH 495 0
DWIDTH 11 0
BBX 11 20 1 -4
BITMAP
0EC0
0EC0
0C60
1860
0000
0F00
3F80
3FC0
39C0
31C0
71C0
7180
7180
6380
E380
E380
0300
C700
E700
E700
ENDCHAR
STARTCHAR 1F93
ENCODING 8083
SWIDTH 495 0
DWIDTH 11 0
BBX 10 20 1 -4
BITMAP
1D80
1DC0
08C0
0CC0
0000
0F00
3F80
3FC0
39C0
31C0
71C0
7180
7180
6380
E380
E380
0300
C700
E700
E700
ENDCHAR
STARTCHAR 1F94
ENCODING 8084
SWIDTH 495 0
DWIDTH 11 0
BBX 12 20 1 -4
BITMAP
0630
0660
06E0
0CC0
0000
0F00
3F80
3FC0
39C0
31C0
71C0
7180
7180
6380
E380
E380
0300
C700
E700
E700
ENDCHAR
STARTCHAR 1F95
ENCODING 8085
SWIDTH 495 0
DWIDTH 11 0
BBX 11 20 1 -4
BITMAP
0C60
1CE0
08C0
0D80
0000
0F00
3F80
3FC0
39C0
31C0
71C0
7180
7180
6380
E380
E380
0300
C700
E700
E700
ENDCHAR
STARTCHAR 1F96
ENCODING 8086
SWIDTH 495 0
DWIDTH 11 0
BBX 11 22 1 -4
BITMAP
03C0
0760
0420
0180
0180
0300
0000
0F00
3F80
3FC0
39C0
31C0
71C0
7180
7180
6380
E380
E380
0300
C700
E700
E700
ENDCHAR
STARTCHAR 1F97
ENCODING 8087
SWIDTH 495 0
DWIDTH 11 0
BBX 11 22 1 -4
BITMAP
03C0
0660
0460
0180
0180
0180
0000
0F00
3F80
3FC0
39C0
31C0
71C0
7180
7180
6380
E380
E380
0300
C700
E700
E700
ENDCHAR
STARTCHAR 1F98
ENCODING 8088
SWIDTH 495 0
DWIDTH 11 0
BBX 13 14 -1 0
BITMAP
EC60
ECE0
6CC0
CCC0
9CD8
18D8
1FB8
1FB0
39B0
31B0
3370
3360
7370
6330
ENDCHAR
STARTCHAR 1F99
ENCODING 8089
SWIDTH 495 0
DWIDTH 11 0
BBX 13 14 -1 0
BITMAP
EC60
ECE0
CCC0
CCC0
5CD8
18D8
1FB8
1FB0
39B0
31B0
3370
3360
7370
6330
ENDCHAR
STARTCHAR 1F9A
ENCODING 8090
SWIDTH 495 0
DWIDTH 11 0
BBX 18 14 -6 0
BITMAP
646300
666700
666600
C36600
82E6C0
00C6C0
00FDC0
00FD80
01CD80
018D80
019B80
019B00
039B80
031980
ENDCHAR
STARTCHAR 1F9B
ENCODING 8091
SWIDTH 495 0
DWIDTH 11 0
BBX 17 14 -5 0
BITMAP
CCC600
CCCE00
8CCC00
C6CC00
45CD80
018D80
01FB80
01FB00
039B00
031B00
033700
033600
073700
063300
ENDCHAR
STARTCHAR 1F9C
ENCODING 8092
SWIDTH 495 0
DWIDTH 11 0
BBX 18 14 -6 0
BITMAP
626300
776700
666600
CC6600
00E6C0
00C6C0
00FDC0
00FD80
01CD80
018D80
019B80
019B00
039B80
031980
ENDCHAR
STARTCHAR 1F9D
ENCODING 8093
SWIDTH 495 0
DWIDTH 11 0
BBX 18 14 -6 0
BITMAP
626300
E76700
466600
6C6600
20E6C0
00C6C0
00FDC0
00FD80
01CD80
018D80
019B80
019B00
039B80
031980
ENDCHAR
STARTCHAR 1F9E
ENCODING 8094
SWIDTH 495 0
DWIDTH 11 0
BBX 16 16 -4 0
BITMAP
3800
7C00
C58C
319C
3198
3198
039B
031B
03F7
03F6
0736
0636
066E
066C
0E6E
0C66
ENDCHAR
STARTCHAR 1F9F
ENCODING 8095
SWIDTH 495 0
DWIDTH 11 0
BBX 16 16 -4 0
BITMAP
3800
7C00
C58C
319C
3198
3198
139B
031B
03F7
03F6
0736
0636
066E
066C
0E6E
0C66
ENDCHAR
STARTCHAR 1FA0
ENCODING 8096
SWIDTH 495 0
DWIDTH 11 0
BBX 11 20 1 -4
BITMAP
0380
0380
0180
0300
0000
1040
38C0
30C0
60E0
60E0
EEE0
CCC0
CCC0
DDC0
FFC0
F780
0000
1800
1C00
1C00
ENDCHAR
STARTCHAR 1FA1
ENCODING 8097
SWIDTH 495 0
DWIDTH 11 0
BBX 11 20 1 -4
BITMAP
0700
0700
0200
0300
0000
1040
38C0
30C0
60E0
60E0
EEE0
CCC0
CCC0
DDC0
FFC0
F780
0000
1800
1C00
1C00
ENDCHAR
STARTCHAR 1FA2
ENCODING 8098
SWIDTH 495 0
DWIDTH 11 0
BBX 11 20 1 -4
BITMAP
0EC0
0EC0
0CE0
1860
0000
1040
38C0
30C0
60E0
60E0
EEE0
CCC0
CCC0
DDC0
FFC0
F780
0000
1800
1C00
1C00
ENDCHAR
STARTCHAR 1FA3
ENCODING 8099
SWIDTH 495 0
DWIDTH 11 0
BBX 11 20 1 -4
BITMAP
1D80
1D80
18C0
0CC0
0000
1040
38C0
30C0
60E0
60E0
EEE0
CCC0
CCC0
DDC0
FFC0
F780
0000
1800
1C00
1C00
ENDCHAR
STARTCHAR 1FA4
ENCODING 8100
SWIDTH 495 0
DWIDTH 11 0
BBX 11 20 1 -4
BITMAP
0E60
0E60
04C0
1D80
0000
1040
38C0
30C0
60E0
60E0
EEE0
CCC0
CCC0
DDC0
FFC0
F780
0000
1800
1C00
1C00
ENDCHAR
STARTCHAR 1FA5
ENCODING 8101
SWIDTH 495 0
DWIDTH 11 0
BBX 11 20 1 -4
BITMAP
0C60
1CE0
08C0
0D80
0000
1040
38C0
30C0
60E0
60E0
EEE0
CCC0
CCC0
DDC0
FFC0
F780
0000
1800
1C00
1C00
ENDCHAR
STARTCHAR 1FA6
ENCODING 8102
SWIDTH 495 0
DWIDTH 11 0
BBX 11 22 1 -4
BITMAP
03C0
06E0
0C60
0380
0380
0300
0000
1040
38C0
30C0
60E0
60E0
EEE0
CCC0
CCC0
DDC0
FFC0
F780
0000
1800
1C00
1C00
ENDCHAR
STARTCHAR 1FA7
ENCODING 8103
SWIDTH 495 0
DWIDTH 11 0
BBX 11 22 1 -4
BITMAP
07C0
06C0
0C60
0300
0300
0100
0000
1040
38C0
30C0
60E0
60E0
EEE0
CCC0
CCC0
DDC0
FFC0
F780
0000
1800
1C00
1C00
ENDCHAR
STARTCHAR 1FA8
ENCODING 8104
SWIDTH 495 0
DWIDTH 11 0
BBX 13 14 -1 0
BITMAP
6380
77C0
6CC0
DCC0
18D8
18D8
19B8
39B0
31B0
3330
3370
1660
7770
7730
ENDCHAR
STARTCHAR 1FA9
ENCODING 8105
SWIDTH 495 0
DWIDTH 11 0
BBX 13 14 -1 0
BITMAP
E380
E7C0
CCC0
DCC0
58D8
18D8
19B8
39B0
31B0
3330
3370
1660
7770
7730
ENDCHAR
STARTCHAR 1FAA
ENCODING 8106
SWIDTH 495 0
DWIDTH 11 0
BBX 18 14 -6 0
BITMAP
641C00
E63E00
666600
C2E600
82C6C0
00C6C0
00CDC0
01CD80
018D80
019980
019B80
00B300
03BB80
03B980
ENDCHAR
STARTCHAR 1FAB
ENCODING 8107
SWIDTH 495 0
DWIDTH 11 0
BBX 18 14 -6 0
BITMAP
641C00
E63E00
466600
62E600
22C6C0
00C6C0
00CDC0
01CD80
018D80
019980
019B80
00B300
03BB80
03B980
ENDCHAR
STARTCHAR 1FAC
ENCODING 8108
SWIDTH 495 0
DWIDTH 11 0
BBX 17 14 -5 0
BITMAP
623800
E77C00
6ECC00
CDCC00
898D80
018D80
019B80
039B00
031B00
033300
033700
016600
077700
077300
ENDCHAR
STARTCHAR 1FAD
ENCODING 8109
SWIDTH 495 0
DWIDTH 11 0
BBX 17 14 -5 0
BITMAP
E23800
E67C00
CCCC00
5DCC00
098D80
018D80
019B80
039B00
031B00
033300
033700
016600
077700
077300
ENDCHAR
STARTCHAR 1FAE
ENCODING 8110
SWIDTH 495 0
DWIDTH 11 0
BBX 15 16 -3 0
BITMAP
3800
7C00
C4E0
31F0
3330
3730
0636
0636
066E
0E6C
0C6C
0CCC
0CDC
0598
1DDC
1DCC
ENDCHAR
STARTCHAR 1FAF
ENCODING 8111
SWIDTH 495 0
DWIDTH 11 0
BBX 15 16 -3 0
BITMAP
3800
7C00
C4E0
31F0
3330
3730
1636
0636
066E
0E6C
0C6C
0CCC
0CDC
0598
1DDC
1DCC
ENDCHAR
STARTCHAR 1FB0
ENCODING 8112
SWIDTH 495 0
DWIDTH 11 0
BBX 11 15 1 0
BITMAP
0660
07E0
03C0
0000
0780
1FC0
3FC0
71C0
71C0
61C0
E180
E380
7380
7FC0
3D80
ENDCHAR
STARTCHAR 1FB1
ENCODING 8113
SWIDTH 495 0
DWIDTH 11 0
BBX 11 14 1 0
BITMAP
0FE0
0FE0
0000
0780
1FC0
3FC0
71C0
71C0
61C0
E180
E380
7380
7FC0
3D80
ENDCHAR
STARTCHAR 1FB2
ENCODING 8114
SWIDTH 495 0
DWIDTH 11 0
BBX 10 19 1 -3
BITMAP
0700
0780
01C0
0000
0780
1FC0
3FC0
71C0
71C0
61C0
E180
E380
7380
7FC0
3D80
0000
1800
1C00
1C00
ENDCHAR
STARTCHAR 1FB3
ENCODING 8115
SWIDTH 495 0
DWIDTH 11 0
BBX 10 15 1 -4
BITMAP
0780
1FC0
3FC0
71C0
71C0
61C0
E180
E380
7380
7FC0
3D80
0000
1800
1C00
1C00
ENDCHAR
STARTCHAR 1FB4
ENCODING 8116
SWIDTH 495 0
DWIDTH 11 0
BBX 10 19 1 -3
BITMAP
01C0
03C0
0300
0000
0780
1FC0
3FC0
71C0
71C0
61C0
E180
E380
7380
7FC0
3D80
0000
1800
1C00
1C00
ENDCHAR
STARTCHAR 1FB6
ENCODING 8118
SWIDTH 495 0
DWIDTH 11 0
BBX 10 15 1 0
BITMAP
0380
07C0
0CC0
0000
0780
1FC0
3FC0
71C0
71C0
61C0
E180
E380
7380
7FC0
3D80
ENDCHAR
STARTCHAR 1FB7
ENCODING 8119
SWIDTH 495 0
DWIDTH 11 0
BBX 10 19 1 -4
BITMAP
0380
07C0
0CC0
0000
0780
1FC0
3FC0
71C0
71C0
61C0
E180
E380
7380
7FC0
3D80
0000
1800
1C00
1C00
ENDCHAR
STARTCHAR 1FB8
ENCODING 8120
SWIDTH 495 0
DWIDTH 11 0
BBX 12 18 0 0
BITMAP
0330
03F0
01E0
0000
01C0
03C0
03C0
06C0
06C0
0CC0
1CC0
1CC0
38C0
3FE0
7FE0
70E0
60E0
E0E0
ENDCHAR
STARTCHAR 1FB9
ENCODING 8121
SWIDTH 495 0
DWIDTH 11 0
BBX 12 17 0 0
BITMAP
03F0
0000
0000
01C0
03C0
03C0
06C0
06C0
0CC0
1CC0
1CC0
38C0
3FE0
7FE0
70E0
60E0
E0E0
ENDCHAR
STARTCHAR 1FBA
ENCODING 8122
SWIDTH 495 0
DWIDTH 11 0
BBX 11 14 0 0
BITMAP
C1C0
F3C0
7BC0
16C0
06C0
0CC0
1CC0
1CC0
38C0
3FE0
7FE0
70E0
60E0
E0E0
ENDCHAR
STARTCHAR 1FBB
ENCODING 8123
SWIDTH 495 0
DWIDTH 11 0
BBX 11 14 0 0
BITMAP
11C0
7BC0
F3C0
46C0
06C0
0CC0
1CC0
1CC0
38C0
3FE0
7FE0
70E0
60E0
E0E0
ENDCHAR
STARTCHAR 1FBC
ENCODING 8124
SWIDTH 495 0
DWIDTH 11 0
BBX 12 14 0 0
BITMAP
0700
0700
0F00
0F00
0F30
1B30
1B70
3360
3360
7F60
7FE0
67C0
E7E0
C660
ENDCHAR
STARTCHAR 1FBD
ENCODING 8125
SWIDTH 495 0
DWIDTH 11 0
BBX 4 4 6 12
BITMAP
70
70
60
C0
ENDCHAR
STARTCHAR 1FBE
ENCODING 8126
SWIDTH 495 0
DWIDTH 11 0
BBX 3 3 4 -4
BITMAP
C0
E0
E0
ENDCHAR
STARTCHAR 1FBF
ENCODING 8127
SWIDTH 495 0
DWIDTH 11 0
BBX 4 4 6 12
BITMAP
70
70
60
C0
ENDCHAR
STARTCHAR 1FC0
ENCODING 8128
SWIDTH 495 0
DWIDTH 11 0
BBX 6 3 5 12
BITMAP
7C
FC
CC
ENDCHAR
STARTCHAR 1FC1
ENCODING 8129
SWIDTH 495 0
DWIDTH 11 0
BBX 7 6 5 12
BITMAP
3C
66
46
00
EE
CE
ENDCHAR
STARTCHAR 1FC2
ENCODING 8130
SWIDTH 495 0
DWIDTH 11 0
BBX 10 19 1 -3
BITMAP
0700
0780
01C0
0000
0F00
3F80
3FC0
39C0
31C0
71C0
7180
7180
6380
E380
E380
0300
C700
E700
E700
ENDCHAR
STARTCHAR 1FC3
ENCODING 8131
SWIDTH 495 0
DWIDTH 11 0
BBX 10 15 1 -4
BITMAP
0F00
3F80
3FC0
39C0
31C0
71C0
7180
7180
6380
E380
E380
0300
C700
E700
E700
ENDCHAR
STARTCHAR 1FC4
ENCODING 8132
SWIDTH 495 0
DWIDTH 11 0
BBX 10 19 1 -3
BITMAP
00C0
03C0
0300
0000
0F00
3F80
3FC0
39C0
31C0
71C0
7180
7180
6380
E380
E380
0300
C700
E700
E700
ENDCHAR
STARTCHAR 1FC6
ENCODING 8134
SWIDTH 495 0
DWIDTH 11 0
BBX 10 19 1 -4
BITMAP
0380
07C0
0CC0
0000
0F00
3F80
3FC0
39C0
31C0
71C0
7180
7180
6380
E380
E380
0300
0700
0700
0700
ENDCHAR
STARTCHAR 1FC7
ENCODING 8135
SWIDTH 495 0
DWIDTH 11 0
BBX 10 19 1 -4
BITMAP
0380
07C0
0CC0
0000
0F00
3F80
3FC0
39C0
31C0
71C0
7180
7180
6380
E380
E380
0300
C700
E700
E700
ENDCHAR
STARTCHAR 1FC8
ENCODING 8136
SWIDTH 495 0
DWIDTH 11 0
BBX 15 14 -2 0
BITMAP
43FE
F3FC
7BFC
1300
0700
0700
07F0
07F0
0E00
0E00
0E00
0C00
0FF0
1FF0
ENDCHAR
STARTCHAR 1FC9
ENCODING 8137
SWIDTH 495 0
DWIDTH 11 0
BBX 15 14 -2 0
BITMAP
13FE
7BFC
F3FC
4300
0700
0700
07F0
07F0
0E00
0E00
0E00
0C00
0FF0
1FF0
ENDCHAR
STARTCHAR 1FCA
ENCODING 8138
SWIDTH 495 0
DWIDTH 11 0
BBX 15 14 -2 0
BITMAP
C38E
E30E
770C
171C
071C
061C
0FFC
0FF8
0E38
0C38
1C38
1C30
1C70
1870
ENDCHAR
STARTCHAR 1FCB
ENCODING 8139
SWIDTH 495 0
DWIDTH 11 0
BBX 15 14 -2 0
BITMAP
338E
7B0E
E70C
871C
071C
061C
0FFC
0FF8
0E38
0C38
1C38
1C30
1C70
1870
ENDCHAR
STARTCHAR 1FCC
ENCODING 8140
SWIDTH 495 0
DWIDTH 11 0
BBX 12 14 0 0
BITMAP
18C0
19C0
1980
1980
39B0
31B0
3F70
3F60
7360
6360
66E0
66C0
E6E0
C660
ENDCHAR
STARTCHAR 1FCD
ENCODING 8141
SWIDTH 495 0
DWIDTH 11 0
BBX 8 4 4 12
BITMAP
6E
66
66
C3
ENDCHAR
STARTCHAR 1FCE
ENCODING 8142
SWIDTH 495 0
DWIDTH 11 0
BBX 8 4 4 12
BITMAP
73
73
26
EC
ENDCHAR
STARTCHAR 1FCF
ENCODING 8143
SWIDTH 495 0
DWIDTH 11 0
BBX 6 6 6 12
BITMAP
78
CC
8C
70
30
60
ENDCHAR
STARTCHAR 1FD0
ENCODING 8144
SWIDTH 495 0
DWIDTH 11 0
BBX 8 15 3 0
BITMAP
33
3E
3C
00
00
F8
F8
38
38
30
70
70
70
7E
3E
ENDCHAR
STARTCHAR 1FD1
ENCODING 8145
SWIDTH 495 0
DWIDTH 11 0
BBX 8 14 3 0
BITMAP
7F
7E
00
00
F8
F8
38
38
30
70
70
70
7E
3E
ENDCHAR
STARTCHAR 1FD2
ENCODING 8146
SWIDTH 495 0
DWIDTH 11 0
BBX 10 16 3 0
BITMAP
0800
6CC0
6DC0
65C0
0000
0000
F800
F800
3800
3800
3000
7000
7000
7000
7E00
3E00
ENDCHAR
STARTCHAR 1FD3
ENCODING 8147
SWIDTH 495 0
DWIDTH 11 0
BBX 10 16 3 0
BITMAP
0400
67C0
EDC0
6980
0000
0000
F800
F800
3800
3800
3000
7000
7000
7000
7E00
3E00
ENDCHAR
STARTCHAR 1FD6
ENCODING 8150
SWIDTH 495 0
DWIDTH 11 0
BBX 8 15 3 0
BITMAP
1E
3E
33
00
00
F8
F8
38
38
30
70
70
70
7E
3E
ENDCHAR
STARTCHAR 1FD7
ENCODING 8151
SWIDTH 495 0
DWIDTH 11 0
BBX 9 18 3 0
BITMAP
0F00
1B00
3180
0000
3380
3300
0000
0000
F800
F800
3800
3800
3000
7000
7000
7000
7E00
3E00
ENDCHAR
STARTCHAR 1FD8
ENCODING 8152
SWIDTH 495 0
DWIDTH 11 0
BBX 12 18 1 0
BITMAP
0660
07E0
03C0
0000
1FF0
1FF0
1FE0
0700
0700
0700
0600
0E00
0E00
0E00
0C00
1C00
FF80
FF80
ENDCHAR
STARTCHAR 1FD9
ENCODING 8153
SWIDTH 495 0
DWIDTH 11 0
BBX 12 17 1 0
BITMAP
07E0
0000
0000
1FF0
1FF0
1FE0
0700
0700
0700
0600
0E00
0E00
0E00
0C00
1C00
FF80
FF80
ENDCHAR
STARTCHAR 1FDA
ENCODING 8154
SWIDTH 495 0
DWIDTH 11 0
BBX 15 14 -2 0
BITMAP
C3FE
E3FE
7BFC
10E0
00E0
00E0
00C0
01C0
01C0
01C0
0180
0380
1FF0
1FF0
ENDCHAR
STARTCHAR 1FDB
ENCODING 8155
SWIDTH 495 0
DWIDTH 11 0
BBX 15 14 -2 0
BITMAP
13FE
7BFE
F3FC
C0E0
00E0
00E0
00C0
01C0
01C0
01C0
0180
0380
1FF0
1FF0
ENDCHAR
STARTCHAR 1FDD
ENCODING 8157
SWIDTH 495 0
DWIDTH 11 0
BBX 7 4 4 12
BITMAP
EC
EE
46
66
ENDCHAR
STARTCHAR 1FDE
ENCODING 8158
SWIDTH 495 0
DWIDTH 11 0
BBX 8 4 4 12
BITMAP
63
E7
46
6C
ENDCHAR
STARTCHAR 1FDF
ENCODING 8159
SWIDTH 495 0
DWIDTH 11 0
BBX 7 6 5 12
BITMAP
3C
6E
C6
38
30
10
ENDCHAR
STARTCHAR 1FE0
ENCODING 8160
SWIDTH 495 0
DWIDTH 11 0
BBX 10 15 2 0
BITMAP
19C0
0F80
0F00
0000
0000
71C0
7180
6380
E380
E380
E300
E700
E700
FE00
7C00
ENDCHAR
STARTCHAR 1FE1
ENCODING 8161
SWIDTH 495 0
DWIDTH 11 0
BBX 10 14 2 0
BITMAP
1F80
1F80
0000
0000
71C0
7180
6380
E380
E380
E300
E700
E700
FE00
7C00
ENDCHAR
STARTCHAR 1FE2
ENCODING 8162
SWIDTH 495 0
DWIDTH 11 0
BBX 11 16 2 0
BITMAP
0400
3660
36E0
32E0
0000
0000
71C0
7180
6380
E380
E380
E300
E700
E700
FE00
7C00
ENDCHAR
STARTCHAR 1FE3
ENCODING 8163
SWIDTH 495 0
DWIDTH 11 0
BBX 11 16 2 0
BITMAP
0200
33E0
76E0
34C0
0000
0000
71C0
7180
6380
E380
E380
E300
E700
E700
FE00
7C00
ENDCHAR
STARTCHAR 1FE4
ENCODING 8164
SWIDTH 495 0
DWIDTH 11 0
BBX 11 20 0 -4
BITMAP
00C0
00C0
00C0
0180
0000
0380
0FC0
1FE0
1CE0
38E0
38E0
38E0
30E0
71C0
7F80
7F00
6000
E000
E000
E000
ENDCHAR
STARTCHAR 1FE5
ENCODING 8165
SWIDTH 495 0
DWIDTH 11 0
BBX 11 20 0 -4
BITMAP
01C0
01C0
0180
00C0
0000
0380
0FC0
1FE0
1CE0
38E0
38E0
38E0
30E0
71C0
7F80
7F00
6000
E000
E000
E000
ENDCHAR
STARTCHAR 1FE6
ENCODING 8166
SWIDTH 495 0
DWIDTH 11 0
BBX 10 15 2 0
BITMAP
0F00
1F80
1980
0000
0000
71C0
7180
6380
E380
E380
E300
E700
E700
FE00
7C00
ENDCHAR
STARTCHAR 1FE7
ENCODING 8167
SWIDTH 495 0
DWIDTH 11 0
BBX 10 18 2 0
BITMAP
0780
0CC0
08C0
0000
19C0
19C0
0000
0000
71C0
7180
6380
E380
E380
E300
E700
E700
FE00
7C00
ENDCHAR
STARTCHAR 1FE8
ENCODING 8168
SWIDTH 495 0
DWIDTH 11 0
BBX 11 18 3 0
BITMAP
1980
1F80
0F00
0000
E0E0
E1C0
6380
6380
6700
7600
7E00
3C00
3800
3800
3000
7000
7000
7000
ENDCHAR
STARTCHAR 1FE9
ENCODING 8169
SWIDTH 495 0
DWIDTH 11 0
BBX 11 17 3 0
BITMAP
1F80
0000
0000
E0E0
E1C0
6380
6380
6700
7600
7E00
3C00
3800
3800
3000
7000
7000
7000
ENDCHAR
STARTCHAR 1FEA
ENCODING 8170
SWIDTH 495 0
DWIDTH 11 0
BBX 16 14 -2 0
BITMAP
C707
E70E
731C
131C
0338
03B0
03F0
01E0
01C0
01C0
0180
0380
0380
0380
ENDCHAR
STARTCHAR 1FEB
ENCODING 8171
SWIDTH 495 0
DWIDTH 11 0
BBX 17 14 -3 0
BITMAP
1B8380
3B8700
F18E00
418E00
019C00
01D800
01F800
00F000
00E000
00E000
00C000
01C000
01C000
01C000
ENDCHAR
STARTCHAR 1FEC
ENCODING 8172
SWIDTH 495 0
DWIDTH 11 0
BBX 12 15 0 0
BITMAP
E000
EFC0
CFF0
CEF0
5C70
1C30
1C70
18F0
3FE0
3FC0
3800
3000
7000
7000
7000
ENDCHAR
STARTCHAR 1FED
ENCODING 8173
SWIDTH 495 0
DWIDTH 11 0
BBX 9 4 4 12
BITMAP
1000
D980
DB80
CB80
ENDCHAR
STARTCHAR 1FEE
ENCODING 8174
SWIDTH 495 0
DWIDTH 11 0
BBX 10 4 3 12
BITMAP
0400
67C0
EDC0
6980
ENDCHAR
STARTCHAR 1FEF
ENCODING 8175
SWIDTH 495 0
DWIDTH 11 0
BBX 4 3 6 12
BITMAP
C0
F0
30
ENDCHAR
STARTCHAR 1FF2
ENCODING 8178
SWIDTH 495 0
DWIDTH 11 0
BBX 11 20 1 -4
BITMAP
0400
0600
0F80
0380
0000
1040
38C0
30C0
60E0
60E0
EEE0
CCC0
CCC0
DDC0
FFC0
F780
0000
1800
1C00
1C00
ENDCHAR
STARTCHAR 1FF3
ENCODING 8179
SWIDTH 495 0
DWIDTH 11 0
BBX 11 15 1 -4
BITMAP
1040
38C0
30C0
60E0
60E0
EEE0
CCC0
CCC0
DDC0
FFC0
F780
0000
1800
1C00
1C00
ENDCHAR
STARTCHAR 1FF4
ENCODING 8180
SWIDTH 495 0
DWIDTH 11 0
BBX 11 20 1 -4
BITMAP
0080
0180
07C0
0700
0000
1040
38C0
30C0
60E0
60E0
EEE0
CCC0
CCC0
DDC0
FFC0
F780
0000
1800
1C00
1C00
ENDCHAR
STARTCHAR 1FF6
ENCODING 8182
SWIDTH 495 0
DWIDTH 11 0
BBX 11 15 1 0
BITMAP
0780
0FC0
0CC0
0000
1040
38C0
30C0
60E0
60E0
EEE0
CCC0
CCC0
DDC0
FFC0
F780
ENDCHAR
STARTCHAR 1FF7
ENCODING 8183
SWIDTH 495 0
DWIDTH 11 0
BBX 11 19 1 -4
BITMAP
0780
0FC0
0CC0
0000
1040
38C0
30C0
60E0
60E0
EEE0
CCC0
CCC0
DDC0
FFC0
F780
0000
1800
1C00
1C00
ENDCHAR
STARTCHAR 1FF8
ENCODING 8184
SWIDTH 495 0
DWIDTH 11 0
BBX 14 14 -2 0
BITMAP
C0F0
F3F8
7B9C
171C
061C
0E1C
0E1C
0C1C
0C18
1C38
0C38
0E70
0FE0
07C0
ENDCHAR
STARTCHAR 1FF9
ENCODING 8185
SWIDTH 495 0
DWIDTH 11 0
BBX 14 14 -2 0
BITMAP
10F0
7BF8
F39C
471C
061C
0E1C
0E1C
0C1C
0C18
1C38
0C38
0E70
0FE0
07C0
ENDCHAR
STARTCHAR 1FFA
ENCODING 8186
SWIDTH 495 0
DWIDTH 11 0
BBX 15 14 -3 0
BITMAP
6078
F1FE
3BCE
0B8E
0706
070E
060E
060E
060C
061C
0618
0730
1F7C
1F7C
ENDCHAR
STARTCHAR 1FFB
ENCODING 8187
SWIDTH 495 0
DWIDTH 11 0
BBX 14 14 -2 0
BITMAP
30F0
7BFC
E79C
871C
0E0C
0E1C
0C1C
0C1C
0C18
0C38
0C30
0E60
3EF8
3EF8
ENDCHAR
STARTCHAR 1FFC
ENCODING 8188
SWIDTH 495 0
DWIDTH 11 0
BBX 12 14 0 0
BITMAP
0700
0F80
1980
3980
31B0
31B0
3370
7360
6360
6660
66E0
2CC0
EEE0
EE60
ENDCHAR
STARTCHAR 1FFD
ENCODING 8189
SWIDTH 495 0
DWIDTH 11 0
BBX 5 4 6 11
BITMAP
10
30
F8
E0
ENDCHAR
STARTCHAR 1FFE
ENCODING 8190
SWIDTH 495 0
DWIDTH 11 0
BBX 3 4 7 12
BITMAP
E0
C0
C0
40
ENDCHAR
STARTCHAR 2013
ENCODING 8211
SWIDTH 495 0
DWIDTH 11 0
BBX 9 2 2 5
BITMAP
FF80
FF80
ENDCHAR
STARTCHAR 2014
ENCODING 8212
SWIDTH 495 0
DWIDTH 11 0
BBX 11 2 1 5
BITMAP
FFE0
FFE0
ENDCHAR
STARTCHAR 2015
ENCODING 8213
SWIDTH 495 0
DWIDTH 11 0
BBX 11 2 1 5
BITMAP
FFE0
FFE0
ENDCHAR
STARTCHAR 2018
ENCODING 8216
SWIDTH 495 0
DWIDTH 11 0
BBX 5 7 6 9
BITMAP
38
78
C0
E0
F0
E0
60
ENDCHAR
STARTCHAR 2019
ENCODING 8217
SWIDTH 495 0
DWIDTH 11 0
BBX 6 7 5 9
BITMAP
38
3C
3C
18
38
F0
C0
ENDCHAR
STARTCHAR 201A
ENCODING 8218
SWIDTH 495 0
DWIDTH 11 0
BBX 6 7 2 -3
BITMAP
18
38
3C
38
18
70
E0
ENDCHAR
STARTCHAR 201C
ENCODING 8220
SWIDTH 495 0
DWIDTH 11 0
BBX 9 6 4 9
BITMAP
7380
E700
C700
E700
E700
C600
ENDCHAR
STARTCHAR 201D
ENCODING 8221
SWIDTH 495 0
DWIDTH 11 0
BBX 10 6 3 9
BITMAP
71C0
7BC0
71C0
3180
E700
8400
ENDCHAR
STARTCHAR 201E
ENCODING 8222
SWIDTH 495 0
DWIDTH 11 0
BBX 10 6 0 -3
BITMAP
31C0
79C0
79C0
18C0
7380
E700
ENDCHAR
STARTCHAR 2020
ENCODING 8224
SWIDTH 495 0
DWIDTH 11 0
BBX 8 17 3 -3
BITMAP
0E
0C
0C
1C
FF
FF
FF
38
38
30
30
70
70
60
60
60
40
ENDCHAR
STARTCHAR 2021
ENCODING 8225
SWIDTH 495 0
DWIDTH 11 0
BBX 9 17 2 -3
BITMAP
0700
0600
0600
0E00
7F80
7F80
7F80
1C00
1C00
1800
FF00
FF00
3800
3000
3000
3000
2000
ENDCHAR
STARTCHAR 2022
ENCODING 8226
SWIDTH 495 0
DWIDTH 11 0
BBX 6 6 4 4
BITMAP
78
FC
FC
FC
FC
78
ENDCHAR
STARTCHAR 2026
ENCODING 8230
SWIDTH 495 0
DWIDTH 11 0
BBX 10 3 1 0
BITMAP
C880
DDC0
DD80
ENDCHAR
STARTCHAR 2030
ENCODING 8240
SWIDTH 495 0
DWIDTH 11 0
BBX 12 14 1 0
BITMAP
1800
3C00
6C00
6C30
78E0
3300
1C00
7000
98C0
39C0
6F60
4A40
5AC0
7380
ENDCHAR
STARTCHAR 2039
ENCODING 8249
SWIDTH 495 0
DWIDTH 11 0
BBX 6 9 4 1
BITMAP
1C
38
70
F0
E0
E0
70
70
30
ENDCHAR
STARTCHAR 203A
ENCODING 8250
SWIDTH 495 0
DWIDTH 11 0
BBX 6 9 3 1
BITMAP
30
38
38
1C
1C
38
70
E0
40
ENDCHAR
STARTCHAR 2044
ENCODING 8260
SWIDTH 495 0
DWIDTH 11 0
BBX 12 14 1 0
BITMAP
0070
0060
00E0
01C0
0380
0300
0700
0E00
1C00
1800
3800
7000
E000
C000
ENDCHAR
STARTCHAR 2070
ENCODING 8304
SWIDTH 495 0
DWIDTH 11 0
BBX 7 8 4 6
BITMAP
3C
7E
66
D6
D6
CC
FC
78
ENDCHAR
STARTCHAR 2074
ENCODING 8308
SWIDTH 495 0
DWIDTH 11 0
BBX 7 8 4 6
BITMAP
0E
1E
3C
6C
CC
FC
18
18
ENDCHAR
STARTCHAR 2075
ENCODING 8309
SWIDTH 495 0
DWIDTH 11 0
BBX 7 8 4 6
BITMAP
3E
3E
20
78
1C
0C
FC
F8
ENDCHAR
STARTCHAR 2076
ENCODING 8310
SWIDTH 495 0
DWIDTH 11 0
BBX 7 8 4 6
BITMAP
0E
3E
60
FC
CC
CC
FC
78
ENDCHAR
STARTCHAR 2077
ENCODING 8311
SWIDTH 495 0
DWIDTH 11 0
BBX 6 8 5 6
BITMAP
FC
FC
18
38
70
60
E0
C0
ENDCHAR
STARTCHAR 2078
ENCODING 8312
SWIDTH 495 0
DWIDTH 11 0
BBX 7 8 4 6
BITMAP
3C
76
66
7C
7C
CC
CC
78
ENDCHAR
STARTCHAR 2079
ENCODING 8313
SWIDTH 495 0
DWIDTH 11 0
BBX 7 8 4 6
BITMAP
3C
7E
66
66
7E
0C
F8
F0
ENDCHAR
STARTCHAR 2080
ENCODING 8320
SWIDTH 495 0
DWIDTH 11 0
BBX 7 8 3 0
BITMAP
3C
7C
C6
D6
FC
CC
F8
F0
ENDCHAR
STARTCHAR 2081
ENCODING 8321
SWIDTH 495 0
DWIDTH 11 0
BBX 7 8 2 0
BITMAP
0C
3C
7C
1C
18
18
FE
FC
ENDCHAR
STARTCHAR 2082
ENCODING 8322
SWIDTH 495 0
DWIDTH 11 0
BBX 6 8 3 0
BITMAP
7C
7C
4C
1C
78
E0
FC
F8
ENDCHAR
STARTCHAR 2083
ENCODING 8323
SWIDTH 495 0
DWIDTH 11 0
BBX 7 8 2 0
BITMAP
3E
3E
06
1C
1E
06
7E
FC
ENDCHAR
STARTCHAR 2084
ENCODING 8324
SWIDTH 495 0
DWIDTH 11 0
BBX 6 8 3 0
BITMAP
0C
1C
3C
6C
C8
FC
18
18
ENDCHAR
STARTCHAR 2085
ENCODING 8325
SWIDTH 495 0
DWIDTH 11 0
BBX 8 8 2 0
BITMAP
1F
1E
30
3C
0E
06
7C
F8
ENDCHAR
STARTCHAR 2086
ENCODING 8326
SWIDTH 495 0
DWIDTH 11 0
BBX 6 8 3 0
BITMAP
1C
7C
60
F8
DC
CC
F8
70
ENDCHAR
STARTCHAR 2087
ENCODING 8327
SWIDTH 495 0
DWIDTH 11 0
BBX 6 8 4 0
BITMAP
FC
FC
18
30
60
E0
C0
C0
ENDCHAR
STARTCHAR 2088
ENCODING 8328
SWIDTH 495 0
DWIDTH 11 0
BBX 7 8 3 0
BITMAP
3C
6E
64
7C
FC
CC
DC
F8
ENDCHAR
STARTCHAR 2089
ENCODING 8329
SWIDTH 495 0
DWIDTH 11 0
BBX 7 8 3 0
BITMAP
3C
7C
66
66
7C
1C
F8
E0
ENDCHAR
STARTCHAR 20AC
ENCODING 8364
SWIDTH 495 0
DWIDTH 11 0
BBX 12 14 1 0
BITMAP
01F0
07F0
0F00
1C00
3FC0
7FC0
3800
3800
7F80
FF00
3800
3C00
1FC0
0FC0
ENDCHAR
STARTCHAR 20AE
ENCODING 8366
SWIDTH 495 0
DWIDTH 11 0
BBX 11 14 2 0
BITMAP
7FE0
7FE0
7FE0
0E00
0F80
0F80
3E00
7C00
5F00
1F00
7800
F800
B800
3800
ENDCHAR
STARTCHAR 20B4
ENCODING 8372
SWIDTH 495 0
DWIDTH 11 0
BBX 11 14 1 0
BITMAP
1F80
1FC0
11C0
00C0
7FE0
7FE0
0F00
1E00
FFC0
FFC0
6000
7000
7F80
3F80
ENDCHAR
STARTCHAR 20B9
ENCODING 8377
SWIDTH 495 0
DWIDTH 11 0
BBX 12 14 2 0
BITMAP
3FF0
3FE0
0380
0380
7FC0
7F80
0F00
FE00
F000
F000
7000
3800
3800
1C00
ENDCHAR
STARTCHAR 2113
ENCODING 8467
SWIDTH 495 0
DWIDTH 11 0
BBX 8 15 2 0
BITMAP
1E
1B
31
31
33
33
32
36
3C
38
70
F0
30
39
1F
ENDCHAR
STARTCHAR 2116
ENCODING 8470
SWIDTH 495 0
DWIDTH 11 0
BBX 13 14 0 0
BITMAP
19B8
19F8
1B68
1B48
3BD8
3B70
3A60
2E00
6E00
6FF0
6DE0
4C00
CC00
CC00
ENDCHAR
STARTCHAR 2122
ENCODING 8482
SWIDTH 495 0
DWIDTH 11 0
BBX 10 6 3 8
BITMAP
F480
4480
4F80
4BC0
4AC0
48C0
ENDCHAR
STARTCHAR 2126
ENCODING 8486
SWIDTH 495 0
DWIDTH 11 0
BBX 12 14 0 0
BITMAP
03C0
0FF0
1E70
1C70
3830
3870
3070
3070
3060
30E0
30C0
3980
FBE0
FBE0
ENDCHAR
STARTCHAR 212E
ENCODING 8494
SWIDTH 495 0
DWIDTH 11 0
BBX 10 9 1 0
BITMAP
0E00
3180
4040
4040
C040
FF80
4000
4000
3F80
ENDCHAR
STARTCHAR 2153
ENCODING 8531
SWIDTH 495 0
DWIDTH 11 0
BBX 12 14 1 0
BITMAP
0C70
3860
38C0
1980
1B80
3300
0600
0C00
1DC0
1BC0
30C0
61C0
E4C0
C780
ENDCHAR
STARTCHAR 2154
ENCODING 8532
SWIDTH 495 0
DWIDTH 11 0
BBX 12 14 1 0
BITMAP
3C30
3C60
0CC0
39C0
7D80
7B00
0600
0E00
0DC0
1BC0
30C0
71C0
60C0
C780
ENDCHAR
STARTCHAR 2155
ENCODING 8533
SWIDTH 495 0
DWIDTH 11 0
BBX 12 14 1 0
BITMAP
0C70
3860
38C0
1980
1B80
3300
0600
0C00
1DE0
19C0
3380
63C0
E4C0
C780
ENDCHAR
STARTCHAR 2156
ENCODING 8534
SWIDTH 495 0
DWIDTH 11 0
BBX 12 14 1 0
BITMAP
3C30
3C60
0CC0
38C0
7D80
7B00
0600
0600
0DE0
19C0
3380
33C0
64C0
C780
ENDCHAR
STARTCHAR 2157
ENCODING 8535
SWIDTH 495 0
DWIDTH 11 0
BBX 12 14 1 0
BITMAP
3C30
2C60
18C0
0CC0
7D80
7B00
0600
0600
0DE0
19C0
3380
33C0
64C0
C780
ENDCHAR
STARTCHAR 2158
ENCODING 8536
SWIDTH 495 0
DWIDTH 11 0
BBX 12 14 1 0
BITMAP
0C30
1C60
2CE0
7CC0
7D80
1B00
0700
0600
0DE0
19C0
3B80
33C0
64C0
C780
ENDCHAR
STARTCHAR 2159
ENCODING 8537
SWIDTH 495 0
DWIDTH 11 0
BBX 11 14 1 0
BITMAP
0C60
3860
38C0
1980
1B00
1B00
0600
0C00
18C0
1BC0
3780
67C0
C6C0
C780
ENDCHAR
STARTCHAR 215A
ENCODING 8538
SWIDTH 495 0
DWIDTH 11 0
BBX 12 14 1 0
BITMAP
1C30
1060
38C0
0D80
7D80
7B00
0600
0C00
0CC0
1BC0
3780
67C0
66C0
C780
ENDCHAR
STARTCHAR 215B
ENCODING 8539
SWIDTH 495 0
DWIDTH 11 0
BBX 11 14 1 0
BITMAP
0C60
3860
38C0
1980
1B00
1B00
0600
0C00
19C0
1BC0
33C0
67C0
C6C0
C780
ENDCHAR
STARTCHAR 215C
ENCODING 8540
SWIDTH 495 0
DWIDTH 11 0
BBX 12 14 1 0
BITMAP
3C30
2C60
18C0
0DC0
7D80
7B00
0600
0E00
0DC0
1BC0
33C0
77C0
66C0
C780
ENDCHAR
STARTCHAR 215D
ENCODING 8541
SWIDTH 495 0
DWIDTH 11 0
BBX 12 14 1 0
BITMAP
1C30
1060
38C0
0DC0
7D80
7B00
0600
0E00
0DC0
1BC0
33C0
77C0
66C0
C780
ENDCHAR
STARTCHAR 215E
ENCODING 8542
SWIDTH 495 0
DWIDTH 11 0
BBX 12 14 0 0
BITMAP
1F30
0370
0660
0CC0
1980
1B80
0300
0600
0CE0
1DE0
19E0
33E0
6360
E3C0
ENDCHAR
STARTCHAR 2202
ENCODING 8706
SWIDTH 495 0
DWIDTH 11 0
BBX 11 15 1 0
BITMAP
1F80
1FC0
10E0
00E0
0060
0FE0
3FE0
38E0
70E0
60C0
61C0
E1C0
7380
7F00
3E00
ENDCHAR
STARTCHAR 2206
ENCODING 8710
SWIDTH 495 0
DWIDTH 11 0
BBX 11 14 0 0
BITMAP
01C0
03C0
03C0
06C0
0EC0
0CC0
1CC0
18C0
38C0
38C0
70E0
70E0
7FE0
FFE0
ENDCHAR
STARTCHAR 220F
ENCODING 8719
SWIDTH 495 0
DWIDTH 11 0
BBX 13 16 0 -2
BITMAP
0FF8
0FF8
1FF0
1C70
1C70
1870
3860
3860
38E0
30E0
70E0
70C0
71C0
61C0
E1C0
E180
ENDCHAR
STARTCHAR 2211
ENCODING 8721
SWIDTH 495 0
DWIDTH 11 0
BBX 13 16 0 -2
BITMAP
0FF8
1FF8
0FF8
0E00
0600
0700
0700
0380
0700
0700
0E00
1C00
3800
7000
FFC0
FFC0
ENDCHAR
STARTCHAR 2212
ENCODING 8722
SWIDTH 495 0
DWIDTH 11 0
BBX 9 2 2 5
BITMAP
FF80
FF80
ENDCHAR
STARTCHAR 2215
ENCODING 8725
SWIDTH 495 0
DWIDTH 11 0
BBX 12 14 1 0
BITMAP
0070
0060
00E0
01C0
0380
0300
0700
0E00
1C00
1800
3800
7000
E000
C000
ENDCHAR
STARTCHAR 2219
ENCODING 8729
SWIDTH 495 0
DWIDTH 11 0
BBX 4 4 4 4
BITMAP
70
70
F0
70
ENDCHAR
STARTCHAR 221A
ENCODING 8730
SWIDTH 495 0
DWIDTH 11 0
BBX 12 16 2 0
BITMAP
0030
0070
0060
00E0
00C0
01C0
0180
0380
6300
F700
F600
7E00
3C00
3C00
3800
3800
ENDCHAR
STARTCHAR 221E
ENCODING 8734
SWIDTH 495 0
DWIDTH 11 0
BBX 11 6 1 3
BITMAP
39C0
7FE0
6E60
CE60
FFC0
7BC0
ENDCHAR
STARTCHAR 222B
ENCODING 8747
SWIDTH 495 0
DWIDTH 11 0
BBX 12 19 0 -4
BITMAP
00F0
01F0
0380
0380
0380
0300
0700
0700
0700
0700
0600
0E00
0E00
0E00
0C00
1C00
FC00
F800
E000
ENDCHAR
STARTCHAR 2248
ENCODING 8776
SWIDTH 495 0
DWIDTH 11 0
BBX 12 9 1 1
BITMAP
1E30
3FE0
77E0
2180
0000
7CE0
7FC0
CF80
4300
ENDCHAR
STARTCHAR 2260
ENCODING 8800
SWIDTH 495 0
DWIDTH 11 0
BBX 10 12 2 0
BITMAP
0080
00C0
0180
7FC0
7FC0
0E00
0C00
FF80
FF80
7000
6000
4000
ENDCHAR
STARTCHAR 2264
ENCODING 8804
SWIDTH 495 0
DWIDTH 11 0
BBX 12 12 1 0
BITMAP
0070
03F0
1FC0
3E00
3C00
3F00
0FC0
03C0
0040
0000
FFC0
FF80
ENDCHAR
STARTCHAR 2265
ENCODING 8805
SWIDTH 495 0
DWIDTH 11 0
BBX 11 12 1 0
BITMAP
1C00
1F00
0FC0
03E0
01E0
0FE0
7F00
7800
4000
0000
FFC0
FF80
ENDCHAR
STARTCHAR 2500
ENCODING 9472
SWIDTH 495 0
DWIDTH 11 0
BBX 11 2 0 6
BITMAP
FFE0
FFE0
ENDCHAR
STARTCHAR 2502
ENCODING 9474
SWIDTH 495 0
DWIDTH 11 0
BBX 1 22 5 -4
BITMAP
80
80
80
80
80
80
80
80
80
80
80
80
80
80
80
80
80
80
80
80
80
80
ENDCHAR
STARTCHAR 250C
ENCODING 9484
SWIDTH 495 0
DWIDTH 11 0
BBX 6 12 5 -4
BITMAP
FC
FC
80
80
80
80
80
80
80
80
80
80
ENDCHAR
STARTCHAR 2510
ENCODING 9488
SWIDTH 495 0
DWIDTH 11 0
BBX 6 12 0 -4
BITMAP
FC
FC
04
04
04
04
04
04
04
04
04
04
ENDCHAR
STARTCHAR 2514
ENCODING 9492
SWIDTH 495 0
DWIDTH 11 0
BBX 6 12 5 6
BITMAP
80
80
80
80
80
80
80
80
80
80
FC
FC
ENDCHAR
STARTCHAR 2518
ENCODING 9496
SWIDTH 495 0
DWIDTH 11 0
BBX 6 12 0 6
BITMAP
04
04
04
04
04
04
04
04
04
04
FC
FC
ENDCHAR
STARTCHAR 251C
ENCODING 9500
SWIDTH 495 0
DWIDTH 11 0
BBX 6 22 5 -4
BITMAP
80
80
80
80
80
80
80
80
80
80
FC
FC
80
80
80
80
80
80
80
80
80
80
ENDCHAR
STARTCHAR 2524
ENCODING 9508
SWIDTH 495 0
DWIDTH 11 0
BBX 6 22 0 -4
BITMAP
04
04
04
04
04
04
04
04
04
04
FC
FC
04
04
04
04
04
04
04
04
04
04
ENDCHAR
STARTCHAR 252C
ENCODING 9516
SWIDTH 495 0
DWIDTH 11 0
BBX 11 12 0 -4
BITMAP
FFE0
FFE0
0400
0400
0400
0400
0400
0400
0400
0400
0400
0400
ENDCHAR
STARTCHAR 2534
ENCODING 9524
SWIDTH 495 0
DWIDTH 11 0
BBX 11 12 0 6
BITMAP
0400
0400
0400
0400
0400
0400
0400
0400
0400
0400
FFE0
FFE0
ENDCHAR
STARTCHAR 253C
ENCODING 9532
SWIDTH 495 0
DWIDTH 11 0
BBX 11 22 0 -4
BITMAP
0400
0400
0400
0400
0400
0400
0400
0400
0400
0400
FFE0
FFE0
0400
0400
0400
0400
0400
0400
0400
0400
0400
0400
ENDCHAR
STARTCHAR 2550
ENCODING 9552
SWIDTH 495 0
DWIDTH 11 0
BBX 11 5 0 5
BITMAP
FFE0
FFE0
0000
0000
FFE0
ENDCHAR
STARTCHAR 2551
ENCODING 9553
SWIDTH 495 0
DWIDTH 11 0
BBX 5 22 3 -4
BITMAP
D8
D8
D8
D8
D8
D8
D8
D8
D8
D8
D8
D8
D8
D8
D8
D8
D8
D8
D8
D8
D8
D8
ENDCHAR
STARTCHAR 2552
ENCODING 9554
SWIDTH 495 0
DWIDTH 11 0
BBX 6 14 5 -4
BITMAP
FC
FC
00
00
FC
80
80
80
80
80
80
80
80
80
ENDCHAR
STARTCHAR 2553
ENCODING 9555
SWIDTH 495 0
DWIDTH 11 0
BBX 8 12 3 -4
BITMAP
DF
DF
D8
D8
D8
D8
D8
D8
D8
D8
D8
D8
ENDCHAR
STARTCHAR 2554
ENCODING 9556
SWIDTH 495 0
DWIDTH 11 0
BBX 8 14 3 -4
BITMAP
FF
FF
C0
C0
DF
D8
D8
D8
D8
D8
D8
D8
D8
D8
ENDCHAR
STARTCHAR 2555
ENCODING 9557
SWIDTH 495 0
DWIDTH 11 0
BBX 6 14 0 -4
BITMAP
FC
FC
00
00
FC
04
04
04
04
04
04
04
04
04
ENDCHAR
STARTCHAR 2556
ENCODING 9558
SWIDTH 495 0
DWIDTH 11 0
BBX 8 12 0 -4
BITMAP
FB
FB
1B
1B
1B
1B
1B
1B
1B
1B
1B
1B
ENDCHAR
STARTCHAR 2557
ENCODING 9559
SWIDTH 495 0
DWIDTH 11 0
BBX 8 14 0 -4
BITMAP
FF
FF
03
03
FB
1B
1B
1B
1B
1B
1B
1B
1B
1B
ENDCHAR
STARTCHAR 2558
ENCODING 9560
SWIDTH 495 0
DWIDTH 11 0
BBX 6 13 5 5
BITMAP
80
80
80
80
80
80
80
80
FC
FC
00
00
FC
ENDCHAR
STARTCHAR 2559
ENCODING 9561
SWIDTH 495 0
DWIDTH 11 0
BBX 8 12 3 6
BITMAP
D8
D8
D8
D8
D8
D8
D8
D8
D8
D8
DF
DF
ENDCHAR
STARTCHAR 255A
ENCODING 9562
SWIDTH 495 0
DWIDTH 11 0
BBX 8 13 3 5
BITMAP
D8
D8
D8
D8
D8
D8
D8
D8
DF
DF
C0
C0
FF
ENDCHAR
STARTCHAR 255B
ENCODING 9563
SWIDTH 495 0
DWIDTH 11 0
BBX 6 13 0 5
BITMAP
04
04
04
04
04
04
04
04
FC
FC
00
00
FC
ENDCHAR
STARTCHAR 255C
ENCODING 9564
SWIDTH 495 0
DWIDTH 11 0
BBX 8 12 0 6
BITMAP
1B
1B
1B
1B
1B
1B
1B
1B
1B
1B
FB
FB
ENDCHAR
STARTCHAR 255D
ENCODING 9565
SWIDTH 495 0
DWIDTH 11 0
BBX 8 13 0 5
BITMAP
1B
1B
1B
1B
1B
1B
1B
1B
FB
FB
03
03
FF
ENDCHAR
STARTCHAR 255E
ENCODING 9566
SWIDTH 495 0
DWIDTH 11 0
BBX 6 22 5 -4
BITMAP
80
80
80
80
80
80
80
80
FC
FC
00
00
FC
80
80
80
80
80
80
80
80
80
ENDCHAR
STARTCHAR 255F
ENCODING 9567
SWIDTH 495 0
DWIDTH 11 0
BBX 8 22 3 -4
BITMAP
D8
D8
D8
D8
D8
D8
D8
D8
D8
D8
DF
DF
D8
D8
D8
D8
D8
D8
D8
D8
D8
D8
ENDCHAR
STARTCHAR 2560
ENCODING 9568
SWIDTH 495 0
DWIDTH 11 0
BBX 8 22 3 -4
BITMAP
D8
D8
D8
D8
D8
D8
D8
D8
DF
DF
C0
C0
DF
D8
D8
D8
D8
D8
D8
D8
D8
D8
ENDCHAR
STARTCHAR 2561
ENCODING 9569
SWIDTH 495 0
DWIDTH 11 0
BBX 6 22 0 -4
BITMAP
04
04
04
04
04
04
04
04
FC
FC
00
00
FC
04
04
04
04
04
04
04
04
04
ENDCHAR
STARTCHAR 2562
ENCODING 9570
SWIDTH 495 0
DWIDTH 11 0
BBX 8 22 0 -4
BITMAP
1B
1B
1B
1B
1B
1B
1B
1B
1B
1B
FB
FB
1B
1B
1B
1B
1B
1B
1B
1B
1B
1B
ENDCHAR
STARTCHAR 2563
ENCODING 9571
SWIDTH 495 0
DWIDTH 11 0
BBX 8 22 0 -4
BITMAP
1B
1B
1B
1B
1B
1B
1B
1B
FB
FB
03
03
FB
1B
1B
1B
1B
1B
1B
1B
1B
1B
ENDCHAR
STARTCHAR 2564
ENCODING 9572
SWIDTH 495 0
DWIDTH 11 0
BBX 11 14 0 -4
BITMAP
FFE0
FFE0
0000
0000
FFE0
0400
0400
0400
0400
0400
0400
0400
0400
0400
ENDCHAR
STARTCHAR 2565
ENCODING 9573
SWIDTH 495 0
DWIDTH 11 0
BBX 11 12 0 -4
BITMAP
FFE0
FFE0
1B00
1B00
1B00
1B00
1B00
1B00
1B00
1B00
1B00
1B00
ENDCHAR
STARTCHAR 2566
ENCODING 9574
SWIDTH 495 0
DWIDTH 11 0
BBX 11 14 0 -4
BITMAP
FFE0
FFE0
0000
0000
FBE0
1B00
1B00
1B00
1B00
1B00
1B00
1B00
1B00
1B00
ENDCHAR
STARTCHAR 2567
ENCODING 9575
SWIDTH 495 0
DWIDTH 11 0
BBX 11 13 0 5
BITMAP
0400
0400
0400
0400
0400
0400
0400
0400
FFE0
FFE0
0000
0000
FFE0
ENDCHAR
STARTCHAR 2568
ENCODING 9576
SWIDTH 495 0
DWIDTH 11 0
BBX 11 12 0 6
BITMAP
1B00
1B00
1B00
1B00
1B00
1B00
1B00
1B00
1B00
1B00
FFE0
FFE0
ENDCHAR
STARTCHAR 2569
ENCODING 9577
SWIDTH 495 0
DWIDTH 11 0
BBX 11 13 0 5
BITMAP
1B00
1B00
1B00
1B00
1B00
1B00
1B00
1B00
FBE0
FBE0
0000
0000
FFE0
ENDCHAR
STARTCHAR 256A
ENCODING 9578
SWIDTH 495 0
DWIDTH 11 0
BBX 11 22 0 -4
BITMAP
0400
0400
0400
0400
0400
0400
0400
0400
FFE0
FFE0
0400
0400
FFE0
0400
0400
0400
0400
0400
0400
0400
0400
0400
ENDCHAR
STARTCHAR 256B
ENCODING 9579
SWIDTH 495 0
DWIDTH 11 0
BBX 11 22 0 -4
BITMAP
1B00
1B00
1B00
1B00
1B00
1B00
1B00
1B00
1B00
1B00
FFE0
FFE0
1B00
1B00
1B00
1B00
1B00
1B00
1B00
1B00
1B00
1B00
ENDCHAR
STARTCHAR 256C
ENCODING 9580
SWIDTH 495 0
DWIDTH 11 0
BBX 11 22 0 -4
BITMAP
1B00
1B00
1B00
1B00
1B00
1B00
1B00
1B00
FBE0
FBE0
0000
0000
FBE0
1B00
1B00
1B00
1B00
1B00
1B00
1B00
1B00
1B00
ENDCHAR
STARTCHAR 2588
ENCODING 9608
SWIDTH 495 0
DWIDTH 11 0
BBX 11 22 0 -4
BITMAP
FFE0
FFE0
FFE0
FFE0
FFE0
FFE0
FFE0
FFE0
FFE0
FFE0
FFE0
FFE0
FFE0
FFE0
FFE0
FFE0
FFE0
FFE0
FFE0
FFE0
FFE0
FFE0
ENDCHAR
STARTCHAR 2591
ENCODING 9617
SWIDTH 495 0
DWIDTH 11 0
BBX 11 20 0 -2
BITMAP
2440
0000
9120
0000
2440
9120
0000
2440
0000
9120
0000
2440
9120
0000
2440
0000
9120
0000
2440
9120
ENDCHAR
STARTCHAR 2592
ENCODING 9618
SWIDTH 495 0
DWIDTH 11 0
BBX 11 20 0 -2
BITMAP
4A80
0000
B560
0000
4A80
B560
0000
4A80
0000
B560
0000
4A80
B560
0000
4A80
0000
B560
0000
4A80
B560
ENDCHAR
STARTCHAR 2593
ENCODING 9619
SWIDTH 495 0
DWIDTH 11 0
BBX 11 22 0 -4
BITMAP
FFE0
FFE0
B560
FFE0
B560
FFE0
FFE0
B560
FFE0
B560
FFE0
B560
FFE0
FFE0
B560
FFE0
B560
FFE0
B560
FFE0
FFE0
B560
ENDCHAR
STARTCHAR 25CA
ENCODING 9674
SWIDTH 495 0
DWIDTH 11 0
BBX 9 14 2 0
BITMAP
0200
0600
0F00
1F00
3B00
7380
E180
E380
6380
7700
7E00
3C00
3800
1000
ENDCHAR
STARTCHAR E0FF
ENCODING 57599
SWIDTH 495 0
DWIDTH 11 0
BBX 9 8 3 7
BITMAP
3E00
7500
6F80
DD80
DF80
6B80
7D00
3E00
ENDCHAR
STARTCHAR EFFD
ENCODING 61437
SWIDTH 495 0
DWIDTH 11 0
BBX 14 14 0 0
BITMAP
3C78
7EFC
66CC
D6F8
D6F8
CF98
FDB8
79F0
0000
0000
0C00
1E00
1E00
1C00
ENDCHAR
STARTCHAR F000
ENCODING 61440
SWIDTH 495 0
DWIDTH 11 0
BBX 19 15 -4 0
BITMAP
FE0FE0
812020
812020
812020
812020
812020
800020
7F1FC0
812020
812020
812020
812020
812020
812020
7F1FC0
ENDCHAR
STARTCHAR F001
ENCODING 61441
SWIDTH 495 0
DWIDTH 11 0
BBX 15 19 -2 -4
BITMAP
01EE
03EE
030E
0700
0700
0FDC
0FDC
061C
0E18
0E18
0E38
0C38
0C30
1C30
1C70
1800
F800
F000
E000
ENDCHAR
STARTCHAR F002
ENCODING 61442
SWIDTH 495 0
DWIDTH 11 0
BBX 15 19 -2 -4
BITMAP
01E6
03EE
030E
070C
070C
0FDC
0FDC
0618
0E18
0E38
0E38
0C30
0C38
1C38
1C18
1800
F800
F000
E000
ENDCHAR
STARTCHAR F506
ENCODING 62726
SWIDTH 495 0
DWIDTH 11 0
BBX 12 14 1 0
BITMAP
0C70
3860
38C0
1980
1B80
3300
0600
0C00
1DE0
1BE0
30C0
6180
E300
C300
ENDCHAR
STARTCHAR F507
ENCODING 62727
SWIDTH 495 0
DWIDTH 11 0
BBX 12 14 1 0
BITMAP
3C30
3C60
0CC0
39C0
7D80
7B00
0600
0E00
0DE0
1BE0
30C0
7180
6300
C300
ENDCHAR
STARTCHAR F508
ENCODING 62728
SWIDTH 495 0
DWIDTH 11 0
BBX 12 14 1 0
BITMAP
3C30
2C60
18C0
0DC0
7D80
7B00
0600
0E00
0DE0
1BE0
30C0
7180
6300
C300
ENDCHAR
STARTCHAR F509
ENCODING 62729
SWIDTH 495 0
DWIDTH 11 0
BBX 12 14 1 0
BITMAP
0C30
1C60
2CC0
7DC0
7D80
1B00
0600
0E00
0DE0
1BE0
30C0
7180
6300
C300
ENDCHAR
STARTCHAR F50A
ENCODING 62730
SWIDTH 495 0
DWIDTH 11 0
BBX 12 14 1 0
BITMAP
1C30
1060
38C0
0DC0
7D80
7B00
0600
0E00
0DE0
1BE0
30C0
7180
6300
C300
ENDCHAR
STARTCHAR F50B
ENCODING 62731
SWIDTH 495 0
DWIDTH 11 0
BBX 12 14 1 0
BITMAP
1C30
3060
78C0
6DC0
6D80
3B00
0600
0E00
0DE0
1BE0
30C0
7180
6300
C300
ENDCHAR
STARTCHAR F50C
ENCODING 62732
SWIDTH 495 0
DWIDTH 11 0
BBX 11 14 1 0
BITMAP
0C60
3860
38C0
1980
1B00
1B00
0600
0C00
19C0
1BC0
3240
63C0
C0C0
C380
ENDCHAR
STARTCHAR F50D
ENCODING 62733
SWIDTH 495 0
DWIDTH 11 0
BBX 12 14 1 0
BITMAP
3C30
3C60
0CC0
38C0
7D80
7B00
0600
0600
0DC0
1BC0
3240
33C0
60C0
C380
ENDCHAR
STARTCHAR F50E
ENCODING 62734
SWIDTH 495 0
DWIDTH 11 0
BBX 12 14 1 0
BITMAP
0C30
1C60
2CE0
7CC0
7D80
1B00
0700
0600
0DC0
1BC0
3A40
33C0
60C0
C380
ENDCHAR
STARTCHAR F50F
ENCODING 62735
SWIDTH 495 0
DWIDTH 11 0
BBX 12 14 1 0
BITMAP
1C30
1060
38C0
0D80
7D80
7B00
0600
0C00
0DC0
1BC0
3240
63C0
60C0
C380
ENDCHAR
STARTCHAR F510
ENCODING 62736
SWIDTH 495 0
DWIDTH 11 0
BBX 12 14 0 0
BITMAP
1F30
0370
0660
0CC0
1980
1B80
0300
0600
0CE0
1DE0
1920
31E0
6060
E1C0
ENDCHAR
STARTCHAR F511
ENCODING 62737
SWIDTH 495 0
DWIDTH 11 0
BBX 12 14 1 0
BITMAP
3C30
2460
3CC0
6D80
6D80
7B00
0600
0C00
0DC0
1BC0
3240
63C0
60C0
C380
ENDCHAR
STARTCHAR F80A
ENCODING 63498
SWIDTH 495 0
DWIDTH 11 0
BBX 7 8 5 8
BITMAP
7C
6C
C6
FC
CC
CC
F8
70
ENDCHAR
STARTCHAR F80B
ENCODING 63499
SWIDTH 495 0
DWIDTH 11 0
BBX 6 8 4 8
BITMAP
1C
7C
7C
18
18
18
FC
FC
ENDCHAR
STARTCHAR F80C
ENCODING 63500
SWIDTH 495 0
DWIDTH 11 0
BBX 6 8 5 8
BITMAP
7C
6C
0C
18
70
E0
F8
F8
ENDCHAR
STARTCHAR F80D
ENCODING 63501
SWIDTH 495 0
DWIDTH 11 0
BBX 6 8 5 8
BITMAP
7C
4C
0C
38
1C
0C
F8
F0
ENDCHAR
STARTCHAR F80E
ENCODING 63502
SWIDTH 495 0
DWIDTH 11 0
BBX 7 8 4 8
BITMAP
06
1E
36
66
7E
FE
0C
0C
ENDCHAR
STARTCHAR F80F
ENCODING 63503
SWIDTH 495 0
DWIDTH 11 0
BBX 6 8 5 8
BITMAP
3C
7C
60
78
1C
1C
F8
F0
ENDCHAR
STARTCHAR F810
ENCODING 63504
SWIDTH 495 0
DWIDTH 11 0
BBX 6 8 5 8
BITMAP
3C
70
C0
F8
CC
DC
F8
70
ENDCHAR
STARTCHAR F811
ENCODING 63505
SWIDTH 495 0
DWIDTH 11 0
BBX 7 8 5 8
BITMAP
7E
7E
1C
38
30
60
60
E0
ENDCHAR
STARTCHAR F812
ENCODING 63506
SWIDTH 495 0
DWIDTH 11 0
BBX 7 8 5 8
BITMAP
7C
66
6C
78
DC
8C
F8
70
ENDCHAR
STARTCHAR F813
ENCODING 63507
SWIDTH 495 0
DWIDTH 11 0
BBX 7 8 5 8
BITMAP
7C
6C
66
7C
7C
18
F0
C0
ENDCHAR
STARTCHAR F814
ENCODING 63508
SWIDTH 495 0
DWIDTH 11 0
BBX 7 8 2 -2
BITMAP
1C
3E
66
C6
D6
C6
CC
78
ENDCHAR
STARTCHAR F815
ENCODING 63509
SWIDTH 495 0
DWIDTH 11 0
BBX 6 8 2 -2
BITMAP
0C
3C
78
58
18
38
30
FC
ENDCHAR
STARTCHAR F816
ENCODING 63510
SWIDTH 495 0
DWIDTH 11 0
BBX 7 8 2 -2
BITMAP
18
7C
4E
0C
1C
70
E0
FC
ENDCHAR
STARTCHAR F817
ENCODING 63511
SWIDTH 495 0
DWIDTH 11 0
BBX 7 8 2 -3
BITMAP
1C
3E
06
0C
3C
0C
8C
FC
ENDCHAR
STARTCHAR F818
ENCODING 63512
SWIDTH 495 0
DWIDTH 11 0
BBX 7 8 2 -2
BITMAP
06
0E
1C
2C
6C
FE
FC
18
ENDCHAR
STARTCHAR F819
ENCODING 63513
SWIDTH 495 0
DWIDTH 11 0
BBX 7 8 2 -2
BITMAP
3E
3E
30
70
7C
0C
DC
F8
ENDCHAR
STARTCHAR F81A
ENCODING 63514
SWIDTH 495 0
DWIDTH 11 0
BBX 7 8 2 -2
BITMAP
06
3E
70
78
FC
CC
CC
78
ENDCHAR
STARTCHAR F81B
ENCODING 63515
SWIDTH 495 0
DWIDTH 11 0
BBX 7 8 3 -2
BITMAP
7E
FC
1C
38
30
60
60
C0
ENDCHAR
STARTCHAR F81C
ENCODING 63516
SWIDTH 495 0
DWIDTH 11 0
BBX 7 8 2 -3
BITMAP
1C
3E
66
7E
7C
CC
CC
FC
ENDCHAR
STARTCHAR F81D
ENCODING 63517
SWIDTH 495 0
DWIDTH 11 0
BBX 7 8 2 -2
BITMAP
1C
3E
66
66
7E
1C
3C
F0
ENDCHAR
STARTCHAR FB01
ENCODING 64257
SWIDTH 495 0
DWIDTH 11 0
BBX 15 19 -2 -4
BITMAP
01EE
03EE
030E
0700
0700
0FDC
0FDC
061C
0E18
0E18
0E38
0C38
0C30
1C30
1C70
1800
F800
F000
E000
ENDCHAR
STARTCHAR FB02
ENCODING 64258
SWIDTH 495 0
DWIDTH 11 0
BBX 15 19 -2 -4
BITMAP
01E6
03EE
030E
070C
070C
0FDC
0FDC
0618
0E18
0E38
0E38
0C30
0C38
1C38
1C18
1800
F800
F000
E000
ENDCHAR
STARTCHAR FFFD
ENCODING 65533
SWIDTH 495 0
DWIDTH 11 0
BBX 11 11 0 0
BITMAP
0400
0E00
1F00
3180
7CC0
FDE0
7BC0
3F80
1B00
0A00
0400
ENDCHAR
ENDFONT
